Caladea-BoldIt.ufo
<glyph name="exclam" format="1">
  <advance width="328"/>
  <unicode hex="0021"/>
  <outline>
    <contour>
      <point x="172" y="220" type="line"/>
      <point x="206" y="361"/>
      <point x="300" y="559"/>
      <point x="300" y="623" type="curve" smooth="yes"/>
      <point x="300" y="663"/>
      <point x="280" y="690"/>
      <point x="219" y="690" type="curve" smooth="yes"/>
      <point x="182" y="690"/>
      <point x="155" y="670"/>
      <point x="146" y="655" type="curve"/>
      <point x="148" y="636"/>
      <point x="149" y="586"/>
      <point x="149" y="557" type="curve" smooth="yes"/>
      <point x="149" y="410"/>
      <point x="111" y="288"/>
      <point x="95" y="206" type="curve"/>
    </contour>
    <contour>
      <point x="124" y="132" type="curve" smooth="yes"/>
      <point x="77" y="132"/>
      <point x="48" y="99"/>
      <point x="48" y="52" type="curve" smooth="yes"/>
      <point x="48" y="20"/>
      <point x="68" y="-4"/>
      <point x="99" y="-4" type="curve" smooth="yes"/>
      <point x="146" y="-4"/>
      <point x="175" y="30"/>
      <point x="175" y="77" type="curve" smooth="yes"/>
      <point x="175" y="108"/>
      <point x="156" y="132"/>
    </contour>
  </outline>
</glyph>
<glyph name="quotedbl" format="1">
  <advance width="400"/>
  <unicode hex="0022"/>
  <outline>
    <contour>
      <point x="129" y="460" type="curve"/>
      <point x="181" y="460" type="line"/>
      <point x="181" y="460"/>
      <point x="240" y="630"/>
      <point x="240" y="658" type="curve" smooth="yes"/>
      <point x="240" y="686"/>
      <point x="220" y="703"/>
      <point x="192" y="703" type="curve" smooth="yes"/>
      <point x="159" y="703"/>
      <point x="128" y="679"/>
      <point x="128" y="572" type="curve" smooth="yes"/>
      <point x="128" y="533"/>
      <point x="129" y="460"/>
    </contour>
    <contour>
      <point x="303" y="460" type="curve"/>
      <point x="355" y="460" type="line"/>
      <point x="355" y="460"/>
      <point x="414" y="630"/>
      <point x="414" y="658" type="curve" smooth="yes"/>
      <point x="414" y="686"/>
      <point x="394" y="703"/>
      <point x="366" y="703" type="curve" smooth="yes"/>
      <point x="333" y="703"/>
      <point x="302" y="679"/>
      <point x="302" y="572" type="curve" smooth="yes"/>
      <point x="302" y="533"/>
      <point x="303" y="460"/>
    </contour>
  </outline>
</glyph>
<glyph name="numbersign" format="1">
  <advance width="602"/>
  <unicode hex="0023"/>
  <outline>
    <contour>
      <point x="94" y="346" type="line"/>
      <point x="188" y="346" type="line"/>
      <point x="147" y="237" type="line"/>
      <point x="37" y="237" type="line"/>
      <point x="12" y="157" type="line"/>
      <point x="117" y="157" type="line"/>
      <point x="58" y="0" type="line"/>
      <point x="133" y="-18" type="line"/>
      <point x="199" y="157" type="line"/>
      <point x="308" y="157" type="line"/>
      <point x="249" y="0" type="line"/>
      <point x="324" y="-18" type="line"/>
      <point x="390" y="157" type="line"/>
      <point x="501" y="157" type="line"/>
      <point x="526" y="237" type="line"/>
      <point x="420" y="237" type="line"/>
      <point x="461" y="346" type="line"/>
      <point x="583" y="346" type="line"/>
      <point x="607" y="426" type="line"/>
      <point x="490" y="426" type="line"/>
      <point x="545" y="570" type="line"/>
      <point x="470" y="588" type="line"/>
      <point x="409" y="426" type="line"/>
      <point x="299" y="426" type="line"/>
      <point x="354" y="570" type="line"/>
      <point x="279" y="588" type="line"/>
      <point x="218" y="426" type="line"/>
      <point x="118" y="426" type="line"/>
    </contour>
    <contour>
      <point x="270" y="346" type="line"/>
      <point x="379" y="346" type="line"/>
      <point x="338" y="237" type="line"/>
      <point x="229" y="237" type="line"/>
    </contour>
  </outline>
</glyph>
<glyph name="dollar" format="1">
  <advance width="501"/>
  <unicode hex="0024"/>
  <outline>
    <contour>
      <point x="308" y="732" type="line"/>
      <point x="292" y="631" type="line"/>
      <point x="183" y="618"/>
      <point x="100" y="544"/>
      <point x="100" y="442" type="curve" smooth="yes"/>
      <point x="100" y="372"/>
      <point x="139" y="330"/>
      <point x="231" y="289" type="curve" smooth="yes"/>
      <point x="238" y="286" type="line"/>
      <point x="205" y="80" type="line"/>
      <point x="168" y="87"/>
      <point x="148" y="112"/>
      <point x="148" y="143" type="curve" smooth="yes"/>
      <point x="148" y="159"/>
      <point x="153" y="175"/>
      <point x="163" y="191" type="curve"/>
      <point x="145" y="209"/>
      <point x="125" y="217"/>
      <point x="106" y="217" type="curve" smooth="yes"/>
      <point x="68" y="217"/>
      <point x="34" y="183"/>
      <point x="34" y="139" type="curve" smooth="yes"/>
      <point x="34" y="50"/>
      <point x="130" y="33"/>
      <point x="197" y="30" type="curve"/>
      <point x="182" y="-67" type="line"/>
      <point x="229" y="-72" type="line"/>
      <point x="244" y="-61" type="line"/>
      <point x="258" y="32" type="line"/>
      <point x="372" y="44"/>
      <point x="452" y="120"/>
      <point x="452" y="233" type="curve" smooth="yes"/>
      <point x="452" y="310"/>
      <point x="411" y="361"/>
      <point x="317" y="403" type="curve"/>
      <point x="345" y="584" type="line"/>
      <point x="375" y="578"/>
      <point x="393" y="562"/>
      <point x="393" y="539" type="curve" smooth="yes"/>
      <point x="393" y="520"/>
      <point x="381" y="498"/>
      <point x="361" y="480" type="curve"/>
      <point x="382" y="461"/>
      <point x="403" y="453"/>
      <point x="425" y="453" type="curve" smooth="yes"/>
      <point x="464" y="453"/>
      <point x="493" y="485"/>
      <point x="493" y="528" type="curve" smooth="yes"/>
      <point x="493" y="581"/>
      <point x="435" y="625"/>
      <point x="353" y="632" type="curve"/>
      <point x="370" y="739" type="line"/>
      <point x="330" y="744" type="line"/>
    </contour>
    <contour>
      <point x="227" y="500" type="curve" smooth="yes"/>
      <point x="227" y="539"/>
      <point x="249" y="568"/>
      <point x="284" y="580" type="curve"/>
      <point x="261" y="435" type="line"/>
      <point x="237" y="454"/>
      <point x="227" y="474"/>
    </contour>
    <contour>
      <point x="319" y="179" type="curve" smooth="yes"/>
      <point x="319" y="135"/>
      <point x="298" y="104"/>
      <point x="267" y="89" type="curve"/>
      <point x="292" y="248" type="line"/>
      <point x="310" y="229"/>
      <point x="319" y="206"/>
    </contour>
  </outline>
</glyph>
<glyph name="ampersand" format="1">
  <advance width="712"/>
  <unicode hex="0026"/>
  <outline>
    <contour>
      <point x="723" y="492" type="curve" smooth="yes"/>
      <point x="723" y="560"/>
      <point x="646" y="581"/>
      <point x="608" y="523" type="curve"/>
      <point x="619" y="516"/>
      <point x="625" y="502"/>
      <point x="625" y="492" type="curve" smooth="yes"/>
      <point x="625" y="375"/>
      <point x="389" y="440"/>
      <point x="389" y="308" type="curve" smooth="yes"/>
      <point x="389" y="276"/>
      <point x="418" y="251"/>
      <point x="456" y="251" type="curve"/>
      <point x="443" y="316"/>
      <point x="490" y="338"/>
      <point x="547" y="355" type="curve"/>
      <point x="549" y="339"/>
      <point x="550" y="321"/>
      <point x="550" y="305" type="curve" smooth="yes"/>
      <point x="550" y="152"/>
      <point x="449" y="67"/>
      <point x="311" y="67" type="curve" smooth="yes"/>
      <point x="237" y="67"/>
      <point x="182" y="109"/>
      <point x="182" y="184" type="curve" smooth="yes"/>
      <point x="182" y="273"/>
      <point x="242" y="329"/>
      <point x="342" y="354" type="curve"/>
      <point x="352" y="414" type="line"/>
      <point x="308" y="427"/>
      <point x="284" y="460"/>
      <point x="284" y="507" type="curve" smooth="yes"/>
      <point x="284" y="576"/>
      <point x="323" y="623"/>
      <point x="380" y="623" type="curve" smooth="yes"/>
      <point x="417" y="623"/>
      <point x="441" y="602"/>
      <point x="441" y="568" type="curve" smooth="yes"/>
      <point x="441" y="549"/>
      <point x="433" y="528"/>
      <point x="416" y="504" type="curve"/>
      <point x="430" y="488"/>
      <point x="448" y="480"/>
      <point x="470" y="480" type="curve" smooth="yes"/>
      <point x="521" y="480"/>
      <point x="568" y="527"/>
      <point x="568" y="579" type="curve" smooth="yes"/>
      <point x="568" y="641"/>
      <point x="489" y="687"/>
      <point x="385" y="687" type="curve" smooth="yes"/>
      <point x="239" y="687"/>
      <point x="135" y="607"/>
      <point x="135" y="496" type="curve" smooth="yes"/>
      <point x="135" y="446"/>
      <point x="158" y="407"/>
      <point x="201" y="386" type="curve"/>
      <point x="92" y="350"/>
      <point x="35" y="278"/>
      <point x="35" y="173" type="curve" smooth="yes"/>
      <point x="35" y="66"/>
      <point x="137" y="-8"/>
      <point x="289" y="-8" type="curve" smooth="yes"/>
      <point x="520" y="-8"/>
      <point x="631" y="161"/>
      <point x="609" y="372" type="curve"/>
      <point x="669" y="390"/>
      <point x="723" y="417"/>
    </contour>
  </outline>
</glyph>
<glyph name="quotesingle" format="1">
  <advance width="244"/>
  <unicode hex="0027"/>
  <outline>
    <contour>
      <point x="125" y="460" type="curve"/>
      <point x="177" y="460" type="line"/>
      <point x="177" y="460"/>
      <point x="236" y="630"/>
      <point x="236" y="658" type="curve" smooth="yes"/>
      <point x="236" y="686"/>
      <point x="216" y="703"/>
      <point x="188" y="703" type="curve" smooth="yes"/>
      <point x="155" y="703"/>
      <point x="124" y="679"/>
      <point x="124" y="572" type="curve" smooth="yes"/>
      <point x="124" y="533"/>
      <point x="125" y="460"/>
    </contour>
  </outline>
</glyph>
<glyph name="parenleft" format="1">
  <advance width="396"/>
  <unicode hex="0028"/>
  <outline>
    <contour>
      <point x="307" y="-139" type="line"/>
      <point x="238" y="-61"/>
      <point x="196" y="53"/>
      <point x="196" y="192" type="curve" smooth="yes"/>
      <point x="196" y="420"/>
      <point x="295" y="584"/>
      <point x="441" y="705" type="curve"/>
      <point x="420" y="730" type="line"/>
      <point x="420" y="730"/>
      <point x="81" y="560"/>
      <point x="81" y="218" type="curve" smooth="yes"/>
      <point x="81" y="-36"/>
      <point x="278" y="-165"/>
      <point x="278" y="-165" type="curve"/>
    </contour>
  </outline>
</glyph>
<glyph name="parenright" format="1">
  <advance width="396"/>
  <unicode hex="0029"/>
  <outline>
    <contour>
      <point x="-27" y="-165" type="line"/>
      <point x="-27" y="-165"/>
      <point x="311" y="4"/>
      <point x="311" y="346" type="curve" smooth="yes"/>
      <point x="311" y="601"/>
      <point x="115" y="730"/>
      <point x="115" y="730" type="curve"/>
      <point x="86" y="705" type="line"/>
      <point x="154" y="627"/>
      <point x="197" y="513"/>
      <point x="197" y="374" type="curve" smooth="yes"/>
      <point x="197" y="146"/>
      <point x="98" y="-18"/>
      <point x="-48" y="-139" type="curve"/>
    </contour>
  </outline>
</glyph>
<glyph name="asterisk" format="1">
  <advance width="439"/>
  <unicode hex="002A"/>
  <outline>
    <contour>
      <point x="247" y="408" type="curve"/>
      <point x="260" y="427"/>
      <point x="254" y="456"/>
      <point x="284" y="504" type="curve"/>
      <point x="289" y="486"/>
      <point x="291" y="471"/>
      <point x="291" y="458" type="curve" smooth="yes"/>
      <point x="291" y="444"/>
      <point x="290" y="433"/>
      <point x="290" y="424" type="curve" smooth="yes"/>
      <point x="290" y="401"/>
      <point x="303" y="389"/>
      <point x="320" y="389" type="curve" smooth="yes"/>
      <point x="344" y="389"/>
      <point x="363" y="410"/>
      <point x="363" y="431" type="curve" smooth="yes"/>
      <point x="363" y="436"/>
      <point x="362" y="440"/>
      <point x="361" y="445" type="curve"/>
      <point x="353" y="464"/>
      <point x="323" y="469"/>
      <point x="299" y="512" type="curve"/>
      <point x="348" y="507"/>
      <point x="368" y="484"/>
      <point x="391" y="484" type="curve" smooth="yes"/>
      <point x="413" y="484"/>
      <point x="433" y="503"/>
      <point x="433" y="526" type="curve" smooth="yes"/>
      <point x="433" y="544"/>
      <point x="421" y="557"/>
      <point x="402" y="557" type="curve" smooth="yes"/>
      <point x="379" y="557"/>
      <point x="352" y="534"/>
      <point x="303" y="529" type="curve"/>
      <point x="350" y="582"/>
      <point x="394" y="582"/>
      <point x="394" y="621" type="curve" smooth="yes"/>
      <point x="394" y="637"/>
      <point x="380" y="651"/>
      <point x="362" y="651" type="curve" smooth="yes"/>
      <point x="350" y="651"/>
      <point x="337" y="645"/>
      <point x="328" y="633" type="curve" smooth="yes"/>
      <point x="314" y="613"/>
      <point x="316" y="581"/>
      <point x="290" y="538" type="curve"/>
      <point x="285" y="555"/>
      <point x="284" y="571"/>
      <point x="284" y="585" type="curve" smooth="yes"/>
      <point x="284" y="595"/>
      <point x="285" y="604"/>
      <point x="285" y="612" type="curve" smooth="yes"/>
      <point x="285" y="638"/>
      <point x="274" y="651"/>
      <point x="254" y="651" type="curve" smooth="yes"/>
      <point x="228" y="651"/>
      <point x="210" y="630"/>
      <point x="210" y="611" type="curve" smooth="yes"/>
      <point x="210" y="578"/>
      <point x="247" y="578"/>
      <point x="274" y="528" type="curve"/>
      <point x="223" y="533"/>
      <point x="206" y="557"/>
      <point x="184" y="557" type="curve" smooth="yes"/>
      <point x="161" y="557"/>
      <point x="142" y="539"/>
      <point x="142" y="514" type="curve" smooth="yes"/>
      <point x="142" y="497"/>
      <point x="154" y="484"/>
      <point x="172" y="484" type="curve" smooth="yes"/>
      <point x="195" y="484"/>
      <point x="218" y="507"/>
      <point x="271" y="512" type="curve"/>
      <point x="221" y="453"/>
      <point x="180" y="460"/>
      <point x="180" y="419" type="curve" smooth="yes"/>
      <point x="180" y="405"/>
      <point x="193" y="389"/>
      <point x="212" y="389" type="curve" smooth="yes"/>
      <point x="224" y="389"/>
      <point x="237" y="396"/>
    </contour>
  </outline>
</glyph>
<glyph name="plus" format="1">
  <advance width="573"/>
  <unicode hex="002B"/>
  <outline>
    <contour>
      <point x="76" y="238" type="line"/>
      <point x="229" y="238" type="line"/>
      <point x="204" y="82" type="line"/>
      <point x="304" y="82" type="line"/>
      <point x="329" y="238" type="line"/>
      <point x="485" y="238" type="line"/>
      <point x="500" y="333" type="line"/>
      <point x="344" y="333" type="line"/>
      <point x="369" y="490" type="line"/>
      <point x="269" y="490" type="line"/>
      <point x="244" y="333" type="line"/>
      <point x="91" y="333" type="line"/>
    </contour>
  </outline>
</glyph>
<glyph name="comma" format="1">
  <advance width="225"/>
  <unicode hex="002C"/>
  <outline>
    <contour>
      <point x="30" y="23" type="curve"/>
      <point x="37" y="26"/>
      <point x="44" y="28"/>
      <point x="50" y="28" type="curve" smooth="yes"/>
      <point x="63" y="28"/>
      <point x="72" y="20"/>
      <point x="72" y="4" type="curve" smooth="yes"/>
      <point x="72" y="-28"/>
      <point x="37" y="-71"/>
      <point x="-14" y="-105" type="curve"/>
      <point x="9" y="-140" type="line"/>
      <point x="112" y="-86"/>
      <point x="166" y="-12"/>
      <point x="166" y="70" type="curve" smooth="yes"/>
      <point x="166" y="112"/>
      <point x="144" y="140"/>
      <point x="95" y="140" type="curve" smooth="yes"/>
      <point x="50" y="140"/>
      <point x="15" y="103"/>
      <point x="15" y="65" type="curve" smooth="yes"/>
      <point x="15" y="49"/>
      <point x="20" y="34"/>
    </contour>
  </outline>
</glyph>
<glyph name="hyphen" format="1">
  <advance width="325"/>
  <unicode hex="002D"/>
  <outline>
    <contour>
      <point x="45" y="219" type="line"/>
      <point x="276" y="219" type="line"/>
      <point x="291" y="314" type="line"/>
      <point x="60" y="314" type="line"/>
    </contour>
  </outline>
</glyph>
<glyph name="period" format="1">
  <advance width="225"/>
  <unicode hex="002E"/>
  <outline>
    <contour>
      <point x="139" y="149" type="curve" smooth="yes"/>
      <point x="86" y="149"/>
      <point x="53" y="111"/>
      <point x="53" y="58" type="curve" smooth="yes"/>
      <point x="53" y="23"/>
      <point x="75" y="-4"/>
      <point x="110" y="-4" type="curve" smooth="yes"/>
      <point x="163" y="-4"/>
      <point x="196" y="34"/>
      <point x="196" y="87" type="curve" smooth="yes"/>
      <point x="196" y="122"/>
      <point x="174" y="149"/>
    </contour>
  </outline>
</glyph>
<glyph name="slash" format="1">
  <advance width="480"/>
  <unicode hex="002F"/>
  <outline>
    <contour>
      <point x="65" y="-140" type="line"/>
      <point x="503" y="672" type="line"/>
      <point x="434" y="700" type="line"/>
      <point x="-5" y="-112" type="line"/>
    </contour>
  </outline>
</glyph>
<glyph name="zero" format="1">
  <advance width="573"/>
  <unicode hex="0030"/>
  <outline>
    <contour>
      <point x="253" y="48" type="curve" smooth="yes"/>
      <point x="207" y="48"/>
      <point x="185" y="97"/>
      <point x="185" y="200" type="curve" smooth="yes"/>
      <point x="185" y="414"/>
      <point x="264" y="626"/>
      <point x="345" y="626" type="curve" smooth="yes"/>
      <point x="391" y="626"/>
      <point x="412" y="577"/>
      <point x="412" y="473" type="curve" smooth="yes"/>
      <point x="412" y="258"/>
      <point x="334" y="48"/>
    </contour>
    <contour>
      <point x="244" y="-7" type="curve" smooth="yes"/>
      <point x="434" y="-7"/>
      <point x="551" y="157"/>
      <point x="551" y="422" type="curve" smooth="yes"/>
      <point x="551" y="577"/>
      <point x="473" y="677"/>
      <point x="353" y="677" type="curve" smooth="yes"/>
      <point x="163" y="677"/>
      <point x="46" y="514"/>
      <point x="46" y="250" type="curve" smooth="yes"/>
      <point x="46" y="94"/>
      <point x="123" y="-7"/>
    </contour>
  </outline>
</glyph>
<glyph name="one" format="1">
  <advance width="573"/>
  <unicode hex="0031"/>
  <outline>
    <contour>
      <point x="53" y="0" type="line"/>
      <point x="461" y="0" type="line"/>
      <point x="472" y="48" type="line"/>
      <point x="449" y="50"/>
      <point x="378" y="62"/>
      <point x="351" y="78" type="curve"/>
      <point x="443" y="656" type="line"/>
      <point x="412" y="671" type="line"/>
      <point x="338" y="640"/>
      <point x="235" y="621"/>
      <point x="154" y="615" type="curve"/>
      <point x="145" y="557" type="line"/>
      <point x="279" y="557" type="line"/>
      <point x="203" y="78" type="line"/>
      <point x="169" y="64"/>
      <point x="120" y="54"/>
      <point x="63" y="48" type="curve"/>
    </contour>
  </outline>
</glyph>
<glyph name="two" format="1">
  <advance width="573"/>
  <unicode hex="0032"/>
  <outline>
    <contour>
      <point x="213" y="98" type="line"/>
      <point x="451" y="287"/>
      <point x="539" y="399"/>
      <point x="539" y="525" type="curve" smooth="yes"/>
      <point x="539" y="629"/>
      <point x="441" y="679"/>
      <point x="342" y="679" type="curve" smooth="yes"/>
      <point x="225" y="679"/>
      <point x="95" y="618"/>
      <point x="95" y="501" type="curve" smooth="yes"/>
      <point x="95" y="452"/>
      <point x="128" y="428"/>
      <point x="167" y="428" type="curve" smooth="yes"/>
      <point x="195" y="428"/>
      <point x="227" y="440"/>
      <point x="253" y="462" type="curve"/>
      <point x="246" y="479"/>
      <point x="243" y="497"/>
      <point x="243" y="514" type="curve" smooth="yes"/>
      <point x="243" y="570"/>
      <point x="276" y="621"/>
      <point x="329" y="621" type="curve" smooth="yes"/>
      <point x="369" y="621"/>
      <point x="392" y="592"/>
      <point x="392" y="534" type="curve" smooth="yes"/>
      <point x="392" y="429"/>
      <point x="314" y="303"/>
      <point x="22" y="58" type="curve"/>
      <point x="13" y="0" type="line"/>
      <point x="466" y="0" type="line"/>
      <point x="482" y="98" type="line"/>
    </contour>
  </outline>
</glyph>
<glyph name="three" format="1">
  <advance width="573"/>
  <unicode hex="0033"/>
  <outline>
    <contour>
      <point x="200" y="319" type="line"/>
      <point x="302" y="319"/>
      <point x="342" y="263"/>
      <point x="342" y="189" type="curve" smooth="yes"/>
      <point x="342" y="126"/>
      <point x="301" y="63"/>
      <point x="232" y="63" type="curve" smooth="yes"/>
      <point x="186" y="63"/>
      <point x="165" y="93"/>
      <point x="165" y="127" type="curve" smooth="yes"/>
      <point x="165" y="145"/>
      <point x="171" y="164"/>
      <point x="182" y="181" type="curve"/>
      <point x="161" y="200"/>
      <point x="136" y="209"/>
      <point x="113" y="209" type="curve" smooth="yes"/>
      <point x="67" y="209"/>
      <point x="26" y="175"/>
      <point x="26" y="116" type="curve" smooth="yes"/>
      <point x="26" y="39"/>
      <point x="119" y="-8"/>
      <point x="225" y="-8" type="curve" smooth="yes"/>
      <point x="364" y="-8"/>
      <point x="505" y="77"/>
      <point x="505" y="214" type="curve" smooth="yes"/>
      <point x="505" y="283"/>
      <point x="472" y="330"/>
      <point x="381" y="351" type="curve"/>
      <point x="488" y="383"/>
      <point x="538" y="454"/>
      <point x="538" y="522" type="curve" smooth="yes"/>
      <point x="538" y="603"/>
      <point x="467" y="679"/>
      <point x="334" y="679" type="curve" smooth="yes"/>
      <point x="218" y="679"/>
      <point x="95" y="621"/>
      <point x="95" y="515" type="curve" smooth="yes"/>
      <point x="95" y="474"/>
      <point x="119" y="443"/>
      <point x="167" y="443" type="curve" smooth="yes"/>
      <point x="194" y="443"/>
      <point x="222" y="453"/>
      <point x="244" y="473" type="curve"/>
      <point x="240" y="485"/>
      <point x="238" y="498"/>
      <point x="238" y="512" type="curve" smooth="yes"/>
      <point x="238" y="565"/>
      <point x="269" y="621"/>
      <point x="327" y="621" type="curve" smooth="yes"/>
      <point x="358" y="621"/>
      <point x="385" y="598"/>
      <point x="385" y="541" type="curve" smooth="yes"/>
      <point x="385" y="437"/>
      <point x="319" y="390"/>
      <point x="209" y="381" type="curve"/>
    </contour>
  </outline>
</glyph>
<glyph name="four" format="1">
  <advance width="573"/>
  <unicode hex="0034"/>
  <outline>
    <contour>
      <point x="317" y="181" type="line"/>
      <point x="298" y="64" type="line"/>
      <point x="266" y="47"/>
      <point x="234" y="41"/>
      <point x="202" y="37" type="curve"/>
      <point x="190" y="0" type="line"/>
      <point x="500" y="0" type="line"/>
      <point x="511" y="37" type="line"/>
      <point x="482" y="41"/>
      <point x="452" y="47"/>
      <point x="428" y="64" type="curve"/>
      <point x="447" y="183" type="line"/>
      <point x="542" y="183" type="line"/>
      <point x="553" y="255" type="line"/>
      <point x="458" y="255" type="line"/>
      <point x="524" y="667" type="line"/>
      <point x="381" y="667" type="line"/>
      <point x="27" y="215" type="line"/>
      <point x="29" y="181" type="line"/>
    </contour>
    <contour>
      <point x="371" y="527" type="line"/>
      <point x="328" y="253" type="line"/>
      <point x="163" y="253" type="line"/>
    </contour>
  </outline>
</glyph>
<glyph name="five" format="1">
  <advance width="573"/>
  <unicode hex="0035"/>
  <outline>
    <contour>
      <point x="150" y="643" type="line"/>
      <point x="105" y="359" type="line"/>
      <point x="151" y="306" type="line"/>
      <point x="191" y="328"/>
      <point x="242" y="348"/>
      <point x="285" y="348" type="curve" smooth="yes"/>
      <point x="333" y="348"/>
      <point x="370" y="321"/>
      <point x="370" y="243" type="curve" smooth="yes"/>
      <point x="370" y="137"/>
      <point x="331" y="62"/>
      <point x="253" y="62" type="curve" smooth="yes"/>
      <point x="204" y="62"/>
      <point x="184" y="91"/>
      <point x="184" y="125" type="curve" smooth="yes"/>
      <point x="184" y="143"/>
      <point x="190" y="162"/>
      <point x="202" y="181" type="curve"/>
      <point x="184" y="198"/>
      <point x="160" y="208"/>
      <point x="136" y="208" type="curve" smooth="yes"/>
      <point x="91" y="208"/>
      <point x="46" y="176"/>
      <point x="46" y="113" type="curve" smooth="yes"/>
      <point x="46" y="42"/>
      <point x="126" y="-8"/>
      <point x="242" y="-8" type="curve" smooth="yes"/>
      <point x="411" y="-8"/>
      <point x="523" y="101"/>
      <point x="523" y="241" type="curve" smooth="yes"/>
      <point x="523" y="364"/>
      <point x="432" y="418"/>
      <point x="333" y="418" type="curve" smooth="yes"/>
      <point x="299" y="418"/>
      <point x="265" y="413"/>
      <point x="233" y="405" type="curve"/>
      <point x="260" y="572" type="line"/>
      <point x="536" y="572" type="line"/>
      <point x="557" y="648" type="line"/>
      <point x="531" y="669" type="line"/>
      <point x="456" y="668"/>
      <point x="382" y="667"/>
      <point x="349" y="667" type="curve" smooth="yes"/>
      <point x="308" y="667"/>
      <point x="276" y="668"/>
      <point x="187" y="670" type="curve"/>
    </contour>
  </outline>
</glyph>
<glyph name="six" format="1">
  <advance width="573"/>
  <unicode hex="0036"/>
  <outline>
    <contour>
      <point x="527" y="631" type="curve"/>
      <point x="511" y="681" type="line"/>
      <point x="244" y="615"/>
      <point x="56" y="427"/>
      <point x="56" y="195" type="curve" smooth="yes"/>
      <point x="56" y="63"/>
      <point x="129" y="-11"/>
      <point x="267" y="-11" type="curve" smooth="yes"/>
      <point x="421" y="-11"/>
      <point x="541" y="82"/>
      <point x="541" y="218" type="curve" smooth="yes"/>
      <point x="541" y="327"/>
      <point x="460" y="386"/>
      <point x="362" y="386" type="curve" smooth="yes"/>
      <point x="319" y="386"/>
      <point x="276" y="375"/>
      <point x="241" y="358" type="curve"/>
      <point x="297" y="510"/>
      <point x="377" y="570"/>
    </contour>
    <contour>
      <point x="396" y="216" type="curve" smooth="yes"/>
      <point x="396" y="122"/>
      <point x="354" y="58"/>
      <point x="284" y="58" type="curve" smooth="yes"/>
      <point x="233" y="58"/>
      <point x="208" y="94"/>
      <point x="208" y="172" type="curve" smooth="yes"/>
      <point x="208" y="199"/>
      <point x="211" y="231"/>
      <point x="217" y="269" type="curve" smooth="yes"/>
      <point x="219" y="282" type="line"/>
      <point x="251" y="300"/>
      <point x="286" y="317"/>
      <point x="318" y="317" type="curve" smooth="yes"/>
      <point x="374" y="317"/>
      <point x="396" y="263"/>
    </contour>
  </outline>
</glyph>
<glyph name="seven" format="1">
  <advance width="573"/>
  <unicode hex="0037"/>
  <outline>
    <contour>
      <point x="570" y="670" type="line"/>
      <point x="538" y="670"/>
      <point x="465" y="667"/>
      <point x="350" y="667" type="curve" smooth="yes"/>
      <point x="236" y="667"/>
      <point x="169" y="670"/>
      <point x="135" y="670" type="curve"/>
      <point x="117" y="653" type="line"/>
      <point x="117" y="481" type="line"/>
      <point x="130" y="479"/>
      <point x="143" y="478"/>
      <point x="156" y="478" type="curve" smooth="yes"/>
      <point x="169" y="478"/>
      <point x="181" y="479"/>
      <point x="193" y="481" type="curve"/>
      <point x="201" y="518"/>
      <point x="212" y="554"/>
      <point x="227" y="587" type="curve"/>
      <point x="455" y="587" type="line"/>
      <point x="387" y="499" type="line" smooth="yes"/>
      <point x="336" y="433"/>
      <point x="265" y="353"/>
      <point x="211" y="276" type="curve" smooth="yes"/>
      <point x="174" y="222"/>
      <point x="125" y="139"/>
      <point x="125" y="74" type="curve" smooth="yes"/>
      <point x="125" y="28"/>
      <point x="149" y="-8"/>
      <point x="216" y="-8" type="curve" smooth="yes"/>
      <point x="253" y="-8"/>
      <point x="282" y="7"/>
      <point x="307" y="33" type="curve"/>
      <point x="290" y="47"/>
      <point x="283" y="70"/>
      <point x="283" y="93" type="curve" smooth="yes"/>
      <point x="283" y="225"/>
      <point x="569" y="605"/>
      <point x="584" y="625" type="curve"/>
    </contour>
  </outline>
</glyph>
<glyph name="eight" format="1">
  <advance width="573"/>
  <unicode hex="0038"/>
  <outline>
    <contour>
      <point x="564" y="534" type="curve" smooth="yes"/>
      <point x="564" y="623"/>
      <point x="487" y="679"/>
      <point x="360" y="679" type="curve" smooth="yes"/>
      <point x="207" y="679"/>
      <point x="102" y="600"/>
      <point x="102" y="482" type="curve" smooth="yes"/>
      <point x="102" y="422"/>
      <point x="133" y="384"/>
      <point x="176" y="358" type="curve"/>
      <point x="88" y="305"/>
      <point x="31" y="234"/>
      <point x="31" y="155" type="curve" smooth="yes"/>
      <point x="31" y="52"/>
      <point x="112" y="-7"/>
      <point x="260" y="-7" type="curve" smooth="yes"/>
      <point x="425" y="-7"/>
      <point x="538" y="83"/>
      <point x="538" y="215" type="curve" smooth="yes"/>
      <point x="538" y="291"/>
      <point x="488" y="334"/>
      <point x="430" y="364" type="curve"/>
      <point x="507" y="401"/>
      <point x="564" y="467"/>
    </contour>
    <contour>
      <point x="396" y="199" type="curve" smooth="yes"/>
      <point x="396" y="123"/>
      <point x="347" y="62"/>
      <point x="271" y="62" type="curve" smooth="yes"/>
      <point x="213" y="62"/>
      <point x="180" y="101"/>
      <point x="180" y="163" type="curve" smooth="yes"/>
      <point x="180" y="223"/>
      <point x="199" y="274"/>
      <point x="261" y="317" type="curve"/>
      <point x="330" y="287"/>
      <point x="396" y="260"/>
    </contour>
    <contour>
      <point x="246" y="504" type="curve" smooth="yes"/>
      <point x="246" y="563"/>
      <point x="287" y="608"/>
      <point x="348" y="608" type="curve" smooth="yes"/>
      <point x="393" y="608"/>
      <point x="420" y="578"/>
      <point x="420" y="531" type="curve" smooth="yes"/>
      <point x="420" y="479"/>
      <point x="388" y="429"/>
      <point x="346" y="403" type="curve"/>
      <point x="291" y="428"/>
      <point x="246" y="455"/>
    </contour>
  </outline>
</glyph>
<glyph name="nine" format="1">
  <advance width="573"/>
  <unicode hex="0039"/>
  <outline>
    <contour>
      <point x="91" y="34" type="curve"/>
      <point x="107" y="-16" type="line"/>
      <point x="374" y="50"/>
      <point x="562" y="238"/>
      <point x="562" y="470" type="curve" smooth="yes"/>
      <point x="562" y="602"/>
      <point x="489" y="676"/>
      <point x="351" y="676" type="curve" smooth="yes"/>
      <point x="197" y="676"/>
      <point x="77" y="583"/>
      <point x="77" y="447" type="curve" smooth="yes"/>
      <point x="77" y="338"/>
      <point x="158" y="279"/>
      <point x="256" y="279" type="curve" smooth="yes"/>
      <point x="299" y="279"/>
      <point x="342" y="290"/>
      <point x="377" y="307" type="curve"/>
      <point x="321" y="155"/>
      <point x="241" y="95"/>
    </contour>
    <contour>
      <point x="222" y="449" type="curve" smooth="yes"/>
      <point x="222" y="543"/>
      <point x="264" y="607"/>
      <point x="334" y="607" type="curve" smooth="yes"/>
      <point x="385" y="607"/>
      <point x="410" y="571"/>
      <point x="410" y="493" type="curve" smooth="yes"/>
      <point x="410" y="466"/>
      <point x="407" y="434"/>
      <point x="401" y="396" type="curve" smooth="yes"/>
      <point x="399" y="383" type="line"/>
      <point x="367" y="365"/>
      <point x="332" y="348"/>
      <point x="300" y="348" type="curve" smooth="yes"/>
      <point x="244" y="348"/>
      <point x="222" y="402"/>
    </contour>
  </outline>
</glyph>
<glyph name="colon" format="1">
  <advance width="271"/>
  <unicode hex="003A"/>
  <outline>
    <contour>
      <point x="129" y="149" type="curve" smooth="yes"/>
      <point x="76" y="149"/>
      <point x="43" y="111"/>
      <point x="43" y="58" type="curve" smooth="yes"/>
      <point x="43" y="23"/>
      <point x="65" y="-4"/>
      <point x="100" y="-4" type="curve" smooth="yes"/>
      <point x="153" y="-4"/>
      <point x="186" y="34"/>
      <point x="186" y="87" type="curve" smooth="yes"/>
      <point x="186" y="122"/>
      <point x="164" y="149"/>
    </contour>
    <contour>
      <point x="178" y="461" type="curve" smooth="yes"/>
      <point x="125" y="461"/>
      <point x="92" y="423"/>
      <point x="92" y="370" type="curve" smooth="yes"/>
      <point x="92" y="335"/>
      <point x="114" y="308"/>
      <point x="149" y="308" type="curve" smooth="yes"/>
      <point x="202" y="308"/>
      <point x="235" y="346"/>
      <point x="235" y="399" type="curve" smooth="yes"/>
      <point x="235" y="434"/>
      <point x="213" y="461"/>
    </contour>
  </outline>
</glyph>
<glyph name="semicolon" format="1">
  <advance width="271"/>
  <unicode hex="003B"/>
  <outline>
    <contour>
      <point x="49" y="23" type="curve"/>
      <point x="56" y="26"/>
      <point x="63" y="28"/>
      <point x="69" y="28" type="curve" smooth="yes"/>
      <point x="82" y="28"/>
      <point x="91" y="20"/>
      <point x="91" y="4" type="curve" smooth="yes"/>
      <point x="91" y="-28"/>
      <point x="56" y="-71"/>
      <point x="5" y="-105" type="curve"/>
      <point x="28" y="-140" type="line"/>
      <point x="131" y="-86"/>
      <point x="185" y="-12"/>
      <point x="185" y="70" type="curve" smooth="yes"/>
      <point x="185" y="112"/>
      <point x="163" y="140"/>
      <point x="114" y="140" type="curve" smooth="yes"/>
      <point x="69" y="140"/>
      <point x="34" y="103"/>
      <point x="34" y="65" type="curve" smooth="yes"/>
      <point x="34" y="49"/>
      <point x="39" y="34"/>
    </contour>
    <contour>
      <point x="182" y="461" type="curve" smooth="yes"/>
      <point x="129" y="461"/>
      <point x="96" y="423"/>
      <point x="96" y="370" type="curve" smooth="yes"/>
      <point x="96" y="335"/>
      <point x="118" y="308"/>
      <point x="153" y="308" type="curve" smooth="yes"/>
      <point x="206" y="308"/>
      <point x="239" y="346"/>
      <point x="239" y="399" type="curve" smooth="yes"/>
      <point x="239" y="434"/>
      <point x="217" y="461"/>
    </contour>
  </outline>
</glyph>
<glyph name="less" format="1">
  <advance width="573"/>
  <unicode hex="003C"/>
  <outline>
    <contour>
      <point x="53" y="222" type="line"/>
      <point x="467" y="47" type="line"/>
      <point x="516" y="140" type="line"/>
      <point x="158" y="285" type="line"/>
      <point x="562" y="431" type="line"/>
      <point x="543" y="524" type="line"/>
      <point x="73" y="349" type="line"/>
    </contour>
  </outline>
</glyph>
<glyph name="equal" format="1">
  <advance width="573"/>
  <unicode hex="003D"/>
  <outline>
    <contour>
      <point x="36" y="145" type="line"/>
      <point x="505" y="145" type="line"/>
      <point x="520" y="240" type="line"/>
      <point x="51" y="240" type="line"/>
    </contour>
    <contour>
      <point x="66" y="332" type="line"/>
      <point x="535" y="332" type="line"/>
      <point x="550" y="427" type="line"/>
      <point x="81" y="427" type="line"/>
    </contour>
  </outline>
</glyph>
<glyph name="greater" format="1">
  <advance width="573"/>
  <unicode hex="003E"/>
  <outline>
    <contour>
      <point x="540" y="349" type="line"/>
      <point x="126" y="524" type="line"/>
      <point x="77" y="431" type="line"/>
      <point x="435" y="285" type="line"/>
      <point x="31" y="140" type="line"/>
      <point x="50" y="47" type="line"/>
      <point x="520" y="222" type="line"/>
    </contour>
  </outline>
</glyph>
<glyph name="question" format="1">
  <advance width="438"/>
  <unicode hex="003F"/>
  <outline>
    <contour>
      <point x="126" y="260" type="curve" smooth="yes"/>
      <point x="126" y="213"/>
      <point x="156" y="191"/>
      <point x="192" y="191" type="curve" smooth="yes"/>
      <point x="214" y="191"/>
      <point x="238" y="200"/>
      <point x="261" y="216" type="curve"/>
      <point x="256" y="232"/>
      <point x="253" y="250"/>
      <point x="253" y="263" type="curve" smooth="yes"/>
      <point x="253" y="370"/>
      <point x="451" y="397"/>
      <point x="451" y="560" type="curve" smooth="yes"/>
      <point x="451" y="639"/>
      <point x="388" y="677"/>
      <point x="286" y="677" type="curve" smooth="yes"/>
      <point x="184" y="677"/>
      <point x="80" y="632"/>
      <point x="80" y="554" type="curve" smooth="yes"/>
      <point x="80" y="510"/>
      <point x="114" y="488"/>
      <point x="150" y="488" type="curve" smooth="yes"/>
      <point x="181" y="488"/>
      <point x="214" y="504"/>
      <point x="231" y="534" type="curve"/>
      <point x="214" y="549"/>
      <point x="209" y="564"/>
      <point x="209" y="579" type="curve" smooth="yes"/>
      <point x="209" y="613"/>
      <point x="239" y="631"/>
      <point x="268" y="631" type="curve" smooth="yes"/>
      <point x="294" y="631"/>
      <point x="320" y="613"/>
      <point x="320" y="573" type="curve" smooth="yes"/>
      <point x="320" y="410"/>
      <point x="126" y="400"/>
    </contour>
    <contour>
      <point x="187" y="132" type="curve" smooth="yes"/>
      <point x="140" y="132"/>
      <point x="111" y="99"/>
      <point x="111" y="52" type="curve" smooth="yes"/>
      <point x="111" y="20"/>
      <point x="131" y="-4"/>
      <point x="162" y="-4" type="curve" smooth="yes"/>
      <point x="209" y="-4"/>
      <point x="238" y="30"/>
      <point x="238" y="77" type="curve" smooth="yes"/>
      <point x="238" y="108"/>
      <point x="219" y="132"/>
    </contour>
  </outline>
</glyph>
<glyph name="at" format="1">
  <advance width="921"/>
  <unicode hex="0040"/>
  <outline>
    <contour>
      <point x="684" y="476" type="line"/>
      <point x="673" y="477"/>
      <point x="661" y="478"/>
      <point x="650" y="478" type="curve" smooth="yes"/>
      <point x="623" y="478"/>
      <point x="598" y="474"/>
      <point x="577" y="466" type="curve"/>
      <point x="546" y="474"/>
      <point x="514" y="479"/>
      <point x="485" y="479" type="curve" smooth="yes"/>
      <point x="349" y="479"/>
      <point x="239" y="391"/>
      <point x="239" y="197" type="curve" smooth="yes"/>
      <point x="239" y="78"/>
      <point x="308" y="23"/>
      <point x="383" y="23" type="curve" smooth="yes"/>
      <point x="436" y="23"/>
      <point x="485" y="48"/>
      <point x="509" y="106" type="curve"/>
      <point x="520" y="48"/>
      <point x="579" y="24"/>
      <point x="633" y="24" type="curve" smooth="yes"/>
      <point x="745" y="24"/>
      <point x="884" y="142"/>
      <point x="884" y="346" type="curve" smooth="yes"/>
      <point x="884" y="526"/>
      <point x="747" y="645"/>
      <point x="525" y="645" type="curve" smooth="yes"/>
      <point x="254" y="645"/>
      <point x="38" y="454"/>
      <point x="38" y="184" type="curve" smooth="yes"/>
      <point x="38" y="-36"/>
      <point x="207" y="-153"/>
      <point x="385" y="-153" type="curve" smooth="yes"/>
      <point x="454" y="-153"/>
      <point x="524" y="-135"/>
      <point x="586" y="-100" type="curve"/>
      <point x="562" y="-53" type="line"/>
      <point x="510" y="-80"/>
      <point x="458" y="-92"/>
      <point x="409" y="-92" type="curve" smooth="yes"/>
      <point x="271" y="-92"/>
      <point x="159" y="8"/>
      <point x="159" y="189" type="curve" smooth="yes"/>
      <point x="159" y="419"/>
      <point x="317" y="589"/>
      <point x="514" y="589" type="curve" smooth="yes"/>
      <point x="674" y="589"/>
      <point x="764" y="500"/>
      <point x="764" y="350" type="curve" smooth="yes"/>
      <point x="764" y="268"/>
      <point x="739" y="87"/>
      <point x="665" y="87" type="curve" smooth="yes"/>
      <point x="647" y="87"/>
      <point x="634" y="104"/>
      <point x="634" y="141" type="curve" smooth="yes"/>
      <point x="634" y="151"/>
      <point x="635" y="162"/>
      <point x="637" y="176" type="curve" smooth="yes"/>
    </contour>
    <contour>
      <point x="428" y="75" type="curve" smooth="yes"/>
      <point x="386" y="75"/>
      <point x="370" y="135"/>
      <point x="370" y="198" type="curve" smooth="yes"/>
      <point x="370" y="358"/>
      <point x="434" y="435"/>
      <point x="505" y="435" type="curve" smooth="yes"/>
      <point x="520" y="435"/>
      <point x="534" y="433"/>
      <point x="551" y="428" type="curve"/>
      <point x="516" y="229" type="line" smooth="yes"/>
      <point x="500" y="139"/>
      <point x="470" y="75"/>
    </contour>
  </outline>
</glyph>
<glyph name="A" format="1">
  <advance width="614"/>
  <unicode hex="0041"/>
  <outline>
    <contour>
      <point x="396" y="65" type="line"/>
      <point x="384" y="52"/>
      <point x="359" y="44"/>
      <point x="330" y="40" type="curve"/>
      <point x="324" y="0" type="line"/>
      <point x="600" y="0" type="line"/>
      <point x="604" y="40" type="line"/>
      <point x="581" y="44"/>
      <point x="559" y="53"/>
      <point x="550" y="74" type="curve"/>
      <point x="429" y="667" type="line"/>
      <point x="325" y="667" type="line"/>
      <point x="16" y="65" type="line"/>
      <point x="1" y="48"/>
      <point x="-24" y="42"/>
      <point x="-50" y="40" type="curve"/>
      <point x="-55" y="0" type="line"/>
      <point x="171" y="0" type="line"/>
      <point x="176" y="40" type="line"/>
      <point x="143" y="44"/>
      <point x="113" y="54"/>
      <point x="96" y="70" type="curve"/>
      <point x="166" y="208" type="line"/>
      <point x="372" y="208" type="line"/>
    </contour>
    <contour>
      <point x="321" y="511" type="line"/>
      <point x="361" y="271" type="line"/>
      <point x="198" y="271" type="line"/>
    </contour>
  </outline>
</glyph>
<glyph name="B" format="1">
  <advance width="625"/>
  <unicode hex="0042"/>
  <outline>
    <contour>
      <point x="94" y="626" type="line"/>
      <point x="122" y="622"/>
      <point x="149" y="610"/>
      <point x="160" y="596" type="curve"/>
      <point x="77" y="71" type="line"/>
      <point x="56" y="55"/>
      <point x="38" y="46"/>
      <point x="5" y="41" type="curve"/>
      <point x="0" y="0" type="line"/>
      <point x="283" y="0" type="line" smooth="yes"/>
      <point x="477" y="0"/>
      <point x="595" y="92"/>
      <point x="595" y="221" type="curve" smooth="yes"/>
      <point x="595" y="290"/>
      <point x="553" y="334"/>
      <point x="475" y="359" type="curve"/>
      <point x="571" y="383"/>
      <point x="615" y="442"/>
      <point x="615" y="526" type="curve" smooth="yes"/>
      <point x="615" y="619"/>
      <point x="540" y="667"/>
      <point x="380" y="667" type="curve" smooth="yes"/>
      <point x="100" y="667" type="line"/>
    </contour>
    <contour>
      <point x="263" y="320" type="line"/>
      <point x="296" y="320" type="line" smooth="yes"/>
      <point x="381" y="320"/>
      <point x="435" y="293"/>
      <point x="435" y="227" type="curve" smooth="yes"/>
      <point x="435" y="131"/>
      <point x="390" y="65"/>
      <point x="278" y="62" type="curve"/>
      <point x="240" y="64"/>
      <point x="228" y="73"/>
      <point x="228" y="96" type="curve" smooth="yes"/>
      <point x="228" y="102"/>
      <point x="229" y="108"/>
      <point x="230" y="116" type="curve" smooth="yes"/>
    </contour>
    <contour>
      <point x="466" y="521" type="curve" smooth="yes"/>
      <point x="466" y="426"/>
      <point x="404" y="383"/>
      <point x="299" y="383" type="curve" smooth="yes"/>
      <point x="273" y="383" type="line"/>
      <point x="304" y="577" type="line"/>
      <point x="311" y="600"/>
      <point x="322" y="605"/>
      <point x="355" y="606" type="curve"/>
      <point x="433" y="603"/>
      <point x="466" y="575"/>
    </contour>
  </outline>
</glyph>
<glyph name="C" format="1">
  <advance width="552"/>
  <unicode hex="0043"/>
  <outline>
    <contour>
      <point x="289" y="-10" type="curve" smooth="yes"/>
      <point x="364" y="-10"/>
      <point x="451" y="31"/>
      <point x="525" y="101" type="curve"/>
      <point x="497" y="133" type="line"/>
      <point x="443" y="84"/>
      <point x="386" y="58"/>
      <point x="333" y="58" type="curve" smooth="yes"/>
      <point x="248" y="58"/>
      <point x="212" y="127"/>
      <point x="212" y="246" type="curve" smooth="yes"/>
      <point x="212" y="407"/>
      <point x="255" y="621"/>
      <point x="384" y="621" type="curve" smooth="yes"/>
      <point x="421" y="621"/>
      <point x="443" y="599"/>
      <point x="443" y="565" type="curve" smooth="yes"/>
      <point x="443" y="544"/>
      <point x="433" y="522"/>
      <point x="418" y="502" type="curve"/>
      <point x="426" y="475"/>
      <point x="455" y="456"/>
      <point x="487" y="456" type="curve" smooth="yes"/>
      <point x="537" y="456"/>
      <point x="582" y="501"/>
      <point x="582" y="555" type="curve" smooth="yes"/>
      <point x="582" y="626"/>
      <point x="509" y="674"/>
      <point x="397" y="674" type="curve" smooth="yes"/>
      <point x="165" y="674"/>
      <point x="47" y="511"/>
      <point x="47" y="249" type="curve" smooth="yes"/>
      <point x="47" y="81"/>
      <point x="130" y="-10"/>
    </contour>
  </outline>
</glyph>
<glyph name="D" format="1">
  <advance width="679"/>
  <unicode hex="0044"/>
  <outline>
    <contour>
      <point x="87" y="626" type="line"/>
      <point x="115" y="622"/>
      <point x="142" y="610"/>
      <point x="153" y="596" type="curve"/>
      <point x="69" y="70" type="line"/>
      <point x="48" y="55"/>
      <point x="30" y="46"/>
      <point x="-2" y="41" type="curve"/>
      <point x="-7" y="0" type="line"/>
      <point x="218" y="0" type="line" smooth="yes"/>
      <point x="548" y="0"/>
      <point x="648" y="204"/>
      <point x="648" y="413" type="curve" smooth="yes"/>
      <point x="648" y="608"/>
      <point x="502" y="667"/>
      <point x="302" y="667" type="curve" smooth="yes"/>
      <point x="93" y="667" type="line"/>
    </contour>
    <contour>
      <point x="302" y="605" type="line"/>
      <point x="329" y="605" type="line" smooth="yes"/>
      <point x="434" y="605"/>
      <point x="492" y="549"/>
      <point x="492" y="429" type="curve" smooth="yes"/>
      <point x="492" y="297"/>
      <point x="457" y="63"/>
      <point x="258" y="63" type="curve" smooth="yes"/>
      <point x="233" y="63"/>
      <point x="222" y="75"/>
      <point x="222" y="99" type="curve" smooth="yes"/>
      <point x="222" y="104"/>
      <point x="223" y="110"/>
      <point x="224" y="117" type="curve" smooth="yes"/>
    </contour>
  </outline>
</glyph>
<glyph name="F" format="1">
  <advance width="536"/>
  <unicode hex="0046"/>
  <outline>
    <contour>
      <point x="79" y="626" type="line"/>
      <point x="107" y="622"/>
      <point x="134" y="610"/>
      <point x="145" y="596" type="curve"/>
      <point x="62" y="71" type="line"/>
      <point x="41" y="55"/>
      <point x="23" y="46"/>
      <point x="-10" y="41" type="curve"/>
      <point x="-15" y="0" type="line"/>
      <point x="291" y="0" type="line"/>
      <point x="296" y="41" type="line"/>
      <point x="264" y="48"/>
      <point x="222" y="57"/>
      <point x="209" y="71" type="curve"/>
      <point x="246" y="304" type="line"/>
      <point x="334" y="300" type="line" smooth="yes"/>
      <point x="357" y="299"/>
      <point x="369" y="280"/>
      <point x="379" y="226" type="curve"/>
      <point x="421" y="226" type="line"/>
      <point x="454" y="433" type="line"/>
      <point x="412" y="433" type="line"/>
      <point x="396" y="394"/>
      <point x="370" y="367"/>
      <point x="346" y="366" type="curve" smooth="yes"/>
      <point x="255" y="362" type="line"/>
      <point x="294" y="606" type="line"/>
      <point x="464" y="606" type="line"/>
      <point x="481" y="572"/>
      <point x="485" y="528"/>
      <point x="486" y="499" type="curve"/>
      <point x="493" y="497"/>
      <point x="501" y="496"/>
      <point x="508" y="496" type="curve" smooth="yes"/>
      <point x="527" y="496"/>
      <point x="540" y="499"/>
      <point x="554" y="503" type="curve"/>
      <point x="576" y="667" type="line"/>
      <point x="85" y="667" type="line"/>
    </contour>
  </outline>
</glyph>
<glyph name="J" format="1">
  <advance width="333"/>
  <unicode hex="004A"/>
  <outline>
    <contour>
      <point x="87" y="626" type="line"/>
      <point x="115" y="622"/>
      <point x="142" y="610"/>
      <point x="153" y="596" type="curve"/>
      <point x="59" y="1" type="line" smooth="yes"/>
      <point x="44" y="-95"/>
      <point x="-15" y="-137"/>
      <point x="-69" y="-163" type="curve"/>
      <point x="-57" y="-218" type="line"/>
      <point x="87" y="-183"/>
      <point x="188" y="-119"/>
      <point x="209" y="16" type="curve" smooth="yes"/>
      <point x="300" y="596" type="line"/>
      <point x="323" y="613"/>
      <point x="340" y="620"/>
      <point x="373" y="626" type="curve"/>
      <point x="379" y="667" type="line"/>
      <point x="93" y="667" type="line"/>
    </contour>
  </outline>
</glyph>
<glyph name="K" format="1">
  <advance width="655"/>
  <unicode hex="004B"/>
  <outline>
    <contour>
      <point x="272" y="341" type="line"/>
      <point x="382" y="58" type="line"/>
      <point x="392" y="38"/>
      <point x="411" y="0"/>
      <point x="462" y="0" type="curve" smooth="yes"/>
      <point x="619" y="0" type="line"/>
      <point x="624" y="41" type="line"/>
      <point x="589" y="48"/>
      <point x="570" y="59"/>
      <point x="552" y="76" type="curve"/>
      <point x="425" y="391" type="line"/>
      <point x="613" y="589" type="line" smooth="yes"/>
      <point x="645" y="622"/>
      <point x="686" y="625"/>
      <point x="706" y="626" type="curve"/>
      <point x="712" y="667" type="line"/>
      <point x="474" y="667" type="line"/>
      <point x="469" y="626" type="line"/>
      <point x="495" y="626"/>
      <point x="517" y="620"/>
      <point x="517" y="603" type="curve" smooth="yes"/>
      <point x="517" y="597"/>
      <point x="513" y="589"/>
      <point x="505" y="581" type="curve" smooth="yes"/>
    </contour>
    <contour>
      <point x="85" y="626" type="line"/>
      <point x="113" y="622"/>
      <point x="140" y="610"/>
      <point x="151" y="596" type="curve"/>
      <point x="68" y="71" type="line"/>
      <point x="47" y="55"/>
      <point x="29" y="46"/>
      <point x="-4" y="41" type="curve"/>
      <point x="-9" y="0" type="line"/>
      <point x="277" y="0" type="line"/>
      <point x="282" y="41" type="line"/>
      <point x="250" y="48"/>
      <point x="228" y="57"/>
      <point x="215" y="71" type="curve"/>
      <point x="298" y="596" type="line"/>
      <point x="321" y="613"/>
      <point x="338" y="620"/>
      <point x="371" y="626" type="curve"/>
      <point x="377" y="667" type="line"/>
      <point x="91" y="667" type="line"/>
    </contour>
  </outline>
</glyph>
<glyph name="L" format="1">
  <advance width="531"/>
  <unicode hex="004C"/>
  <outline>
    <contour>
      <point x="99" y="626" type="line"/>
      <point x="127" y="622"/>
      <point x="154" y="610"/>
      <point x="165" y="596" type="curve"/>
      <point x="82" y="71" type="line"/>
      <point x="61" y="55"/>
      <point x="43" y="46"/>
      <point x="10" y="41" type="curve"/>
      <point x="5" y="0" type="line"/>
      <point x="465" y="0" type="line"/>
      <point x="505" y="188" type="line"/>
      <point x="498" y="190"/>
      <point x="490" y="191"/>
      <point x="483" y="191" type="curve" smooth="yes"/>
      <point x="464" y="191"/>
      <point x="451" y="188"/>
      <point x="437" y="184" type="curve"/>
      <point x="426" y="153"/>
      <point x="405" y="101"/>
      <point x="374" y="62" type="curve"/>
      <point x="227" y="62" type="line"/>
      <point x="312" y="596" type="line"/>
      <point x="335" y="613"/>
      <point x="362" y="620"/>
      <point x="395" y="626" type="curve"/>
      <point x="401" y="667" type="line"/>
      <point x="105" y="667" type="line"/>
    </contour>
  </outline>
</glyph>
<glyph name="M" format="1">
  <advance width="818"/>
  <unicode hex="004D"/>
  <outline>
    <contour>
      <point x="94" y="626" type="line"/>
      <point x="122" y="622"/>
      <point x="149" y="610"/>
      <point x="160" y="596" type="curve"/>
      <point x="77" y="71" type="line"/>
      <point x="56" y="55"/>
      <point x="38" y="46"/>
      <point x="5" y="41" type="curve"/>
      <point x="0" y="0" type="line"/>
      <point x="226" y="0" type="line"/>
      <point x="231" y="41" type="line"/>
      <point x="199" y="48"/>
      <point x="177" y="57"/>
      <point x="164" y="71" type="curve"/>
      <point x="229" y="484" type="line"/>
      <point x="322" y="0" type="line"/>
      <point x="399" y="0" type="line"/>
      <point x="628" y="484" type="line"/>
      <point x="563" y="71" type="line"/>
      <point x="542" y="55"/>
      <point x="524" y="46"/>
      <point x="491" y="41" type="curve"/>
      <point x="486" y="0" type="line"/>
      <point x="768" y="0" type="line"/>
      <point x="773" y="41" type="line"/>
      <point x="741" y="48"/>
      <point x="719" y="57"/>
      <point x="706" y="71" type="curve"/>
      <point x="789" y="596" type="line"/>
      <point x="812" y="613"/>
      <point x="829" y="620"/>
      <point x="862" y="626" type="curve"/>
      <point x="868" y="667" type="line"/>
      <point x="632" y="667" type="line"/>
      <point x="422" y="217" type="line"/>
      <point x="341" y="667" type="line"/>
      <point x="100" y="667" type="line"/>
    </contour>
  </outline>
</glyph>
<glyph name="N" format="1">
  <advance width="662"/>
  <unicode hex="004E"/>
  <outline>
    <contour>
      <point x="85" y="626" type="line"/>
      <point x="113" y="622"/>
      <point x="140" y="610"/>
      <point x="151" y="596" type="curve"/>
      <point x="68" y="71" type="line"/>
      <point x="47" y="55"/>
      <point x="29" y="46"/>
      <point x="-4" y="41" type="curve"/>
      <point x="-9" y="0" type="line"/>
      <point x="217" y="0" type="line"/>
      <point x="222" y="41" type="line"/>
      <point x="190" y="48"/>
      <point x="168" y="57"/>
      <point x="155" y="71" type="curve"/>
      <point x="217" y="460" type="line"/>
      <point x="388" y="0" type="line"/>
      <point x="540" y="0" type="line"/>
      <point x="634" y="596" type="line"/>
      <point x="657" y="613"/>
      <point x="674" y="620"/>
      <point x="707" y="626" type="curve"/>
      <point x="713" y="667" type="line"/>
      <point x="487" y="667" type="line"/>
      <point x="481" y="626" type="line"/>
      <point x="509" y="622"/>
      <point x="536" y="610"/>
      <point x="547" y="596" type="curve"/>
      <point x="482" y="183" type="line"/>
      <point x="303" y="667" type="line"/>
      <point x="91" y="667" type="line"/>
    </contour>
  </outline>
</glyph>
<glyph name="O" format="1">
  <advance width="675"/>
  <unicode hex="004F"/>
  <outline>
    <contour>
      <point x="208" y="220" type="curve" smooth="yes"/>
      <point x="208" y="353"/>
      <point x="266" y="620"/>
      <point x="399" y="620" type="curve" smooth="yes"/>
      <point x="489" y="620"/>
      <point x="500" y="540"/>
      <point x="500" y="450" type="curve" smooth="yes"/>
      <point x="500" y="317"/>
      <point x="442" y="50"/>
      <point x="309" y="50" type="curve" smooth="yes"/>
      <point x="219" y="50"/>
      <point x="208" y="130"/>
    </contour>
    <contour>
      <point x="48" y="257" type="curve" smooth="yes"/>
      <point x="48" y="85"/>
      <point x="132" y="-10"/>
      <point x="300" y="-10" type="curve" smooth="yes"/>
      <point x="542" y="-10"/>
      <point x="661" y="155"/>
      <point x="661" y="413" type="curve" smooth="yes"/>
      <point x="661" y="584"/>
      <point x="578" y="678"/>
      <point x="409" y="678" type="curve" smooth="yes"/>
      <point x="170" y="678"/>
      <point x="48" y="516"/>
    </contour>
  </outline>
</glyph>
<glyph name="P" format="1">
  <advance width="596"/>
  <unicode hex="0050"/>
  <outline>
    <contour>
      <point x="90" y="626" type="line"/>
      <point x="118" y="622"/>
      <point x="145" y="610"/>
      <point x="156" y="596" type="curve"/>
      <point x="73" y="71" type="line"/>
      <point x="52" y="55"/>
      <point x="34" y="46"/>
      <point x="1" y="41" type="curve"/>
      <point x="-4" y="0" type="line"/>
      <point x="302" y="0" type="line"/>
      <point x="307" y="41" type="line"/>
      <point x="275" y="48"/>
      <point x="233" y="57"/>
      <point x="220" y="71" type="curve"/>
      <point x="252" y="277" type="line"/>
      <point x="267" y="277" type="line" smooth="yes"/>
      <point x="437" y="277"/>
      <point x="617" y="340"/>
      <point x="617" y="510" type="curve" smooth="yes"/>
      <point x="617" y="614"/>
      <point x="539" y="667"/>
      <point x="383" y="667" type="curve" smooth="yes"/>
      <point x="96" y="667" type="line"/>
    </contour>
    <contour>
      <point x="360" y="606" type="curve" smooth="yes"/>
      <point x="442" y="606"/>
      <point x="469" y="564"/>
      <point x="469" y="507" type="curve" smooth="yes"/>
      <point x="469" y="436"/>
      <point x="421" y="343"/>
      <point x="282" y="343" type="curve" smooth="yes"/>
      <point x="263" y="343" type="line"/>
      <point x="298" y="565" type="line" smooth="yes"/>
      <point x="303" y="597"/>
      <point x="311" y="606"/>
    </contour>
  </outline>
</glyph>
<glyph name="Q" format="1">
  <advance width="675"/>
  <unicode hex="0051"/>
  <outline>
    <contour>
      <point x="48" y="257" type="curve" smooth="yes"/>
      <point x="48" y="105"/>
      <point x="113" y="13"/>
      <point x="244" y="-6" type="curve"/>
      <point x="271" y="-84"/>
      <point x="333" y="-153"/>
      <point x="467" y="-174" type="curve"/>
      <point x="476" y="-169"/>
      <point x="485" y="-154"/>
      <point x="485" y="-142" type="curve" smooth="yes"/>
      <point x="485" y="-138" type="line"/>
      <point x="426" y="-114"/>
      <point x="379" y="-66"/>
      <point x="370" y="-5" type="curve"/>
      <point x="565" y="24"/>
      <point x="661" y="181"/>
      <point x="661" y="413" type="curve" smooth="yes"/>
      <point x="661" y="584"/>
      <point x="578" y="678"/>
      <point x="409" y="678" type="curve" smooth="yes"/>
      <point x="170" y="678"/>
      <point x="48" y="516"/>
    </contour>
    <contour>
      <point x="208" y="220" type="curve" smooth="yes"/>
      <point x="208" y="353"/>
      <point x="266" y="620"/>
      <point x="399" y="620" type="curve" smooth="yes"/>
      <point x="489" y="620"/>
      <point x="500" y="540"/>
      <point x="500" y="450" type="curve" smooth="yes"/>
      <point x="500" y="317"/>
      <point x="442" y="50"/>
      <point x="309" y="50" type="curve" smooth="yes"/>
      <point x="219" y="50"/>
      <point x="208" y="130"/>
    </contour>
  </outline>
</glyph>
<glyph name="T" format="1">
  <advance width="603"/>
  <unicode hex="0054"/>
  <outline>
    <contour>
      <point x="434" y="606" type="line"/>
      <point x="473" y="605"/>
      <point x="496" y="602"/>
      <point x="526" y="598" type="curve"/>
      <point x="538" y="571"/>
      <point x="543" y="528"/>
      <point x="543" y="483" type="curve"/>
      <point x="555" y="481"/>
      <point x="567" y="480"/>
      <point x="579" y="480" type="curve" smooth="yes"/>
      <point x="590" y="480"/>
      <point x="601" y="481"/>
      <point x="612" y="483" type="curve"/>
      <point x="642" y="671" type="line"/>
      <point x="628" y="670"/>
      <point x="451" y="667"/>
      <point x="370" y="667" type="curve" smooth="yes"/>
      <point x="236" y="667"/>
      <point x="99" y="671"/>
      <point x="99" y="671" type="curve"/>
      <point x="69" y="483" type="line"/>
      <point x="80" y="481"/>
      <point x="91" y="480"/>
      <point x="102" y="480" type="curve" smooth="yes"/>
      <point x="114" y="480"/>
      <point x="126" y="481"/>
      <point x="138" y="483" type="curve"/>
      <point x="146" y="522"/>
      <point x="169" y="570"/>
      <point x="195" y="599" type="curve"/>
      <point x="224" y="601"/>
      <point x="248" y="604"/>
      <point x="287" y="605" type="curve"/>
      <point x="202" y="71" type="line"/>
      <point x="181" y="55"/>
      <point x="143" y="46"/>
      <point x="110" y="41" type="curve"/>
      <point x="105" y="0" type="line"/>
      <point x="431" y="0" type="line"/>
      <point x="436" y="41" type="line"/>
      <point x="404" y="48"/>
      <point x="362" y="57"/>
      <point x="349" y="71" type="curve"/>
    </contour>
  </outline>
</glyph>
<glyph name="U" format="1">
  <advance width="654"/>
  <unicode hex="0055"/>
  <outline>
    <contour>
      <point x="637" y="596" type="line"/>
      <point x="660" y="613"/>
      <point x="677" y="620"/>
      <point x="710" y="626" type="curve"/>
      <point x="716" y="667" type="line"/>
      <point x="487" y="667" type="line"/>
      <point x="481" y="626" type="line"/>
      <point x="509" y="622"/>
      <point x="536" y="610"/>
      <point x="547" y="596" type="curve"/>
      <point x="490" y="223" type="line" smooth="yes"/>
      <point x="475" y="132"/>
      <point x="437" y="60"/>
      <point x="340" y="60" type="curve" smooth="yes"/>
      <point x="257" y="60"/>
      <point x="220" y="97"/>
      <point x="220" y="168" type="curve" smooth="yes"/>
      <point x="220" y="193"/>
      <point x="234" y="285"/>
      <point x="236" y="299" type="curve" smooth="yes"/>
      <point x="283" y="596" type="line"/>
      <point x="306" y="613"/>
      <point x="323" y="620"/>
      <point x="356" y="626" type="curve"/>
      <point x="362" y="667" type="line"/>
      <point x="76" y="667" type="line"/>
      <point x="70" y="626" type="line"/>
      <point x="98" y="622"/>
      <point x="125" y="610"/>
      <point x="136" y="596" type="curve"/>
      <point x="99" y="353" type="line" smooth="yes"/>
      <point x="96" y="336"/>
      <point x="72" y="198"/>
      <point x="72" y="161" type="curve" smooth="yes"/>
      <point x="72" y="49"/>
      <point x="150" y="-7"/>
      <point x="308" y="-7" type="curve" smooth="yes"/>
      <point x="489" y="-7"/>
      <point x="558" y="83"/>
      <point x="583" y="245" type="curve" smooth="yes"/>
    </contour>
  </outline>
</glyph>
<glyph name="V" format="1">
  <advance width="596"/>
  <unicode hex="0056"/>
  <outline>
    <contour>
      <point x="309" y="185" type="line"/>
      <point x="260" y="605" type="line"/>
      <point x="275" y="618"/>
      <point x="298" y="623"/>
      <point x="327" y="627" type="curve"/>
      <point x="333" y="667" type="line"/>
      <point x="57" y="667" type="line"/>
      <point x="52" y="626" type="line"/>
      <point x="79" y="620"/>
      <point x="107" y="608"/>
      <point x="110" y="585" type="curve" smooth="yes"/>
      <point x="184" y="0" type="line"/>
      <point x="285" y="0" type="line"/>
      <point x="590" y="602" type="line"/>
      <point x="605" y="619"/>
      <point x="629" y="624"/>
      <point x="655" y="626" type="curve"/>
      <point x="661" y="667" type="line"/>
      <point x="435" y="667" type="line"/>
      <point x="430" y="627" type="line"/>
      <point x="463" y="623"/>
      <point x="493" y="613"/>
      <point x="510" y="597" type="curve"/>
    </contour>
  </outline>
</glyph>
<glyph name="W" format="1">
  <advance width="930"/>
  <unicode hex="0057"/>
  <outline>
    <contour>
      <point x="852" y="596" type="curve"/>
      <point x="664" y="185" type="line"/>
      <point x="604" y="667" type="line"/>
      <point x="518" y="667" type="line"/>
      <point x="302" y="185" type="line"/>
      <point x="253" y="605" type="line"/>
      <point x="267" y="618"/>
      <point x="290" y="623"/>
      <point x="319" y="627" type="curve"/>
      <point x="325" y="667" type="line"/>
      <point x="52" y="667" type="line"/>
      <point x="46" y="626" type="line"/>
      <point x="70" y="621"/>
      <point x="89" y="611"/>
      <point x="101" y="596" type="curve"/>
      <point x="177" y="0" type="line"/>
      <point x="277" y="0" type="line"/>
      <point x="481" y="430" type="line"/>
      <point x="541" y="0" type="line"/>
      <point x="641" y="0" type="line"/>
      <point x="932" y="602" type="line"/>
      <point x="947" y="619"/>
      <point x="962" y="624"/>
      <point x="988" y="626" type="curve"/>
      <point x="993" y="667" type="line"/>
      <point x="777" y="667" type="line"/>
      <point x="772" y="627" type="line"/>
      <point x="805" y="623"/>
      <point x="835" y="613"/>
    </contour>
  </outline>
</glyph>
<glyph name="X" format="1">
  <advance width="586"/>
  <unicode hex="0058"/>
  <outline>
    <contour>
      <point x="360" y="58" type="line" smooth="yes"/>
      <point x="370" y="38"/>
      <point x="389" y="0"/>
      <point x="440" y="0" type="curve" smooth="yes"/>
      <point x="572" y="0" type="line"/>
      <point x="577" y="41" type="line"/>
      <point x="542" y="48"/>
      <point x="529" y="54"/>
      <point x="519" y="76" type="curve" smooth="yes"/>
      <point x="384" y="365" type="line"/>
      <point x="578" y="599" type="line" smooth="yes"/>
      <point x="593" y="616"/>
      <point x="619" y="625"/>
      <point x="645" y="627" type="curve"/>
      <point x="650" y="667" type="line"/>
      <point x="424" y="667" type="line"/>
      <point x="419" y="627" type="line"/>
      <point x="452" y="623"/>
      <point x="473" y="613"/>
      <point x="490" y="597" type="curve"/>
      <point x="353" y="432" type="line"/>
      <point x="271" y="609" type="line" smooth="yes"/>
      <point x="261" y="629"/>
      <point x="242" y="667"/>
      <point x="191" y="667" type="curve" smooth="yes"/>
      <point x="59" y="667" type="line"/>
      <point x="54" y="626" type="line"/>
      <point x="89" y="619"/>
      <point x="102" y="613"/>
      <point x="112" y="591" type="curve" smooth="yes"/>
      <point x="240" y="314" type="line"/>
      <point x="32" y="65" type="line" smooth="yes"/>
      <point x="20" y="51"/>
      <point x="-11" y="42"/>
      <point x="-34" y="40" type="curve"/>
      <point x="-39" y="0" type="line"/>
      <point x="187" y="0" type="line"/>
      <point x="192" y="40" type="line"/>
      <point x="159" y="44"/>
      <point x="139" y="52"/>
      <point x="122" y="68" type="curve"/>
      <point x="271" y="247" type="line"/>
    </contour>
  </outline>
</glyph>
<glyph name="Y" format="1">
  <advance width="577"/>
  <unicode hex="0059"/>
  <outline>
    <contour>
      <point x="185" y="71" type="line"/>
      <point x="164" y="55"/>
      <point x="136" y="46"/>
      <point x="103" y="41" type="curve"/>
      <point x="98" y="0" type="line"/>
      <point x="404" y="0" type="line"/>
      <point x="409" y="41" type="line"/>
      <point x="377" y="48"/>
      <point x="345" y="57"/>
      <point x="332" y="71" type="curve"/>
      <point x="363" y="268" type="line"/>
      <point x="585" y="601" type="line"/>
      <point x="603" y="617"/>
      <point x="623" y="625"/>
      <point x="649" y="627" type="curve"/>
      <point x="654" y="667" type="line"/>
      <point x="428" y="667" type="line"/>
      <point x="423" y="627" type="line"/>
      <point x="456" y="623"/>
      <point x="486" y="613"/>
      <point x="503" y="597" type="curve"/>
      <point x="343" y="357" type="line"/>
      <point x="273" y="605" type="line"/>
      <point x="288" y="618"/>
      <point x="314" y="623"/>
      <point x="343" y="627" type="curve"/>
      <point x="349" y="667" type="line"/>
      <point x="73" y="667" type="line"/>
      <point x="69" y="627" type="line"/>
      <point x="96" y="621"/>
      <point x="119" y="607"/>
      <point x="126" y="585" type="curve" smooth="yes"/>
      <point x="217" y="269" type="line"/>
    </contour>
  </outline>
</glyph>
<glyph name="bracketleft" format="1">
  <advance width="355"/>
  <unicode hex="005B"/>
  <outline>
    <contour>
      <point x="180" y="738" type="line"/>
      <point x="36" y="-172" type="line"/>
      <point x="249" y="-172" type="line"/>
      <point x="257" y="-118" type="line"/>
      <point x="146" y="-106" type="line"/>
      <point x="269" y="672" type="line"/>
      <point x="384" y="684" type="line"/>
      <point x="393" y="738" type="line"/>
    </contour>
  </outline>
</glyph>
<glyph name="backslash" format="1">
  <advance width="480"/>
  <unicode hex="005C"/>
  <outline>
    <contour>
      <point x="392" y="-112" type="line"/>
      <point x="211" y="700" type="line"/>
      <point x="132" y="672" type="line"/>
      <point x="314" y="-140" type="line"/>
    </contour>
  </outline>
</glyph>
<glyph name="bracketright" format="1">
  <advance width="355"/>
  <unicode hex="005D"/>
  <outline>
    <contour>
      <point x="114" y="738" type="line"/>
      <point x="105" y="684" type="line"/>
      <point x="216" y="672" type="line"/>
      <point x="93" y="-106" type="line"/>
      <point x="-22" y="-118" type="line"/>
      <point x="-30" y="-172" type="line"/>
      <point x="183" y="-172" type="line"/>
      <point x="327" y="738" type="line"/>
    </contour>
  </outline>
</glyph>
<glyph name="asciicircum" format="1">
  <advance width="573"/>
  <unicode hex="005E"/>
  <outline>
    <contour>
      <point x="337" y="667" type="line"/>
      <point x="100" y="351" type="line"/>
      <point x="178" y="301" type="line"/>
      <point x="373" y="570" type="line"/>
      <point x="485" y="301" type="line"/>
      <point x="579" y="351" type="line"/>
      <point x="442" y="667" type="line"/>
    </contour>
  </outline>
</glyph>
<glyph name="underscore" format="1">
  <advance width="352"/>
  <unicode hex="005F"/>
  <outline>
    <contour>
      <point x="346" y="-122" type="line"/>
      <point x="357" y="-48" type="line"/>
      <point x="5" y="-48" type="line"/>
      <point x="-5" y="-122" type="line"/>
    </contour>
  </outline>
</glyph>
<glyph name="grave" format="1">
  <advance width="208"/>
  <unicode hex="0060"/>
  <outline>
    <contour>
      <point x="210" y="524" type="line"/>
      <point x="249" y="557" type="line"/>
      <point x="188" y="676" type="line" smooth="yes"/>
      <point x="175" y="701"/>
      <point x="154" y="710"/>
      <point x="136" y="710" type="curve" smooth="yes"/>
      <point x="106" y="710"/>
      <point x="82" y="688"/>
      <point x="82" y="656" type="curve" smooth="yes"/>
      <point x="82" y="640"/>
      <point x="88" y="621"/>
      <point x="106" y="607" type="curve" smooth="yes"/>
    </contour>
  </outline>
</glyph>
<glyph name="b" format="1">
  <advance width="567"/>
  <unicode hex="0062"/>
  <outline>
    <contour>
      <point x="252" y="555" type="line"/>
      <point x="270" y="672" type="line"/>
      <point x="245" y="696" type="line"/>
      <point x="56" y="678" type="line"/>
      <point x="50" y="638" type="line"/>
      <point x="84" y="638"/>
      <point x="116" y="628"/>
      <point x="116" y="590" type="curve" smooth="yes"/>
      <point x="116" y="577"/>
      <point x="103" y="502"/>
      <point x="102" y="494" type="curve" smooth="yes"/>
      <point x="40" y="98" type="line"/>
      <point x="41" y="80"/>
      <point x="52" y="65"/>
      <point x="68" y="52" type="curve" smooth="yes"/>
      <point x="117" y="13"/>
      <point x="216" y="-7"/>
      <point x="258" y="-7" type="curve" smooth="yes"/>
      <point x="424" y="-7"/>
      <point x="532" y="110"/>
      <point x="532" y="313" type="curve" smooth="yes"/>
      <point x="532" y="429"/>
      <point x="478" y="492"/>
      <point x="379" y="492" type="curve" smooth="yes"/>
      <point x="317" y="492"/>
      <point x="267" y="469"/>
      <point x="231" y="425" type="curve"/>
    </contour>
    <contour>
      <point x="324" y="432" type="curve" smooth="yes"/>
      <point x="367" y="432"/>
      <point x="387" y="395"/>
      <point x="387" y="322" type="curve" smooth="yes"/>
      <point x="387" y="190"/>
      <point x="350" y="46"/>
      <point x="238" y="46" type="curve" smooth="yes"/>
      <point x="211" y="46"/>
      <point x="188" y="55"/>
      <point x="175" y="65" type="curve"/>
      <point x="207" y="268" type="line" smooth="yes"/>
      <point x="224" y="377"/>
      <point x="269" y="432"/>
    </contour>
  </outline>
</glyph>
<glyph name="c" format="1">
  <advance width="452"/>
  <unicode hex="0063"/>
  <outline>
    <contour>
      <point x="226" y="-7" type="curve" smooth="yes"/>
      <point x="295" y="-7"/>
      <point x="368" y="21"/>
      <point x="421" y="68" type="curve"/>
      <point x="390" y="104" type="line"/>
      <point x="347" y="69"/>
      <point x="302" y="51"/>
      <point x="260" y="51" type="curve" smooth="yes"/>
      <point x="197" y="51"/>
      <point x="168" y="89"/>
      <point x="168" y="177" type="curve" smooth="yes"/>
      <point x="168" y="301"/>
      <point x="203" y="443"/>
      <point x="287" y="443" type="curve" smooth="yes"/>
      <point x="313" y="443"/>
      <point x="330" y="427"/>
      <point x="330" y="405" type="curve" smooth="yes"/>
      <point x="330" y="392"/>
      <point x="324" y="375"/>
      <point x="311" y="360" type="curve"/>
      <point x="315" y="336"/>
      <point x="341" y="318"/>
      <point x="372" y="318" type="curve" smooth="yes"/>
      <point x="420" y="318"/>
      <point x="462" y="352"/>
      <point x="462" y="396" type="curve" smooth="yes"/>
      <point x="462" y="451"/>
      <point x="400" y="489"/>
      <point x="303" y="489" type="curve" smooth="yes"/>
      <point x="121" y="489"/>
      <point x="22" y="374"/>
      <point x="22" y="186" type="curve" smooth="yes"/>
      <point x="22" y="61"/>
      <point x="91" y="-7"/>
    </contour>
  </outline>
</glyph>
<glyph name="h" format="1">
  <advance width="580"/>
  <unicode hex="0068"/>
  <outline>
    <contour>
      <point x="36" y="0" type="line"/>
      <point x="177" y="0" type="line"/>
      <point x="208" y="196" type="line" smooth="yes"/>
      <point x="226" y="310"/>
      <point x="294" y="425"/>
      <point x="342" y="425" type="curve" smooth="yes"/>
      <point x="369" y="425"/>
      <point x="384" y="404"/>
      <point x="384" y="365" type="curve" smooth="yes"/>
      <point x="384" y="354"/>
      <point x="384" y="342"/>
      <point x="380" y="320" type="curve" smooth="yes"/>
      <point x="350" y="136" type="line" smooth="yes"/>
      <point x="347" y="116"/>
      <point x="345" y="97"/>
      <point x="345" y="81" type="curve" smooth="yes"/>
      <point x="345" y="27"/>
      <point x="365" y="-6"/>
      <point x="428" y="-6" type="curve" smooth="yes"/>
      <point x="475" y="-6"/>
      <point x="542" y="22"/>
      <point x="568" y="48" type="curve"/>
      <point x="555" y="84" type="line"/>
      <point x="537" y="74"/>
      <point x="521" y="68"/>
      <point x="509" y="68" type="curve" smooth="yes"/>
      <point x="495" y="68"/>
      <point x="487" y="76"/>
      <point x="487" y="92" type="curve" smooth="yes"/>
      <point x="487" y="95"/>
      <point x="488" y="107"/>
      <point x="490" y="117" type="curve" smooth="yes"/>
      <point x="521" y="321" type="line" smooth="yes"/>
      <point x="525" y="349"/>
      <point x="526" y="359"/>
      <point x="526" y="369" type="curve" smooth="yes"/>
      <point x="526" y="446"/>
      <point x="479" y="492"/>
      <point x="399" y="492" type="curve" smooth="yes"/>
      <point x="333" y="492"/>
      <point x="280" y="458"/>
      <point x="239" y="395" type="curve"/>
      <point x="283" y="672" type="line"/>
      <point x="258" y="696" type="line"/>
      <point x="69" y="678" type="line"/>
      <point x="63" y="638" type="line"/>
      <point x="97" y="638"/>
      <point x="129" y="628"/>
      <point x="129" y="590" type="curve" smooth="yes"/>
      <point x="129" y="577"/>
      <point x="116" y="502"/>
      <point x="115" y="494" type="curve" smooth="yes"/>
    </contour>
  </outline>
</glyph>
<glyph name="i" format="1">
  <advance width="302"/>
  <unicode hex="0069"/>
  <outline>
    <contour>
      <point x="70" y="136" type="line" smooth="yes"/>
      <point x="67" y="116"/>
      <point x="65" y="97"/>
      <point x="65" y="81" type="curve" smooth="yes"/>
      <point x="65" y="27"/>
      <point x="85" y="-6"/>
      <point x="148" y="-6" type="curve" smooth="yes"/>
      <point x="195" y="-6"/>
      <point x="262" y="22"/>
      <point x="288" y="48" type="curve"/>
      <point x="275" y="84" type="line"/>
      <point x="257" y="74"/>
      <point x="241" y="68"/>
      <point x="229" y="68" type="curve" smooth="yes"/>
      <point x="215" y="68"/>
      <point x="206" y="76"/>
      <point x="206" y="93" type="curve" smooth="yes"/>
      <point x="206" y="102"/>
      <point x="209" y="117"/>
      <point x="210" y="123" type="curve" smooth="yes"/>
      <point x="264" y="470" type="line"/>
      <point x="228" y="492" type="line"/>
      <point x="43" y="466" type="line"/>
      <point x="49" y="422" type="line"/>
      <point x="83" y="420"/>
      <point x="107" y="408"/>
      <point x="107" y="376" type="curve" smooth="yes"/>
      <point x="107" y="369"/>
      <point x="106" y="362"/>
      <point x="105" y="354" type="curve" smooth="yes"/>
    </contour>
    <contour>
      <point x="206" y="550" type="curve" smooth="yes"/>
      <point x="256" y="550"/>
      <point x="289" y="581"/>
      <point x="289" y="634" type="curve" smooth="yes"/>
      <point x="289" y="667"/>
      <point x="264" y="690"/>
      <point x="224" y="690" type="curve" smooth="yes"/>
      <point x="174" y="690"/>
      <point x="141" y="659"/>
      <point x="141" y="606" type="curve" smooth="yes"/>
      <point x="141" y="572"/>
      <point x="166" y="550"/>
    </contour>
  </outline>
</glyph>
<glyph name="k" format="1">
  <advance width="538"/>
  <unicode hex="006B"/>
  <outline>
    <contour>
      <point x="276" y="669" type="line"/>
      <point x="251" y="693" type="line"/>
      <point x="62" y="675" type="line"/>
      <point x="56" y="635" type="line"/>
      <point x="90" y="635"/>
      <point x="122" y="625"/>
      <point x="122" y="587" type="curve" smooth="yes"/>
      <point x="122" y="574"/>
      <point x="109" y="499"/>
      <point x="108" y="491" type="curve" smooth="yes"/>
      <point x="29" y="-3" type="line"/>
      <point x="170" y="-3" type="line"/>
      <point x="203" y="207" type="line"/>
      <point x="205" y="209"/>
      <point x="232" y="217"/>
      <point x="246" y="224" type="curve"/>
      <point x="321" y="59" type="line" smooth="yes"/>
      <point x="340" y="17"/>
      <point x="368" y="2"/>
      <point x="398" y="2" type="curve" smooth="yes"/>
      <point x="445" y="2"/>
      <point x="497" y="38"/>
      <point x="534" y="67" type="curve"/>
      <point x="518" y="100" type="line"/>
      <point x="506" y="93"/>
      <point x="487" y="84"/>
      <point x="470" y="84" type="curve" smooth="yes"/>
      <point x="457" y="84"/>
      <point x="445" y="90"/>
      <point x="438" y="106" type="curve" smooth="yes"/>
      <point x="357" y="281" type="line"/>
      <point x="438" y="332"/>
      <point x="509" y="399"/>
      <point x="521" y="470" type="curve"/>
      <point x="485" y="492" type="line"/>
      <point x="360" y="478" type="line"/>
      <point x="365" y="442" type="line"/>
      <point x="387" y="440"/>
      <point x="398" y="426"/>
      <point x="398" y="412" type="curve" smooth="yes"/>
      <point x="398" y="355"/>
      <point x="264" y="297"/>
      <point x="214" y="278" type="curve"/>
    </contour>
  </outline>
</glyph>
<glyph name="l" format="1">
  <advance width="297"/>
  <unicode hex="006C"/>
  <outline>
    <contour>
      <point x="293" y="672" type="line"/>
      <point x="268" y="696" type="line"/>
      <point x="79" y="678" type="line"/>
      <point x="73" y="638" type="line"/>
      <point x="107" y="638"/>
      <point x="139" y="628"/>
      <point x="139" y="590" type="curve" smooth="yes"/>
      <point x="139" y="577"/>
      <point x="126" y="502"/>
      <point x="125" y="494" type="curve" smooth="yes"/>
      <point x="68" y="136" type="line" smooth="yes"/>
      <point x="65" y="113"/>
      <point x="63" y="95"/>
      <point x="63" y="81" type="curve" smooth="yes"/>
      <point x="63" y="21"/>
      <point x="89" y="-6"/>
      <point x="146" y="-6" type="curve" smooth="yes"/>
      <point x="190" y="-6"/>
      <point x="258" y="20"/>
      <point x="286" y="48" type="curve"/>
      <point x="273" y="84" type="line"/>
      <point x="254" y="73"/>
      <point x="238" y="68"/>
      <point x="227" y="68" type="curve" smooth="yes"/>
      <point x="212" y="68"/>
      <point x="204" y="77"/>
      <point x="204" y="93" type="curve" smooth="yes"/>
      <point x="204" y="96"/>
      <point x="206" y="113"/>
      <point x="208" y="122" type="curve"/>
    </contour>
  </outline>
</glyph>
<glyph name="m" format="1">
  <advance width="866"/>
  <unicode hex="006D"/>
  <outline>
    <contour>
      <point x="631" y="425" type="curve" smooth="yes"/>
      <point x="658" y="425"/>
      <point x="673" y="404"/>
      <point x="673" y="365" type="curve" smooth="yes"/>
      <point x="673" y="354"/>
      <point x="672" y="342"/>
      <point x="670" y="329" type="curve" smooth="yes"/>
      <point x="639" y="136" type="line" smooth="yes"/>
      <point x="636" y="115"/>
      <point x="633" y="96"/>
      <point x="633" y="80" type="curve" smooth="yes"/>
      <point x="633" y="27"/>
      <point x="655" y="-6"/>
      <point x="717" y="-6" type="curve" smooth="yes"/>
      <point x="764" y="-6"/>
      <point x="831" y="22"/>
      <point x="857" y="48" type="curve"/>
      <point x="844" y="84" type="line"/>
      <point x="826" y="74"/>
      <point x="810" y="68"/>
      <point x="798" y="68" type="curve" smooth="yes"/>
      <point x="784" y="68"/>
      <point x="776" y="76"/>
      <point x="776" y="92" type="curve" smooth="yes"/>
      <point x="776" y="98"/>
      <point x="778" y="110"/>
      <point x="779" y="116" type="curve" smooth="yes"/>
      <point x="812" y="331" type="line" smooth="yes"/>
      <point x="814" y="342"/>
      <point x="815" y="359"/>
      <point x="815" y="369" type="curve" smooth="yes"/>
      <point x="815" y="446"/>
      <point x="768" y="492"/>
      <point x="688" y="492" type="curve" smooth="yes"/>
      <point x="620" y="492"/>
      <point x="567" y="456"/>
      <point x="526" y="391" type="curve"/>
      <point x="518" y="454"/>
      <point x="472" y="492"/>
      <point x="400" y="492" type="curve" smooth="yes"/>
      <point x="333" y="492"/>
      <point x="280" y="457"/>
      <point x="239" y="393" type="curve"/>
      <point x="241" y="470" type="line"/>
      <point x="205" y="492" type="line"/>
      <point x="32" y="466" type="line"/>
      <point x="38" y="422" type="line"/>
      <point x="70" y="420"/>
      <point x="96" y="409"/>
      <point x="96" y="376" type="curve" smooth="yes"/>
      <point x="96" y="369"/>
      <point x="95" y="362"/>
      <point x="94" y="354" type="curve" smooth="yes"/>
      <point x="37" y="0" type="line"/>
      <point x="178" y="0" type="line"/>
      <point x="210" y="196" type="line" smooth="yes"/>
      <point x="228" y="310"/>
      <point x="294" y="425"/>
      <point x="343" y="425" type="curve" smooth="yes"/>
      <point x="370" y="425"/>
      <point x="385" y="404"/>
      <point x="385" y="365" type="curve" smooth="yes"/>
      <point x="385" y="354"/>
      <point x="384" y="342"/>
      <point x="382" y="329" type="curve" smooth="yes"/>
      <point x="328" y="0" type="line"/>
      <point x="470" y="0" type="line"/>
      <point x="510" y="251" type="line"/>
      <point x="537" y="344"/>
      <point x="591" y="425"/>
    </contour>
  </outline>
</glyph>
<glyph name="n" format="1">
  <advance width="585"/>
  <unicode hex="006E"/>
  <outline>
    <contour>
      <point x="242" y="470" type="line"/>
      <point x="206" y="492" type="line"/>
      <point x="33" y="466" type="line"/>
      <point x="39" y="422" type="line"/>
      <point x="71" y="420"/>
      <point x="97" y="409"/>
      <point x="97" y="376" type="curve" smooth="yes"/>
      <point x="97" y="369"/>
      <point x="96" y="362"/>
      <point x="95" y="354" type="curve" smooth="yes"/>
      <point x="38" y="0" type="line"/>
      <point x="179" y="0" type="line"/>
      <point x="211" y="196" type="line" smooth="yes"/>
      <point x="229" y="310"/>
      <point x="295" y="425"/>
      <point x="344" y="425" type="curve" smooth="yes"/>
      <point x="371" y="425"/>
      <point x="386" y="404"/>
      <point x="386" y="365" type="curve" smooth="yes"/>
      <point x="386" y="354"/>
      <point x="385" y="342"/>
      <point x="383" y="329" type="curve" smooth="yes"/>
      <point x="352" y="136" type="line" smooth="yes"/>
      <point x="349" y="116"/>
      <point x="347" y="97"/>
      <point x="347" y="80" type="curve" smooth="yes"/>
      <point x="347" y="27"/>
      <point x="367" y="-6"/>
      <point x="430" y="-6" type="curve" smooth="yes"/>
      <point x="477" y="-6"/>
      <point x="544" y="22"/>
      <point x="570" y="48" type="curve"/>
      <point x="557" y="84" type="line"/>
      <point x="539" y="74"/>
      <point x="523" y="68"/>
      <point x="511" y="68" type="curve" smooth="yes"/>
      <point x="494" y="68"/>
      <point x="489" y="80"/>
      <point x="489" y="93" type="curve" smooth="yes"/>
      <point x="489" y="103"/>
      <point x="492" y="114"/>
      <point x="493" y="122" type="curve" smooth="yes"/>
      <point x="525" y="329" type="line" smooth="yes"/>
      <point x="527" y="342"/>
      <point x="528" y="359"/>
      <point x="528" y="369" type="curve" smooth="yes"/>
      <point x="528" y="446"/>
      <point x="481" y="492"/>
      <point x="401" y="492" type="curve" smooth="yes"/>
      <point x="334" y="492"/>
      <point x="280" y="457"/>
      <point x="240" y="392" type="curve"/>
    </contour>
  </outline>
</glyph>
<glyph name="p" format="1">
  <advance width="571"/>
  <unicode hex="0070"/>
  <outline>
    <contour>
      <point x="343" y="432" type="curve" smooth="yes"/>
      <point x="385" y="432"/>
      <point x="405" y="395"/>
      <point x="405" y="322" type="curve" smooth="yes"/>
      <point x="405" y="190"/>
      <point x="368" y="46"/>
      <point x="256" y="46" type="curve" smooth="yes"/>
      <point x="229" y="46"/>
      <point x="205" y="56"/>
      <point x="193" y="66" type="curve"/>
      <point x="228" y="284" type="line" smooth="yes"/>
      <point x="244" y="383"/>
      <point x="290" y="432"/>
    </contour>
    <contour>
      <point x="246" y="470" type="line"/>
      <point x="210" y="492" type="line"/>
      <point x="36" y="466" type="line"/>
      <point x="42" y="422" type="line"/>
      <point x="74" y="420"/>
      <point x="100" y="409"/>
      <point x="100" y="376" type="curve" smooth="yes"/>
      <point x="100" y="369"/>
      <point x="99" y="362"/>
      <point x="98" y="354" type="curve" smooth="yes"/>
      <point x="12" y="-182" type="line"/>
      <point x="23" y="-211" type="line"/>
      <point x="201" y="-211" type="line"/>
      <point x="206" y="-173" type="line"/>
      <point x="175" y="-162"/>
      <point x="163" y="-149"/>
      <point x="163" y="-132" type="curve"/>
      <point x="186" y="17" type="line"/>
      <point x="212" y="2"/>
      <point x="238" y="-7"/>
      <point x="282" y="-7" type="curve" smooth="yes"/>
      <point x="449" y="-7"/>
      <point x="550" y="112"/>
      <point x="550" y="312" type="curve" smooth="yes"/>
      <point x="550" y="430"/>
      <point x="496" y="492"/>
      <point x="397" y="492" type="curve" smooth="yes"/>
      <point x="331" y="492"/>
      <point x="281" y="467"/>
      <point x="244" y="417" type="curve"/>
    </contour>
  </outline>
</glyph>
<glyph name="q" format="1">
  <advance width="564"/>
  <unicode hex="0071"/>
  <outline>
    <contour>
      <point x="366" y="265" type="line" smooth="yes"/>
      <point x="342" y="135"/>
      <point x="307" y="50"/>
      <point x="256" y="50" type="curve" smooth="yes"/>
      <point x="210" y="50"/>
      <point x="196" y="112"/>
      <point x="196" y="182" type="curve" smooth="yes"/>
      <point x="196" y="358"/>
      <point x="267" y="443"/>
      <point x="347" y="443" type="curve" smooth="yes"/>
      <point x="363" y="443"/>
      <point x="379" y="440"/>
      <point x="394" y="435" type="curve"/>
    </contour>
    <contour>
      <point x="296" y="-182" type="line"/>
      <point x="307" y="-211" type="line"/>
      <point x="485" y="-211" type="line"/>
      <point x="490" y="-173" type="line"/>
      <point x="460" y="-162"/>
      <point x="448" y="-150"/>
      <point x="447" y="-134" type="curve"/>
      <point x="463" y="-32"/>
      <point x="542" y="476"/>
      <point x="542" y="477" type="curve"/>
      <point x="512" y="491" type="line"/>
      <point x="428" y="472" type="line"/>
      <point x="394" y="484"/>
      <point x="361" y="492"/>
      <point x="324" y="492" type="curve" smooth="yes"/>
      <point x="173" y="492"/>
      <point x="52" y="395"/>
      <point x="52" y="181" type="curve" smooth="yes"/>
      <point x="52" y="49"/>
      <point x="128" y="-11"/>
      <point x="211" y="-11" type="curve" smooth="yes"/>
      <point x="264" y="-11"/>
      <point x="302" y="10"/>
      <point x="331" y="43" type="curve"/>
    </contour>
  </outline>
</glyph>
<glyph name="r" format="1">
  <advance width="456"/>
  <unicode hex="0072"/>
  <outline>
    <contour>
      <point x="257" y="470" type="line"/>
      <point x="221" y="492" type="line"/>
      <point x="35" y="466" type="line"/>
      <point x="41" y="422" type="line"/>
      <point x="73" y="420"/>
      <point x="99" y="409"/>
      <point x="99" y="376" type="curve" smooth="yes"/>
      <point x="99" y="369"/>
      <point x="98" y="362"/>
      <point x="97" y="354" type="curve" smooth="yes"/>
      <point x="40" y="0" type="line"/>
      <point x="181" y="0" type="line"/>
      <point x="211" y="186" type="line" smooth="yes"/>
      <point x="226" y="279"/>
      <point x="297" y="401"/>
      <point x="341" y="401" type="curve" smooth="yes"/>
      <point x="360" y="401"/>
      <point x="367" y="391"/>
      <point x="367" y="374" type="curve" smooth="yes"/>
      <point x="367" y="364"/>
      <point x="363" y="353"/>
      <point x="358" y="347" type="curve"/>
      <point x="376" y="329"/>
      <point x="394" y="322"/>
      <point x="410" y="322" type="curve" smooth="yes"/>
      <point x="452" y="322"/>
      <point x="484" y="371"/>
      <point x="484" y="416" type="curve" smooth="yes"/>
      <point x="484" y="454"/>
      <point x="461" y="489"/>
      <point x="403" y="489" type="curve" smooth="yes"/>
      <point x="328" y="489"/>
      <point x="274" y="426"/>
      <point x="238" y="352" type="curve"/>
    </contour>
  </outline>
</glyph>
<glyph name="v" format="1">
  <advance width="500"/>
  <unicode hex="0076"/>
  <outline>
    <contour>
      <point x="470" y="492" type="line"/>
      <point x="354" y="479" type="line"/>
      <point x="357" y="435" type="line"/>
      <point x="374" y="431"/>
      <point x="387" y="421"/>
      <point x="387" y="399" type="curve" smooth="yes"/>
      <point x="387" y="361"/>
      <point x="357" y="305"/>
      <point x="345" y="286" type="curve" smooth="yes"/>
      <point x="247" y="134" type="line"/>
      <point x="202" y="470" type="line"/>
      <point x="166" y="492" type="line"/>
      <point x="12" y="466" type="line"/>
      <point x="18" y="422" type="line"/>
      <point x="60" y="420"/>
      <point x="72" y="402"/>
      <point x="77" y="366" type="curve" smooth="yes"/>
      <point x="126" y="0" type="line"/>
      <point x="204" y="-7" type="line"/>
      <point x="225" y="-7" type="line"/>
      <point x="428" y="280" type="line" smooth="yes"/>
      <point x="487" y="364"/>
      <point x="503" y="437"/>
      <point x="507" y="462" type="curve"/>
    </contour>
  </outline>
</glyph>
<glyph name="x" format="1">
  <advance width="483"/>
  <unicode hex="0078"/>
  <outline>
    <contour>
      <point x="301" y="269" type="line"/>
      <point x="489" y="454" type="line"/>
      <point x="477" y="484" type="line"/>
      <point x="311" y="484" type="line"/>
      <point x="311" y="440" type="line"/>
      <point x="334" y="436"/>
      <point x="341" y="425"/>
      <point x="341" y="414" type="curve" smooth="yes"/>
      <point x="341" y="392"/>
      <point x="310" y="355"/>
      <point x="277" y="320" type="curve"/>
      <point x="208" y="469" type="line"/>
      <point x="168" y="492" type="line"/>
      <point x="15" y="466" type="line"/>
      <point x="21" y="422" type="line"/>
      <point x="56" y="420"/>
      <point x="71" y="412"/>
      <point x="95" y="367" type="curve" smooth="yes"/>
      <point x="162" y="226" type="line"/>
      <point x="37" y="98"/>
      <point x="-6" y="46"/>
      <point x="-20" y="28" type="curve"/>
      <point x="-9" y="0" type="line"/>
      <point x="159" y="0" type="line"/>
      <point x="164" y="38" type="line"/>
      <point x="133" y="49"/>
      <point x="121" y="63"/>
      <point x="121" y="80" type="curve" smooth="yes"/>
      <point x="121" y="105"/>
      <point x="149" y="136"/>
      <point x="187" y="173" type="curve"/>
      <point x="241" y="61" type="line" smooth="yes"/>
      <point x="260" y="22"/>
      <point x="293" y="-4"/>
      <point x="336" y="-4" type="curve" smooth="yes"/>
      <point x="377" y="-4"/>
      <point x="425" y="19"/>
      <point x="474" y="76" type="curve"/>
      <point x="451" y="107" type="line"/>
      <point x="434" y="92"/>
      <point x="421" y="86"/>
      <point x="410" y="86" type="curve" smooth="yes"/>
      <point x="390" y="86"/>
      <point x="376" y="106"/>
      <point x="365" y="131" type="curve" smooth="yes"/>
    </contour>
  </outline>
</glyph>
<glyph name="y" format="1">
  <advance width="500"/>
  <unicode hex="0079"/>
  <outline>
    <contour>
      <point x="164" y="-5" type="line"/>
      <point x="129" y="-54"/>
      <point x="95" y="-107"/>
      <point x="95" y="-150" type="curve" smooth="yes"/>
      <point x="95" y="-197"/>
      <point x="132" y="-220"/>
      <point x="170" y="-220" type="curve" smooth="yes"/>
      <point x="213" y="-220"/>
      <point x="258" y="-192"/>
      <point x="258" y="-142" type="curve" smooth="yes"/>
      <point x="258" y="-136"/>
      <point x="257" y="-129"/>
      <point x="256" y="-122" type="curve"/>
      <point x="246" y="-130"/>
      <point x="233" y="-134"/>
      <point x="222" y="-134" type="curve" smooth="yes"/>
      <point x="205" y="-134"/>
      <point x="190" y="-126"/>
      <point x="190" y="-107" type="curve" smooth="yes"/>
      <point x="190" y="-96"/>
      <point x="195" y="-82"/>
      <point x="206" y="-65" type="curve" smooth="yes"/>
      <point x="428" y="280" type="line" smooth="yes"/>
      <point x="468" y="342"/>
      <point x="503" y="437"/>
      <point x="507" y="462" type="curve"/>
      <point x="470" y="492" type="line"/>
      <point x="354" y="479" type="line"/>
      <point x="357" y="435" type="line"/>
      <point x="374" y="431"/>
      <point x="387" y="421"/>
      <point x="387" y="399" type="curve" smooth="yes"/>
      <point x="387" y="346"/>
      <point x="303" y="202"/>
      <point x="249" y="115" type="curve"/>
      <point x="202" y="470" type="line"/>
      <point x="166" y="492" type="line"/>
      <point x="12" y="466" type="line"/>
      <point x="18" y="422" type="line"/>
      <point x="60" y="420"/>
      <point x="72" y="402"/>
      <point x="77" y="366" type="curve" smooth="yes"/>
      <point x="126" y="0" type="line"/>
    </contour>
  </outline>
</glyph>
<glyph name="braceleft" format="1">
  <advance width="371"/>
  <unicode hex="007B"/>
  <outline>
    <contour>
      <point x="79" y="314" type="curve"/>
      <point x="69" y="254" type="line"/>
      <point x="69" y="254"/>
      <point x="121" y="243"/>
      <point x="121" y="192" type="curve" smooth="yes"/>
      <point x="121" y="148"/>
      <point x="66" y="52"/>
      <point x="66" y="-6" type="curve" smooth="yes"/>
      <point x="66" y="-102"/>
      <point x="141" y="-165"/>
      <point x="264" y="-165" type="curve"/>
      <point x="272" y="-112" type="line"/>
      <point x="209" y="-108"/>
      <point x="171" y="-67"/>
      <point x="171" y="-7" type="curve" smooth="yes"/>
      <point x="171" y="58"/>
      <point x="215" y="141"/>
      <point x="215" y="212" type="curve" smooth="yes"/>
      <point x="215" y="237"/>
      <point x="209" y="260"/>
      <point x="194" y="281" type="curve"/>
      <point x="250" y="336"/>
      <point x="264" y="372"/>
      <point x="264" y="429" type="curve" smooth="yes"/>
      <point x="264" y="463"/>
      <point x="257" y="497"/>
      <point x="257" y="532" type="curve" smooth="yes"/>
      <point x="257" y="616"/>
      <point x="316" y="674"/>
      <point x="398" y="680" type="curve"/>
      <point x="406" y="733" type="line"/>
      <point x="256" y="733"/>
      <point x="150" y="648"/>
      <point x="150" y="525" type="curve" smooth="yes"/>
      <point x="150" y="495"/>
      <point x="154" y="444"/>
      <point x="154" y="412" type="curve" smooth="yes"/>
      <point x="154" y="328"/>
      <point x="79" y="314"/>
    </contour>
  </outline>
</glyph>
<glyph name="bar" format="1">
  <advance width="309"/>
  <unicode hex="007C"/>
  <outline>
    <contour>
      <point x="140" y="-151" type="line"/>
      <point x="284" y="758" type="line"/>
      <point x="184" y="758" type="line"/>
      <point x="40" y="-151" type="line"/>
    </contour>
  </outline>
</glyph>
<glyph name="braceright" format="1">
  <advance width="371"/>
  <unicode hex="007D"/>
  <outline>
    <contour>
      <point x="314" y="314" type="line"/>
      <point x="314" y="314"/>
      <point x="262" y="325"/>
      <point x="262" y="376" type="curve" smooth="yes"/>
      <point x="262" y="420"/>
      <point x="317" y="516"/>
      <point x="317" y="574" type="curve" smooth="yes"/>
      <point x="317" y="670"/>
      <point x="242" y="733"/>
      <point x="119" y="733" type="curve"/>
      <point x="111" y="680" type="line"/>
      <point x="174" y="676"/>
      <point x="212" y="634"/>
      <point x="212" y="575" type="curve" smooth="yes"/>
      <point x="212" y="500"/>
      <point x="157" y="462"/>
      <point x="157" y="380" type="curve" smooth="yes"/>
      <point x="157" y="350"/>
      <point x="165" y="323"/>
      <point x="185" y="282" type="curve"/>
      <point x="132" y="227"/>
      <point x="122" y="183"/>
      <point x="122" y="135" type="curve" smooth="yes"/>
      <point x="122" y="105"/>
      <point x="126" y="74"/>
      <point x="126" y="36" type="curve" smooth="yes"/>
      <point x="126" y="-49"/>
      <point x="67" y="-108"/>
      <point x="-15" y="-112" type="curve"/>
      <point x="-23" y="-165" type="line"/>
      <point x="127" y="-165"/>
      <point x="233" y="-80"/>
      <point x="233" y="43" type="curve" smooth="yes"/>
      <point x="233" y="73"/>
      <point x="229" y="124"/>
      <point x="229" y="156" type="curve" smooth="yes"/>
      <point x="229" y="240"/>
      <point x="304" y="254"/>
      <point x="304" y="254" type="curve"/>
    </contour>
  </outline>
</glyph>
<glyph name="asciitilde" format="1">
  <advance width="573"/>
  <unicode hex="007E"/>
  <outline>
    <contour>
      <point x="141" y="207" type="curve"/>
      <point x="182" y="252"/>
      <point x="212" y="269"/>
      <point x="240" y="269" type="curve" smooth="yes"/>
      <point x="284" y="269"/>
      <point x="346" y="198"/>
      <point x="408" y="198" type="curve" smooth="yes"/>
      <point x="479" y="198"/>
      <point x="547" y="242"/>
      <point x="599" y="321" type="curve"/>
      <point x="585" y="335"/>
      <point x="569" y="346"/>
      <point x="521" y="371" type="curve"/>
      <point x="485" y="326"/>
      <point x="452" y="304"/>
      <point x="419" y="304" type="curve" smooth="yes"/>
      <point x="359" y="304"/>
      <point x="320" y="377"/>
      <point x="244" y="377" type="curve" smooth="yes"/>
      <point x="175" y="377"/>
      <point x="109" y="335"/>
      <point x="64" y="258" type="curve"/>
      <point x="88" y="235"/>
      <point x="119" y="214"/>
    </contour>
  </outline>
</glyph>
<glyph name="exclamdown" format="1">
  <advance width="328"/>
  <unicode hex="00A1"/>
  <outline>
    <contour>
      <point x="132" y="263" type="line"/>
      <point x="98" y="122"/>
      <point x="5" y="-76"/>
      <point x="5" y="-140" type="curve" smooth="yes"/>
      <point x="5" y="-180"/>
      <point x="25" y="-207"/>
      <point x="85" y="-207" type="curve" smooth="yes"/>
      <point x="122" y="-207"/>
      <point x="149" y="-187"/>
      <point x="159" y="-172" type="curve"/>
      <point x="156" y="-153"/>
      <point x="155" y="-103"/>
      <point x="155" y="-74" type="curve" smooth="yes"/>
      <point x="155" y="73"/>
      <point x="194" y="195"/>
      <point x="210" y="277" type="curve"/>
    </contour>
    <contour>
      <point x="206" y="488" type="curve" smooth="yes"/>
      <point x="159" y="488"/>
      <point x="130" y="455"/>
      <point x="130" y="408" type="curve" smooth="yes"/>
      <point x="130" y="376"/>
      <point x="150" y="352"/>
      <point x="181" y="352" type="curve" smooth="yes"/>
      <point x="228" y="352"/>
      <point x="257" y="386"/>
      <point x="257" y="433" type="curve" smooth="yes"/>
      <point x="257" y="464"/>
      <point x="238" y="488"/>
    </contour>
  </outline>
</glyph>
<glyph name="cent" format="1">
  <advance width="462"/>
  <unicode hex="00A2"/>
  <outline>
    <contour>
      <point x="439" y="91" type="curve"/>
      <point x="410" y="126" type="line"/>
      <point x="371" y="92"/>
      <point x="328" y="76"/>
      <point x="288" y="76" type="curve" smooth="yes"/>
      <point x="230" y="76"/>
      <point x="204" y="112"/>
      <point x="204" y="193" type="curve" smooth="yes"/>
      <point x="204" y="306"/>
      <point x="235" y="440"/>
      <point x="315" y="440" type="curve" smooth="yes"/>
      <point x="337" y="440"/>
      <point x="354" y="427"/>
      <point x="354" y="407" type="curve" smooth="yes"/>
      <point x="354" y="399"/>
      <point x="352" y="381"/>
      <point x="336" y="364" type="curve"/>
      <point x="341" y="341"/>
      <point x="365" y="325"/>
      <point x="394" y="325" type="curve" smooth="yes"/>
      <point x="438" y="325"/>
      <point x="477" y="357"/>
      <point x="477" y="398" type="curve" smooth="yes"/>
      <point x="477" y="445"/>
      <point x="426" y="480"/>
      <point x="345" y="484" type="curve"/>
      <point x="358" y="572" type="line"/>
      <point x="318" y="577" type="line"/>
      <point x="296" y="565" type="line"/>
      <point x="283" y="480" type="line"/>
      <point x="142" y="461"/>
      <point x="68" y="359"/>
      <point x="68" y="202" type="curve" smooth="yes"/>
      <point x="68" y="99"/>
      <point x="115" y="39"/>
      <point x="209" y="25" type="curve"/>
      <point x="196" y="-69" type="line"/>
      <point x="243" y="-74" type="line"/>
      <point x="258" y="-63" type="line"/>
      <point x="271" y="22" type="line"/>
      <point x="331" y="25"/>
      <point x="393" y="51"/>
    </contour>
  </outline>
</glyph>
<glyph name="sterling" format="1">
  <advance width="534"/>
  <unicode hex="00A3"/>
  <outline>
    <contour>
      <point x="78" y="357" type="line"/>
      <point x="65" y="347" type="line"/>
      <point x="65" y="297" type="line"/>
      <point x="132" y="297" type="line"/>
      <point x="136" y="252"/>
      <point x="140" y="207"/>
      <point x="140" y="172" type="curve" smooth="yes"/>
      <point x="140" y="163"/>
      <point x="139" y="154"/>
      <point x="139" y="145" type="curve"/>
      <point x="122" y="151"/>
      <point x="105" y="156"/>
      <point x="89" y="156" type="curve" smooth="yes"/>
      <point x="11" y="156"/>
      <point x="-28" y="107"/>
      <point x="-28" y="63" type="curve" smooth="yes"/>
      <point x="-28" y="25"/>
      <point x="0" y="-9"/>
      <point x="55" y="-9" type="curve" smooth="yes"/>
      <point x="112" y="-9"/>
      <point x="159" y="16"/>
      <point x="193" y="57" type="curve"/>
      <point x="237" y="28"/>
      <point x="282" y="-7"/>
      <point x="345" y="-7" type="curve" smooth="yes"/>
      <point x="407" y="-7"/>
      <point x="488" y="17"/>
      <point x="488" y="95" type="curve" smooth="yes"/>
      <point x="488" y="137"/>
      <point x="459" y="161"/>
      <point x="413" y="161" type="curve"/>
      <point x="413" y="157"/>
      <point x="414" y="153"/>
      <point x="414" y="150" type="curve" smooth="yes"/>
      <point x="414" y="117"/>
      <point x="394" y="76"/>
      <point x="344" y="76" type="curve" smooth="yes"/>
      <point x="303" y="76"/>
      <point x="264" y="90"/>
      <point x="227" y="107" type="curve"/>
      <point x="251" y="155"/>
      <point x="264" y="213"/>
      <point x="264" y="274" type="curve" smooth="yes"/>
      <point x="264" y="297" type="line"/>
      <point x="394" y="297" type="line"/>
      <point x="404" y="311" type="line"/>
      <point x="404" y="357" type="line"/>
      <point x="262" y="357" type="line"/>
      <point x="261" y="386"/>
      <point x="260" y="413"/>
      <point x="260" y="413" type="curve"/>
      <point x="260" y="529"/>
      <point x="293" y="621"/>
      <point x="383" y="621" type="curve" smooth="yes"/>
      <point x="417" y="621"/>
      <point x="436" y="601"/>
      <point x="436" y="575" type="curve" smooth="yes"/>
      <point x="436" y="558"/>
      <point x="427" y="539"/>
      <point x="409" y="520" type="curve"/>
      <point x="413" y="501"/>
      <point x="436" y="487"/>
      <point x="470" y="487" type="curve" smooth="yes"/>
      <point x="512" y="487"/>
      <point x="555" y="519"/>
      <point x="555" y="570" type="curve" smooth="yes"/>
      <point x="555" y="644"/>
      <point x="471" y="675"/>
      <point x="395" y="675" type="curve" smooth="yes"/>
      <point x="226" y="675"/>
      <point x="125" y="584"/>
      <point x="125" y="414" type="curve" smooth="yes"/>
      <point x="125" y="397"/>
      <point x="125" y="377"/>
      <point x="127" y="357" type="curve"/>
    </contour>
    <contour>
      <point x="76" y="48" type="curve" smooth="yes"/>
      <point x="60" y="48"/>
      <point x="52" y="57"/>
      <point x="52" y="68" type="curve" smooth="yes"/>
      <point x="52" y="82"/>
      <point x="66" y="99"/>
      <point x="90" y="99" type="curve" smooth="yes"/>
      <point x="104" y="99"/>
      <point x="117" y="96"/>
      <point x="130" y="91" type="curve"/>
      <point x="121" y="64"/>
      <point x="104" y="48"/>
    </contour>
  </outline>
</glyph>
<glyph name="currency" format="1">
  <advance width="587"/>
  <unicode hex="00A4"/>
  <outline>
    <contour>
      <point x="82" y="293" type="curve" smooth="yes"/>
      <point x="82" y="250"/>
      <point x="98" y="208"/>
      <point x="128" y="171" type="curve"/>
      <point x="72" y="108" type="line"/>
      <point x="141" y="43" type="line"/>
      <point x="210" y="121" type="line"/>
      <point x="233" y="114"/>
      <point x="261" y="110"/>
      <point x="294" y="110" type="curve" smooth="yes"/>
      <point x="327" y="110"/>
      <point x="355" y="113"/>
      <point x="378" y="121" type="curve"/>
      <point x="448" y="44" type="line"/>
      <point x="516" y="108" type="line"/>
      <point x="459" y="170" type="line"/>
      <point x="487" y="206"/>
      <point x="505" y="248"/>
      <point x="505" y="293" type="curve" smooth="yes"/>
      <point x="505" y="339"/>
      <point x="487" y="381"/>
      <point x="457" y="418" type="curve"/>
      <point x="515" y="481" type="line"/>
      <point x="448" y="546" type="line"/>
      <point x="373" y="466" type="line"/>
      <point x="351" y="474"/>
      <point x="326" y="476"/>
      <point x="294" y="476" type="curve" smooth="yes"/>
      <point x="264" y="476"/>
      <point x="238" y="473"/>
      <point x="216" y="466" type="curve"/>
      <point x="141" y="547" type="line"/>
      <point x="73" y="481" type="line"/>
      <point x="130" y="417" type="line"/>
      <point x="98" y="380"/>
      <point x="82" y="338"/>
    </contour>
    <contour>
      <point x="294" y="160" type="curve" smooth="yes"/>
      <point x="239" y="160"/>
      <point x="215" y="212"/>
      <point x="215" y="293" type="curve" smooth="yes"/>
      <point x="215" y="369"/>
      <point x="236" y="426"/>
      <point x="294" y="426" type="curve" smooth="yes"/>
      <point x="348" y="426"/>
      <point x="372" y="373"/>
      <point x="372" y="293" type="curve" smooth="yes"/>
      <point x="372" y="212"/>
      <point x="348" y="160"/>
    </contour>
  </outline>
</glyph>
<glyph name="yen" format="1">
  <advance width="611"/>
  <unicode hex="00A5"/>
  <outline>
    <contour>
      <point x="196" y="71" type="line"/>
      <point x="175" y="55"/>
      <point x="147" y="46"/>
      <point x="114" y="41" type="curve"/>
      <point x="109" y="0" type="line"/>
      <point x="415" y="0" type="line"/>
      <point x="420" y="41" type="line"/>
      <point x="388" y="48"/>
      <point x="356" y="57"/>
      <point x="343" y="71" type="curve"/>
      <point x="369" y="235" type="line"/>
      <point x="519" y="235" type="line"/>
      <point x="529" y="249" type="line"/>
      <point x="529" y="295" type="line"/>
      <point x="392" y="295" type="line"/>
      <point x="420" y="337" type="line"/>
      <point x="531" y="337" type="line"/>
      <point x="541" y="351" type="line"/>
      <point x="541" y="397" type="line"/>
      <point x="460" y="397" type="line"/>
      <point x="596" y="601" type="line"/>
      <point x="614" y="617"/>
      <point x="634" y="625"/>
      <point x="660" y="627" type="curve"/>
      <point x="665" y="667" type="line"/>
      <point x="439" y="667" type="line"/>
      <point x="434" y="627" type="line"/>
      <point x="467" y="623"/>
      <point x="497" y="613"/>
      <point x="514" y="597" type="curve"/>
      <point x="354" y="357" type="line"/>
      <point x="284" y="605" type="line"/>
      <point x="299" y="618"/>
      <point x="325" y="623"/>
      <point x="354" y="627" type="curve"/>
      <point x="360" y="667" type="line"/>
      <point x="84" y="667" type="line"/>
      <point x="80" y="627" type="line"/>
      <point x="107" y="621"/>
      <point x="130" y="607"/>
      <point x="137" y="585" type="curve" smooth="yes"/>
      <point x="191" y="397" type="line"/>
      <point x="93" y="397" type="line"/>
      <point x="80" y="387" type="line"/>
      <point x="80" y="337" type="line"/>
      <point x="208" y="337" type="line"/>
      <point x="220" y="295" type="line"/>
      <point x="83" y="295" type="line"/>
      <point x="70" y="285" type="line"/>
      <point x="70" y="235" type="line"/>
      <point x="222" y="235" type="line"/>
    </contour>
  </outline>
</glyph>
<glyph name="brokenbar" format="1">
  <advance width="309"/>
  <unicode hex="00A6"/>
  <outline>
    <contour>
      <point x="225" y="387" type="line"/>
      <point x="284" y="758" type="line"/>
      <point x="184" y="758" type="line"/>
      <point x="125" y="387" type="line"/>
    </contour>
    <contour>
      <point x="100" y="229" type="line"/>
      <point x="40" y="-151" type="line"/>
      <point x="140" y="-151" type="line"/>
      <point x="200" y="229" type="line"/>
    </contour>
  </outline>
</glyph>
<glyph name="section" format="1">
  <advance width="506"/>
  <unicode hex="00A7"/>
  <outline>
    <contour>
      <point x="190" y="19" type="curve" smooth="yes"/>
      <point x="159" y="19"/>
      <point x="148" y="38"/>
      <point x="148" y="60" type="curve" smooth="yes"/>
      <point x="148" y="86"/>
      <point x="163" y="116"/>
      <point x="178" y="124" type="curve"/>
      <point x="170" y="152"/>
      <point x="144" y="166"/>
      <point x="115" y="166" type="curve" smooth="yes"/>
      <point x="69" y="166"/>
      <point x="22" y="133"/>
      <point x="22" y="70" type="curve" smooth="yes"/>
      <point x="22" y="0"/>
      <point x="91" y="-36"/>
      <point x="172" y="-36" type="curve" smooth="yes"/>
      <point x="288" y="-36"/>
      <point x="427" y="31"/>
      <point x="427" y="170" type="curve" smooth="yes"/>
      <point x="427" y="328"/>
      <point x="261" y="436"/>
      <point x="261" y="561" type="curve" smooth="yes"/>
      <point x="261" y="614"/>
      <point x="299" y="639"/>
      <point x="332" y="639" type="curve" smooth="yes"/>
      <point x="358" y="639"/>
      <point x="379" y="624"/>
      <point x="379" y="598" type="curve" smooth="yes"/>
      <point x="379" y="568"/>
      <point x="353" y="542"/>
      <point x="345" y="534" type="curve"/>
      <point x="351" y="506"/>
      <point x="378" y="492"/>
      <point x="406" y="492" type="curve" smooth="yes"/>
      <point x="453" y="492"/>
      <point x="500" y="524"/>
      <point x="500" y="588" type="curve" smooth="yes"/>
      <point x="500" y="658"/>
      <point x="431" y="694"/>
      <point x="350" y="694" type="curve" smooth="yes"/>
      <point x="234" y="694"/>
      <point x="95" y="627"/>
      <point x="95" y="489" type="curve" smooth="yes"/>
      <point x="95" y="334"/>
      <point x="261" y="223"/>
      <point x="261" y="97" type="curve" smooth="yes"/>
      <point x="261" y="54"/>
      <point x="231" y="19"/>
    </contour>
    <contour>
      <point x="189" y="557" type="curve"/>
      <point x="188" y="550"/>
      <point x="187" y="543"/>
      <point x="187" y="536" type="curve" smooth="yes"/>
      <point x="187" y="413"/>
      <point x="351" y="295"/>
      <point x="351" y="167" type="curve" smooth="yes"/>
      <point x="351" y="151"/>
      <point x="342" y="117"/>
      <point x="333" y="101" type="curve"/>
      <point x="334" y="108"/>
      <point x="335" y="115"/>
      <point x="335" y="122" type="curve" smooth="yes"/>
      <point x="335" y="245"/>
      <point x="171" y="361"/>
      <point x="171" y="489" type="curve" smooth="yes"/>
      <point x="171" y="514"/>
      <point x="177" y="533"/>
    </contour>
  </outline>
</glyph>
<glyph name="dieresis" format="1">
  <advance width="337"/>
  <unicode hex="00A8"/>
  <outline>
    <contour>
      <point x="143" y="553" type="curve" smooth="yes"/>
      <point x="186" y="553"/>
      <point x="215" y="583"/>
      <point x="215" y="633" type="curve" smooth="yes"/>
      <point x="215" y="665"/>
      <point x="194" y="686"/>
      <point x="159" y="686" type="curve" smooth="yes"/>
      <point x="116" y="686"/>
      <point x="87" y="657"/>
      <point x="87" y="607" type="curve" smooth="yes"/>
      <point x="87" y="574"/>
      <point x="108" y="553"/>
    </contour>
    <contour>
      <point x="306" y="553" type="curve" smooth="yes"/>
      <point x="349" y="553"/>
      <point x="378" y="583"/>
      <point x="378" y="633" type="curve" smooth="yes"/>
      <point x="378" y="665"/>
      <point x="357" y="686"/>
      <point x="322" y="686" type="curve" smooth="yes"/>
      <point x="279" y="686"/>
      <point x="250" y="657"/>
      <point x="250" y="607" type="curve" smooth="yes"/>
      <point x="250" y="574"/>
      <point x="271" y="553"/>
    </contour>
  </outline>
</glyph>
<glyph name="copyright" format="1">
  <advance width="851"/>
  <unicode hex="00A9"/>
  <outline>
    <contour>
      <point x="438" y="138" type="curve" smooth="yes"/>
      <point x="476" y="138"/>
      <point x="517" y="159"/>
      <point x="549" y="195" type="curve"/>
      <point x="523" y="219" type="line"/>
      <point x="501" y="196"/>
      <point x="479" y="183"/>
      <point x="455" y="183" type="curve" smooth="yes"/>
      <point x="398" y="183"/>
      <point x="375" y="226"/>
      <point x="375" y="316" type="curve" smooth="yes"/>
      <point x="375" y="407"/>
      <point x="395" y="448"/>
      <point x="436" y="448" type="curve" smooth="yes"/>
      <point x="457" y="448"/>
      <point x="469" y="437"/>
      <point x="469" y="419" type="curve" smooth="yes"/>
      <point x="469" y="411"/>
      <point x="466" y="400"/>
      <point x="461" y="391" type="curve"/>
      <point x="470" y="375"/>
      <point x="484" y="369"/>
      <point x="497" y="369" type="curve" smooth="yes"/>
      <point x="520" y="369"/>
      <point x="542" y="388"/>
      <point x="542" y="418" type="curve" smooth="yes"/>
      <point x="542" y="457"/>
      <point x="499" y="485"/>
      <point x="438" y="485" type="curve" smooth="yes"/>
      <point x="342" y="485"/>
      <point x="292" y="426"/>
      <point x="292" y="308" type="curve" smooth="yes"/>
      <point x="292" y="196"/>
      <point x="343" y="138"/>
    </contour>
    <contour>
      <point x="174" y="313" type="curve" smooth="yes"/>
      <point x="174" y="454"/>
      <point x="289" y="569"/>
      <point x="425" y="569" type="curve" smooth="yes"/>
      <point x="563" y="569"/>
      <point x="675" y="454"/>
      <point x="675" y="313" type="curve" smooth="yes"/>
      <point x="675" y="171"/>
      <point x="563" y="57"/>
      <point x="425" y="57" type="curve" smooth="yes"/>
      <point x="289" y="57"/>
      <point x="174" y="171"/>
    </contour>
    <contour>
      <point x="125" y="313" type="curve" smooth="yes"/>
      <point x="125" y="149"/>
      <point x="258" y="16"/>
      <point x="425" y="16" type="curve" smooth="yes"/>
      <point x="592" y="16"/>
      <point x="726" y="149"/>
      <point x="726" y="313" type="curve" smooth="yes"/>
      <point x="726" y="477"/>
      <point x="591" y="610"/>
      <point x="425" y="610" type="curve" smooth="yes"/>
      <point x="259" y="610"/>
      <point x="125" y="477"/>
    </contour>
  </outline>
</glyph>
<glyph name="ordfeminine" format="1">
  <advance width="415"/>
  <unicode hex="00AA"/>
  <outline>
    <contour>
      <point x="402" y="292" type="line"/>
      <point x="66" y="292" type="line"/>
      <point x="57" y="231" type="line"/>
      <point x="393" y="231" type="line"/>
    </contour>
    <contour>
      <point x="221" y="392" type="curve" smooth="yes"/>
      <point x="194" y="392"/>
      <point x="186" y="421"/>
      <point x="186" y="467" type="curve" smooth="yes"/>
      <point x="186" y="583"/>
      <point x="226" y="629"/>
      <point x="275" y="629" type="curve" smooth="yes"/>
      <point x="286" y="629"/>
      <point x="295" y="627"/>
      <point x="305" y="623" type="curve"/>
      <point x="285" y="511" type="line" smooth="yes"/>
      <point x="273" y="431"/>
      <point x="250" y="392"/>
    </contour>
    <contour>
      <point x="270" y="380" type="curve"/>
      <point x="279" y="354"/>
      <point x="293" y="341"/>
      <point x="331" y="341" type="curve" smooth="yes"/>
      <point x="366" y="341"/>
      <point x="416" y="359"/>
      <point x="435" y="378" type="curve"/>
      <point x="429" y="415" type="line"/>
      <point x="417" y="409"/>
      <point x="407" y="405"/>
      <point x="399" y="405" type="curve" smooth="yes"/>
      <point x="389" y="405"/>
      <point x="383" y="410"/>
      <point x="383" y="421" type="curve"/>
      <point x="423" y="647" type="line"/>
      <point x="390" y="666" type="line"/>
      <point x="327" y="654" type="line"/>
      <point x="304" y="662"/>
      <point x="282" y="667"/>
      <point x="257" y="667" type="curve" smooth="yes"/>
      <point x="156" y="667"/>
      <point x="74" y="603"/>
      <point x="74" y="463" type="curve" smooth="yes"/>
      <point x="74" y="376"/>
      <point x="126" y="336"/>
      <point x="182" y="336" type="curve" smooth="yes"/>
      <point x="223" y="336"/>
      <point x="250" y="353"/>
    </contour>
  </outline>
</glyph>
<glyph name="guillemotleft" format="1">
  <advance width="512"/>
  <unicode hex="00AB"/>
  <outline>
    <contour>
      <point x="155" y="240" type="line"/>
      <point x="281" y="426" type="line"/>
      <point x="254" y="450" type="line"/>
      <point x="34" y="258" type="line"/>
      <point x="28" y="222" type="line"/>
      <point x="188" y="31" type="line"/>
      <point x="223" y="55" type="line"/>
    </contour>
    <contour>
      <point x="380" y="240" type="line"/>
      <point x="506" y="426" type="line"/>
      <point x="479" y="450" type="line"/>
      <point x="259" y="258" type="line"/>
      <point x="253" y="222" type="line"/>
      <point x="413" y="31" type="line"/>
      <point x="448" y="55" type="line"/>
    </contour>
  </outline>
</glyph>
<glyph name="logicalnot" format="1">
  <advance width="573"/>
  <unicode hex="00AC"/>
  <outline>
    <contour>
      <point x="91" y="327" type="line"/>
      <point x="468" y="327" type="line"/>
      <point x="435" y="121" type="line"/>
      <point x="535" y="121" type="line"/>
      <point x="583" y="422" type="line"/>
      <point x="106" y="422" type="line"/>
    </contour>
  </outline>
</glyph>
<glyph name="uni00AD" format="1">
  <advance width="337"/>
  <unicode hex="00AD"/>
  <outline>
    <contour>
      <point x="52" y="219" type="line"/>
      <point x="283" y="219" type="line"/>
      <point x="298" y="314" type="line"/>
      <point x="67" y="314" type="line"/>
    </contour>
  </outline>
</glyph>
<glyph name="registered" format="1">
  <advance width="851"/>
  <unicode hex="00AE"/>
  <outline>
    <contour>
      <point x="125" y="313" type="curve" smooth="yes"/>
      <point x="125" y="149"/>
      <point x="258" y="16"/>
      <point x="425" y="16" type="curve" smooth="yes"/>
      <point x="592" y="16"/>
      <point x="726" y="149"/>
      <point x="726" y="313" type="curve" smooth="yes"/>
      <point x="726" y="477"/>
      <point x="591" y="610"/>
      <point x="425" y="610" type="curve" smooth="yes"/>
      <point x="259" y="610"/>
      <point x="125" y="477"/>
    </contour>
    <contour>
      <point x="425" y="183" type="line"/>
      <point x="389" y="194" type="line"/>
      <point x="389" y="306" type="line"/>
      <point x="394" y="306" type="line"/>
      <point x="401" y="305"/>
      <point x="408" y="305"/>
      <point x="414" y="305" type="curve"/>
      <point x="427" y="303"/>
      <point x="435" y="298"/>
      <point x="440" y="286" type="curve" smooth="yes"/>
      <point x="487" y="160" type="line"/>
      <point x="575" y="160" type="line"/>
      <point x="579" y="185" type="line"/>
      <point x="549" y="196" type="line"/>
      <point x="513" y="282" type="line"/>
      <point x="505" y="298"/>
      <point x="497" y="308"/>
      <point x="487" y="314" type="curve"/>
      <point x="529" y="328"/>
      <point x="550" y="356"/>
      <point x="550" y="397" type="curve" smooth="yes"/>
      <point x="550" y="454"/>
      <point x="509" y="481"/>
      <point x="427" y="481" type="curve" smooth="yes"/>
      <point x="291" y="481" type="line"/>
      <point x="289" y="457" type="line"/>
      <point x="318" y="447" type="line"/>
      <point x="318" y="194" type="line"/>
      <point x="292" y="185" type="line"/>
      <point x="289" y="160" type="line"/>
      <point x="423" y="160" type="line"/>
    </contour>
    <contour>
      <point x="475" y="395" type="curve" smooth="yes"/>
      <point x="475" y="355"/>
      <point x="457" y="335"/>
      <point x="420" y="335" type="curve" smooth="yes"/>
      <point x="389" y="335" type="line"/>
      <point x="389" y="450" type="line"/>
      <point x="399" y="452"/>
      <point x="407" y="452"/>
      <point x="420" y="452" type="curve" smooth="yes"/>
      <point x="455" y="452"/>
      <point x="475" y="432"/>
    </contour>
    <contour>
      <point x="174" y="313" type="curve" smooth="yes"/>
      <point x="174" y="454"/>
      <point x="289" y="569"/>
      <point x="425" y="569" type="curve" smooth="yes"/>
      <point x="563" y="569"/>
      <point x="675" y="454"/>
      <point x="675" y="313" type="curve" smooth="yes"/>
      <point x="675" y="171"/>
      <point x="563" y="57"/>
      <point x="425" y="57" type="curve" smooth="yes"/>
      <point x="289" y="57"/>
      <point x="174" y="171"/>
    </contour>
  </outline>
</glyph>
<glyph name="macron" format="1">
  <advance width="361"/>
  <unicode hex="00AF"/>
  <outline>
    <contour>
      <point x="80" y="578" type="line"/>
      <point x="391" y="578" type="line"/>
      <point x="402" y="646" type="line"/>
      <point x="91" y="646" type="line"/>
    </contour>
  </outline>
</glyph>
<glyph name="degree" format="1">
  <advance width="378"/>
  <unicode hex="00B0"/>
  <outline>
    <contour>
      <point x="96" y="503" type="curve" smooth="yes"/>
      <point x="96" y="432"/>
      <point x="149" y="380"/>
      <point x="225" y="380" type="curve" smooth="yes"/>
      <point x="318" y="380"/>
      <point x="401" y="457"/>
      <point x="401" y="552" type="curve" smooth="yes"/>
      <point x="401" y="623"/>
      <point x="348" y="675"/>
      <point x="272" y="675" type="curve" smooth="yes"/>
      <point x="172" y="675"/>
      <point x="96" y="603"/>
    </contour>
    <contour>
      <point x="263" y="621" type="curve" smooth="yes"/>
      <point x="300" y="621"/>
      <point x="322" y="594"/>
      <point x="322" y="551" type="curve" smooth="yes"/>
      <point x="322" y="481"/>
      <point x="282" y="433"/>
      <point x="234" y="433" type="curve" smooth="yes"/>
      <point x="197" y="433"/>
      <point x="175" y="460"/>
      <point x="175" y="503" type="curve" smooth="yes"/>
      <point x="175" y="563"/>
      <point x="208" y="621"/>
    </contour>
  </outline>
</glyph>
<glyph name="plusminus" format="1">
  <advance width="573"/>
  <unicode hex="00B1"/>
  <outline>
    <contour>
      <point x="74" y="306" type="line"/>
      <point x="247" y="306" type="line"/>
      <point x="223" y="150" type="line"/>
      <point x="323" y="150" type="line"/>
      <point x="347" y="306" type="line"/>
      <point x="523" y="306" type="line"/>
      <point x="539" y="401" type="line"/>
      <point x="363" y="401" type="line"/>
      <point x="387" y="558" type="line"/>
      <point x="287" y="558" type="line"/>
      <point x="263" y="401" type="line"/>
      <point x="90" y="401" type="line"/>
    </contour>
    <contour>
      <point x="25" y="0" type="line"/>
      <point x="474" y="0" type="line"/>
      <point x="489" y="95" type="line"/>
      <point x="40" y="95" type="line"/>
    </contour>
  </outline>
</glyph>
<glyph name="twosuperior" format="1">
  <advance width="426"/>
  <unicode hex="00B2"/>
  <outline>
    <contour>
      <point x="163" y="474" type="line"/>
      <point x="309" y="581"/>
      <point x="366" y="648"/>
      <point x="366" y="718" type="curve" smooth="yes"/>
      <point x="366" y="757"/>
      <point x="347" y="789"/>
      <point x="312" y="805" type="curve" smooth="yes"/>
      <point x="290" y="816"/>
      <point x="263" y="822"/>
      <point x="229" y="822" type="curve" smooth="yes"/>
      <point x="131" y="822"/>
      <point x="63" y="772"/>
      <point x="63" y="710" type="curve" smooth="yes"/>
      <point x="63" y="677"/>
      <point x="87" y="662"/>
      <point x="115" y="662" type="curve" smooth="yes"/>
      <point x="134" y="662"/>
      <point x="157" y="670"/>
      <point x="178" y="686" type="curve"/>
      <point x="170" y="698"/>
      <point x="167" y="711"/>
      <point x="167" y="723" type="curve" smooth="yes"/>
      <point x="167" y="751"/>
      <point x="186" y="777"/>
      <point x="217" y="777" type="curve" smooth="yes"/>
      <point x="243" y="777"/>
      <point x="257" y="760"/>
      <point x="257" y="733" type="curve" smooth="yes"/>
      <point x="257" y="653"/>
      <point x="208" y="591"/>
      <point x="20" y="447" type="curve"/>
      <point x="13" y="405" type="line"/>
      <point x="321" y="405" type="line"/>
      <point x="332" y="474" type="line"/>
    </contour>
  </outline>
</glyph>
<glyph name="threesuperior" format="1">
  <advance width="426"/>
  <unicode hex="00B3"/>
  <outline>
    <contour>
      <point x="146" y="596" type="line"/>
      <point x="207" y="596"/>
      <point x="241" y="572"/>
      <point x="241" y="530" type="curve" smooth="yes"/>
      <point x="241" y="478"/>
      <point x="216" y="453"/>
      <point x="176" y="453" type="curve" smooth="yes"/>
      <point x="145" y="453"/>
      <point x="132" y="467"/>
      <point x="132" y="486" type="curve" smooth="yes"/>
      <point x="132" y="494"/>
      <point x="135" y="506"/>
      <point x="145" y="520" type="curve"/>
      <point x="129" y="533"/>
      <point x="114" y="540"/>
      <point x="98" y="540" type="curve" smooth="yes"/>
      <point x="64" y="540"/>
      <point x="33" y="519"/>
      <point x="33" y="479" type="curve" smooth="yes"/>
      <point x="33" y="428"/>
      <point x="94" y="400"/>
      <point x="167" y="400" type="curve" smooth="yes"/>
      <point x="253" y="400"/>
      <point x="358" y="442"/>
      <point x="358" y="538" type="curve" smooth="yes"/>
      <point x="358" y="578"/>
      <point x="340" y="607"/>
      <point x="288" y="621" type="curve"/>
      <point x="348" y="643"/>
      <point x="377" y="680"/>
      <point x="377" y="727" type="curve" smooth="yes"/>
      <point x="377" y="783"/>
      <point x="325" y="822"/>
      <point x="242" y="822" type="curve" smooth="yes"/>
      <point x="176" y="822"/>
      <point x="75" y="792"/>
      <point x="75" y="719" type="curve" smooth="yes"/>
      <point x="75" y="692"/>
      <point x="93" y="671"/>
      <point x="127" y="671" type="curve" smooth="yes"/>
      <point x="145" y="671"/>
      <point x="165" y="678"/>
      <point x="183" y="693" type="curve"/>
      <point x="179" y="702"/>
      <point x="178" y="711"/>
      <point x="178" y="720" type="curve" smooth="yes"/>
      <point x="178" y="750"/>
      <point x="196" y="777"/>
      <point x="228" y="777" type="curve" smooth="yes"/>
      <point x="248" y="777"/>
      <point x="265" y="764"/>
      <point x="265" y="732" type="curve" smooth="yes"/>
      <point x="265" y="674"/>
      <point x="225" y="649"/>
      <point x="154" y="643" type="curve"/>
    </contour>
  </outline>
</glyph>
<glyph name="acute" format="1">
  <advance width="241"/>
  <unicode hex="00B4"/>
  <outline>
    <contour>
      <point x="240" y="622" type="line" smooth="yes"/>
      <point x="265" y="638"/>
      <point x="275" y="657"/>
      <point x="275" y="675" type="curve" smooth="yes"/>
      <point x="275" y="700"/>
      <point x="255" y="721"/>
      <point x="229" y="721" type="curve" smooth="yes"/>
      <point x="212" y="721"/>
      <point x="192" y="712"/>
      <point x="173" y="689" type="curve" smooth="yes"/>
      <point x="79" y="572" type="line"/>
      <point x="109" y="538" type="line"/>
    </contour>
  </outline>
</glyph>
<glyph name="paragraph" format="1">
  <advance width="569"/>
  <unicode hex="00B6"/>
  <outline>
    <contour>
      <point x="436" y="623" type="line"/>
      <point x="472" y="623" type="line"/>
      <point x="371" y="-13" type="line" smooth="yes"/>
      <point x="365" y="-53"/>
      <point x="344" y="-105"/>
      <point x="315" y="-122" type="curve"/>
      <point x="335" y="-75"/>
      <point x="339" y="16"/>
      <point x="346" y="61" type="curve" smooth="yes"/>
    </contour>
    <contour>
      <point x="292" y="70" type="line" smooth="yes"/>
      <point x="277" y="-40"/>
      <point x="292" y="-171"/>
      <point x="218" y="-171" type="curve" smooth="yes"/>
      <point x="199" y="-171"/>
      <point x="190" y="-157"/>
      <point x="190" y="-141" type="curve" smooth="yes"/>
      <point x="190" y="-127"/>
      <point x="198" y="-110"/>
      <point x="211" y="-103" type="curve"/>
      <point x="206" y="-75"/>
      <point x="182" y="-61"/>
      <point x="157" y="-61" type="curve" smooth="yes"/>
      <point x="124" y="-61"/>
      <point x="88" y="-85"/>
      <point x="88" y="-135" type="curve" smooth="yes"/>
      <point x="88" y="-191"/>
      <point x="142" y="-219"/>
      <point x="208" y="-219" type="curve" smooth="yes"/>
      <point x="390" y="-219"/>
      <point x="420" y="-55"/>
      <point x="438" y="59" type="curve" smooth="yes"/>
      <point x="525" y="598" type="line"/>
      <point x="547" y="614"/>
      <point x="564" y="620"/>
      <point x="596" y="626" type="curve"/>
      <point x="602" y="667" type="line"/>
      <point x="387" y="667" type="line" smooth="yes"/>
      <point x="236" y="667"/>
      <point x="112" y="610"/>
      <point x="112" y="458" type="curve" smooth="yes"/>
      <point x="112" y="356"/>
      <point x="200" y="315"/>
      <point x="330" y="315" type="curve"/>
    </contour>
  </outline>
</glyph>
<glyph name="periodcentered" format="1">
  <advance width="270"/>
  <unicode hex="00B7"/>
  <outline>
    <contour>
      <point x="161" y="377" type="curve" smooth="yes"/>
      <point x="108" y="377"/>
      <point x="75" y="339"/>
      <point x="75" y="286" type="curve" smooth="yes"/>
      <point x="75" y="251"/>
      <point x="97" y="224"/>
      <point x="132" y="224" type="curve" smooth="yes"/>
      <point x="185" y="224"/>
      <point x="218" y="262"/>
      <point x="218" y="315" type="curve" smooth="yes"/>
      <point x="218" y="350"/>
      <point x="196" y="377"/>
    </contour>
  </outline>
</glyph>
<glyph name="cedilla" format="1">
  <advance width="255"/>
  <unicode hex="00B8"/>
  <outline>
    <contour>
      <point x="30" y="-49" type="line"/>
      <point x="47" y="-73" type="line"/>
      <point x="76" y="-76"/>
      <point x="99" y="-88"/>
      <point x="99" y="-117" type="curve" smooth="yes"/>
      <point x="99" y="-148"/>
      <point x="81" y="-168"/>
      <point x="55" y="-168" type="curve" smooth="yes"/>
      <point x="38" y="-168"/>
      <point x="29" y="-151"/>
      <point x="29" y="-133" type="curve" smooth="yes"/>
      <point x="29" y="-119"/>
      <point x="35" y="-105"/>
      <point x="44" y="-96" type="curve"/>
      <point x="31" y="-89"/>
      <point x="23" y="-87"/>
      <point x="14" y="-87" type="curve" smooth="yes"/>
      <point x="-19" y="-87"/>
      <point x="-40" y="-111"/>
      <point x="-40" y="-139" type="curve" smooth="yes"/>
      <point x="-40" y="-172"/>
      <point x="-15" y="-210"/>
      <point x="52" y="-210" type="curve" smooth="yes"/>
      <point x="119" y="-210"/>
      <point x="175" y="-164"/>
      <point x="175" y="-105" type="curve" smooth="yes"/>
      <point x="175" y="-67"/>
      <point x="152" y="-50"/>
      <point x="117" y="-39" type="curve"/>
      <point x="132" y="7" type="line"/>
      <point x="95" y="16" type="line"/>
    </contour>
  </outline>
</glyph>
<glyph name="onesuperior" format="1">
  <advance width="426"/>
  <unicode hex="00B9"/>
  <outline>
    <contour>
      <point x="59" y="405" type="line"/>
      <point x="337" y="405" type="line"/>
      <point x="346" y="444" type="line"/>
      <point x="330" y="445"/>
      <point x="284" y="452"/>
      <point x="265" y="460" type="curve"/>
      <point x="320" y="807" type="line"/>
      <point x="296" y="817" type="line"/>
      <point x="248" y="799"/>
      <point x="178" y="787"/>
      <point x="122" y="784" type="curve"/>
      <point x="115" y="739" type="line"/>
      <point x="204" y="739" type="line"/>
      <point x="160" y="461" type="line"/>
      <point x="139" y="453"/>
      <point x="106" y="447"/>
      <point x="67" y="443" type="curve"/>
    </contour>
  </outline>
</glyph>
<glyph name="ordmasculine" format="1">
  <advance width="424"/>
  <unicode hex="00BA"/>
  <outline>
    <contour>
      <point x="401" y="292" type="line"/>
      <point x="65" y="292" type="line"/>
      <point x="56" y="231" type="line"/>
      <point x="392" y="231" type="line"/>
    </contour>
    <contour>
      <point x="209" y="458" type="curve" smooth="yes"/>
      <point x="209" y="546"/>
      <point x="246" y="623"/>
      <point x="288" y="623" type="curve" smooth="yes"/>
      <point x="315" y="623"/>
      <point x="328" y="601"/>
      <point x="328" y="554" type="curve" smooth="yes"/>
      <point x="328" y="464"/>
      <point x="292" y="388"/>
      <point x="250" y="388" type="curve" smooth="yes"/>
      <point x="222" y="388"/>
      <point x="209" y="410"/>
    </contour>
    <contour>
      <point x="97" y="473" type="curve" smooth="yes"/>
      <point x="97" y="385"/>
      <point x="147" y="339"/>
      <point x="243" y="339" type="curve" smooth="yes"/>
      <point x="370" y="339"/>
      <point x="441" y="411"/>
      <point x="441" y="539" type="curve" smooth="yes"/>
      <point x="441" y="626"/>
      <point x="391" y="672"/>
      <point x="295" y="672" type="curve" smooth="yes"/>
      <point x="168" y="672"/>
      <point x="97" y="601"/>
    </contour>
  </outline>
</glyph>
<glyph name="guillemotright" format="1">
  <advance width="512"/>
  <unicode hex="00BB"/>
  <outline>
    <contour>
      <point x="235" y="55" type="line"/>
      <point x="262" y="31" type="line"/>
      <point x="482" y="222" type="line"/>
      <point x="488" y="258" type="line"/>
      <point x="328" y="450" type="line"/>
      <point x="293" y="426" type="line"/>
      <point x="361" y="240" type="line"/>
    </contour>
    <contour>
      <point x="10" y="55" type="line"/>
      <point x="37" y="31" type="line"/>
      <point x="257" y="222" type="line"/>
      <point x="263" y="258" type="line"/>
      <point x="103" y="450" type="line"/>
      <point x="68" y="426" type="line"/>
      <point x="136" y="240" type="line"/>
    </contour>
  </outline>
</glyph>
<glyph name="onequarter" format="1">
  <advance width="972"/>
  <unicode hex="00BC"/>
  <outline>
    <contour>
      <point x="96" y="257" type="line"/>
      <point x="374" y="257" type="line"/>
      <point x="383" y="296" type="line"/>
      <point x="367" y="297"/>
      <point x="320" y="304"/>
      <point x="301" y="312" type="curve"/>
      <point x="356" y="659" type="line"/>
      <point x="333" y="669" type="line"/>
      <point x="284" y="651"/>
      <point x="214" y="639"/>
      <point x="159" y="636" type="curve"/>
      <point x="152" y="591" type="line"/>
      <point x="241" y="591" type="line"/>
      <point x="197" y="313" type="line"/>
      <point x="175" y="305"/>
      <point x="142" y="299"/>
      <point x="104" y="295" type="curve"/>
    </contour>
    <contour>
      <point x="317" y="-30" type="line"/>
      <point x="746" y="652" type="line"/>
      <point x="685" y="684" type="line"/>
      <point x="256" y="2" type="line"/>
    </contour>
    <contour>
      <point x="722" y="111" type="line"/>
      <point x="711" y="44" type="line"/>
      <point x="694" y="36"/>
      <point x="674" y="32"/>
      <point x="653" y="30" type="curve"/>
      <point x="643" y="0" type="line"/>
      <point x="851" y="0" type="line"/>
      <point x="860" y="30" type="line"/>
      <point x="841" y="32"/>
      <point x="822" y="36"/>
      <point x="807" y="44" type="curve"/>
      <point x="818" y="112" type="line"/>
      <point x="877" y="112" type="line"/>
      <point x="885" y="164" type="line"/>
      <point x="826" y="164" type="line"/>
      <point x="866" y="416" type="line"/>
      <point x="765" y="416" type="line"/>
      <point x="544" y="136" type="line"/>
      <point x="545" y="111" type="line"/>
    </contour>
    <contour>
      <point x="752" y="301" type="line"/>
      <point x="730" y="163" type="line"/>
      <point x="646" y="163" type="line"/>
    </contour>
  </outline>
</glyph>
<glyph name="onehalf" format="1">
  <advance width="972"/>
  <unicode hex="00BD"/>
  <outline>
    <contour>
      <point x="725" y="66" type="line"/>
      <point x="872" y="173"/>
      <point x="928" y="240"/>
      <point x="928" y="310" type="curve" smooth="yes"/>
      <point x="928" y="349"/>
      <point x="910" y="381"/>
      <point x="875" y="397" type="curve" smooth="yes"/>
      <point x="853" y="408"/>
      <point x="826" y="414"/>
      <point x="792" y="414" type="curve" smooth="yes"/>
      <point x="693" y="414"/>
      <point x="625" y="364"/>
      <point x="625" y="302" type="curve" smooth="yes"/>
      <point x="625" y="269"/>
      <point x="649" y="254"/>
      <point x="677" y="254" type="curve" smooth="yes"/>
      <point x="696" y="254"/>
      <point x="719" y="262"/>
      <point x="740" y="278" type="curve"/>
      <point x="733" y="289"/>
      <point x="729" y="300"/>
      <point x="729" y="309" type="curve" smooth="yes"/>
      <point x="729" y="338"/>
      <point x="751" y="369"/>
      <point x="782" y="369" type="curve" smooth="yes"/>
      <point x="808" y="369"/>
      <point x="820" y="352"/>
      <point x="820" y="325" type="curve" smooth="yes"/>
      <point x="820" y="245"/>
      <point x="770" y="183"/>
      <point x="582" y="39" type="curve"/>
      <point x="576" y="-3" type="line"/>
      <point x="884" y="-3" type="line"/>
      <point x="894" y="66" type="line"/>
    </contour>
    <contour>
      <point x="96" y="257" type="line"/>
      <point x="374" y="257" type="line"/>
      <point x="383" y="296" type="line"/>
      <point x="367" y="297"/>
      <point x="320" y="304"/>
      <point x="301" y="312" type="curve"/>
      <point x="356" y="659" type="line"/>
      <point x="333" y="669" type="line"/>
      <point x="284" y="651"/>
      <point x="214" y="639"/>
      <point x="159" y="636" type="curve"/>
      <point x="152" y="591" type="line"/>
      <point x="241" y="591" type="line"/>
      <point x="197" y="313" type="line"/>
      <point x="175" y="305"/>
      <point x="142" y="299"/>
      <point x="104" y="295" type="curve"/>
    </contour>
    <contour>
      <point x="317" y="-30" type="line"/>
      <point x="746" y="652" type="line"/>
      <point x="685" y="684" type="line"/>
      <point x="256" y="2" type="line"/>
    </contour>
  </outline>
</glyph>
<glyph name="threequarters" format="1">
  <advance width="972"/>
  <unicode hex="00BE"/>
  <outline>
    <contour>
      <point x="185" y="448" type="line"/>
      <point x="246" y="448"/>
      <point x="280" y="424"/>
      <point x="280" y="382" type="curve" smooth="yes"/>
      <point x="280" y="330"/>
      <point x="255" y="305"/>
      <point x="214" y="305" type="curve" smooth="yes"/>
      <point x="184" y="305"/>
      <point x="171" y="319"/>
      <point x="171" y="338" type="curve" smooth="yes"/>
      <point x="171" y="346"/>
      <point x="174" y="358"/>
      <point x="184" y="372" type="curve"/>
      <point x="168" y="385"/>
      <point x="152" y="392"/>
      <point x="136" y="392" type="curve" smooth="yes"/>
      <point x="103" y="392"/>
      <point x="72" y="371"/>
      <point x="72" y="331" type="curve" smooth="yes"/>
      <point x="72" y="280"/>
      <point x="133" y="252"/>
      <point x="206" y="252" type="curve" smooth="yes"/>
      <point x="292" y="252"/>
      <point x="397" y="294"/>
      <point x="397" y="390" type="curve" smooth="yes"/>
      <point x="397" y="430"/>
      <point x="378" y="459"/>
      <point x="327" y="473" type="curve"/>
      <point x="387" y="495"/>
      <point x="416" y="532"/>
      <point x="416" y="579" type="curve" smooth="yes"/>
      <point x="416" y="635"/>
      <point x="364" y="674"/>
      <point x="281" y="674" type="curve" smooth="yes"/>
      <point x="215" y="674"/>
      <point x="114" y="644"/>
      <point x="114" y="571" type="curve" smooth="yes"/>
      <point x="114" y="544"/>
      <point x="131" y="523"/>
      <point x="166" y="523" type="curve" smooth="yes"/>
      <point x="184" y="523"/>
      <point x="204" y="530"/>
      <point x="221" y="545" type="curve"/>
      <point x="218" y="553"/>
      <point x="216" y="564"/>
      <point x="216" y="573" type="curve" smooth="yes"/>
      <point x="216" y="599"/>
      <point x="233" y="629"/>
      <point x="270" y="629" type="curve" smooth="yes"/>
      <point x="290" y="629"/>
      <point x="304" y="616"/>
      <point x="304" y="584" type="curve" smooth="yes"/>
      <point x="304" y="526"/>
      <point x="263" y="501"/>
      <point x="192" y="495" type="curve"/>
    </contour>
    <contour>
      <point x="722" y="111" type="line"/>
      <point x="711" y="44" type="line"/>
      <point x="694" y="36"/>
      <point x="674" y="32"/>
      <point x="653" y="30" type="curve"/>
      <point x="643" y="0" type="line"/>
      <point x="851" y="0" type="line"/>
      <point x="860" y="30" type="line"/>
      <point x="841" y="32"/>
      <point x="822" y="36"/>
      <point x="807" y="44" type="curve"/>
      <point x="818" y="112" type="line"/>
      <point x="877" y="112" type="line"/>
      <point x="885" y="164" type="line"/>
      <point x="826" y="164" type="line"/>
      <point x="866" y="416" type="line"/>
      <point x="765" y="416" type="line"/>
      <point x="544" y="136" type="line"/>
      <point x="545" y="111" type="line"/>
    </contour>
    <contour>
      <point x="752" y="301" type="line"/>
      <point x="730" y="163" type="line"/>
      <point x="646" y="163" type="line"/>
    </contour>
    <contour>
      <point x="317" y="-30" type="line"/>
      <point x="746" y="652" type="line"/>
      <point x="685" y="684" type="line"/>
      <point x="256" y="2" type="line"/>
    </contour>
  </outline>
</glyph>
<glyph name="questiondown" format="1">
  <advance width="438"/>
  <unicode hex="00BF"/>
  <outline>
    <contour>
      <point x="311" y="216" type="curve" smooth="yes"/>
      <point x="311" y="263"/>
      <point x="281" y="285"/>
      <point x="245" y="285" type="curve" smooth="yes"/>
      <point x="223" y="285"/>
      <point x="199" y="276"/>
      <point x="176" y="260" type="curve"/>
      <point x="181" y="244"/>
      <point x="184" y="226"/>
      <point x="184" y="213" type="curve" smooth="yes"/>
      <point x="184" y="106"/>
      <point x="-14" y="79"/>
      <point x="-14" y="-84" type="curve" smooth="yes"/>
      <point x="-14" y="-163"/>
      <point x="49" y="-201"/>
      <point x="151" y="-201" type="curve" smooth="yes"/>
      <point x="253" y="-201"/>
      <point x="357" y="-156"/>
      <point x="357" y="-78" type="curve" smooth="yes"/>
      <point x="357" y="-34"/>
      <point x="323" y="-12"/>
      <point x="287" y="-12" type="curve" smooth="yes"/>
      <point x="256" y="-12"/>
      <point x="223" y="-28"/>
      <point x="206" y="-58" type="curve"/>
      <point x="223" y="-73"/>
      <point x="228" y="-88"/>
      <point x="228" y="-103" type="curve" smooth="yes"/>
      <point x="228" y="-137"/>
      <point x="198" y="-155"/>
      <point x="169" y="-155" type="curve" smooth="yes"/>
      <point x="143" y="-155"/>
      <point x="117" y="-137"/>
      <point x="117" y="-97" type="curve" smooth="yes"/>
      <point x="117" y="66"/>
      <point x="311" y="76"/>
    </contour>
    <contour>
      <point x="280" y="488" type="curve" smooth="yes"/>
      <point x="233" y="488"/>
      <point x="204" y="455"/>
      <point x="204" y="408" type="curve" smooth="yes"/>
      <point x="204" y="376"/>
      <point x="224" y="352"/>
      <point x="255" y="352" type="curve" smooth="yes"/>
      <point x="302" y="352"/>
      <point x="331" y="386"/>
      <point x="331" y="433" type="curve" smooth="yes"/>
      <point x="331" y="464"/>
      <point x="312" y="488"/>
    </contour>
  </outline>
</glyph>
<glyph name="Agrave" format="1">
  <advance width="614"/>
  <unicode hex="00C0"/>
  <outline>
    <contour>
      <point x="396" y="65" type="line"/>
      <point x="384" y="52"/>
      <point x="359" y="44"/>
      <point x="330" y="40" type="curve"/>
      <point x="324" y="0" type="line"/>
      <point x="600" y="0" type="line"/>
      <point x="604" y="40" type="line"/>
      <point x="581" y="44"/>
      <point x="559" y="53"/>
      <point x="550" y="74" type="curve"/>
      <point x="429" y="667" type="line"/>
      <point x="325" y="667" type="line"/>
      <point x="16" y="65" type="line"/>
      <point x="1" y="48"/>
      <point x="-24" y="42"/>
      <point x="-50" y="40" type="curve"/>
      <point x="-55" y="0" type="line"/>
      <point x="171" y="0" type="line"/>
      <point x="176" y="40" type="line"/>
      <point x="143" y="44"/>
      <point x="113" y="54"/>
      <point x="96" y="70" type="curve"/>
      <point x="166" y="208" type="line"/>
      <point x="372" y="208" type="line"/>
    </contour>
    <contour>
      <point x="321" y="511" type="line"/>
      <point x="361" y="271" type="line"/>
      <point x="198" y="271" type="line"/>
    </contour>
    <contour>
      <point x="394" y="699" type="line"/>
      <point x="433" y="732" type="line"/>
      <point x="372" y="851" type="line" smooth="yes"/>
      <point x="359" y="876"/>
      <point x="338" y="885"/>
      <point x="320" y="885" type="curve" smooth="yes"/>
      <point x="290" y="885"/>
      <point x="266" y="863"/>
      <point x="266" y="831" type="curve" smooth="yes"/>
      <point x="266" y="815"/>
      <point x="272" y="796"/>
      <point x="290" y="782" type="curve" smooth="yes"/>
    </contour>
  </outline>
</glyph>
<glyph name="Aacute" format="1">
  <advance width="614"/>
  <unicode hex="00C1"/>
  <outline>
    <contour>
      <point x="396" y="65" type="line"/>
      <point x="384" y="52"/>
      <point x="359" y="44"/>
      <point x="330" y="40" type="curve"/>
      <point x="324" y="0" type="line"/>
      <point x="600" y="0" type="line"/>
      <point x="604" y="40" type="line"/>
      <point x="581" y="44"/>
      <point x="559" y="53"/>
      <point x="550" y="74" type="curve"/>
      <point x="429" y="667" type="line"/>
      <point x="325" y="667" type="line"/>
      <point x="16" y="65" type="line"/>
      <point x="1" y="48"/>
      <point x="-24" y="42"/>
      <point x="-50" y="40" type="curve"/>
      <point x="-55" y="0" type="line"/>
      <point x="171" y="0" type="line"/>
      <point x="176" y="40" type="line"/>
      <point x="143" y="44"/>
      <point x="113" y="54"/>
      <point x="96" y="70" type="curve"/>
      <point x="166" y="208" type="line"/>
      <point x="372" y="208" type="line"/>
    </contour>
    <contour>
      <point x="321" y="511" type="line"/>
      <point x="361" y="271" type="line"/>
      <point x="198" y="271" type="line"/>
    </contour>
    <contour>
      <point x="500" y="797" type="line" smooth="yes"/>
      <point x="525" y="813"/>
      <point x="535" y="832"/>
      <point x="535" y="850" type="curve" smooth="yes"/>
      <point x="535" y="875"/>
      <point x="515" y="896"/>
      <point x="489" y="896" type="curve" smooth="yes"/>
      <point x="472" y="896"/>
      <point x="452" y="887"/>
      <point x="433" y="864" type="curve" smooth="yes"/>
      <point x="339" y="747" type="line"/>
      <point x="369" y="713" type="line"/>
    </contour>
  </outline>
</glyph>
<glyph name="Acircumflex" format="1">
  <advance width="614"/>
  <unicode hex="00C2"/>
  <outline>
    <contour>
      <point x="396" y="65" type="line"/>
      <point x="384" y="52"/>
      <point x="359" y="44"/>
      <point x="330" y="40" type="curve"/>
      <point x="324" y="0" type="line"/>
      <point x="600" y="0" type="line"/>
      <point x="604" y="40" type="line"/>
      <point x="581" y="44"/>
      <point x="559" y="53"/>
      <point x="550" y="74" type="curve"/>
      <point x="429" y="667" type="line"/>
      <point x="325" y="667" type="line"/>
      <point x="16" y="65" type="line"/>
      <point x="1" y="48"/>
      <point x="-24" y="42"/>
      <point x="-50" y="40" type="curve"/>
      <point x="-55" y="0" type="line"/>
      <point x="171" y="0" type="line"/>
      <point x="176" y="40" type="line"/>
      <point x="143" y="44"/>
      <point x="113" y="54"/>
      <point x="96" y="70" type="curve"/>
      <point x="166" y="208" type="line"/>
      <point x="372" y="208" type="line"/>
    </contour>
    <contour>
      <point x="321" y="511" type="line"/>
      <point x="361" y="271" type="line"/>
      <point x="198" y="271" type="line"/>
    </contour>
    <contour>
      <point x="508" y="706" type="line"/>
      <point x="543" y="743" type="line"/>
      <point x="465" y="850" type="line" smooth="yes"/>
      <point x="451" y="869"/>
      <point x="440" y="877"/>
      <point x="419" y="877" type="curve" smooth="yes"/>
      <point x="395" y="877"/>
      <point x="377" y="869"/>
      <point x="357" y="850" type="curve" smooth="yes"/>
      <point x="245" y="743" type="line"/>
      <point x="268" y="706" type="line"/>
      <point x="400" y="779" type="line"/>
    </contour>
  </outline>
</glyph>
<glyph name="Atilde" format="1">
  <advance width="614"/>
  <unicode hex="00C3"/>
  <outline>
    <contour>
      <point x="396" y="65" type="line"/>
      <point x="384" y="52"/>
      <point x="359" y="44"/>
      <point x="330" y="40" type="curve"/>
      <point x="324" y="0" type="line"/>
      <point x="600" y="0" type="line"/>
      <point x="604" y="40" type="line"/>
      <point x="581" y="44"/>
      <point x="559" y="53"/>
      <point x="550" y="74" type="curve"/>
      <point x="429" y="667" type="line"/>
      <point x="325" y="667" type="line"/>
      <point x="16" y="65" type="line"/>
      <point x="1" y="48"/>
      <point x="-24" y="42"/>
      <point x="-50" y="40" type="curve"/>
      <point x="-55" y="0" type="line"/>
      <point x="171" y="0" type="line"/>
      <point x="176" y="40" type="line"/>
      <point x="143" y="44"/>
      <point x="113" y="54"/>
      <point x="96" y="70" type="curve"/>
      <point x="166" y="208" type="line"/>
      <point x="372" y="208" type="line"/>
    </contour>
    <contour>
      <point x="321" y="511" type="line"/>
      <point x="361" y="271" type="line"/>
      <point x="198" y="271" type="line"/>
    </contour>
    <contour>
      <point x="457" y="814" type="curve" smooth="yes"/>
      <point x="417" y="814"/>
      <point x="382" y="854"/>
      <point x="342" y="854" type="curve" smooth="yes"/>
      <point x="296" y="854"/>
      <point x="252" y="816"/>
      <point x="217" y="760" type="curve"/>
      <point x="228" y="745"/>
      <point x="251" y="733"/>
      <point x="265" y="728" type="curve"/>
      <point x="286" y="752"/>
      <point x="309" y="766"/>
      <point x="329" y="766" type="curve" smooth="yes"/>
      <point x="369" y="766"/>
      <point x="405" y="727"/>
      <point x="445" y="727" type="curve" smooth="yes"/>
      <point x="491" y="727"/>
      <point x="535" y="766"/>
      <point x="569" y="822" type="curve"/>
      <point x="558" y="836"/>
      <point x="535" y="848"/>
      <point x="521" y="853" type="curve"/>
      <point x="501" y="830"/>
      <point x="477" y="814"/>
    </contour>
  </outline>
</glyph>
<glyph name="Adieresis" format="1">
  <advance width="614"/>
  <unicode hex="00C4"/>
  <outline>
    <contour>
      <point x="396" y="65" type="line"/>
      <point x="384" y="52"/>
      <point x="359" y="44"/>
      <point x="330" y="40" type="curve"/>
      <point x="324" y="0" type="line"/>
      <point x="600" y="0" type="line"/>
      <point x="604" y="40" type="line"/>
      <point x="581" y="44"/>
      <point x="559" y="53"/>
      <point x="550" y="74" type="curve"/>
      <point x="429" y="667" type="line"/>
      <point x="325" y="667" type="line"/>
      <point x="16" y="65" type="line"/>
      <point x="1" y="48"/>
      <point x="-24" y="42"/>
      <point x="-50" y="40" type="curve"/>
      <point x="-55" y="0" type="line"/>
      <point x="171" y="0" type="line"/>
      <point x="176" y="40" type="line"/>
      <point x="143" y="44"/>
      <point x="113" y="54"/>
      <point x="96" y="70" type="curve"/>
      <point x="166" y="208" type="line"/>
      <point x="372" y="208" type="line"/>
    </contour>
    <contour>
      <point x="321" y="511" type="line"/>
      <point x="361" y="271" type="line"/>
      <point x="198" y="271" type="line"/>
    </contour>
    <contour>
      <point x="310" y="729" type="curve" smooth="yes"/>
      <point x="353" y="729"/>
      <point x="382" y="759"/>
      <point x="382" y="809" type="curve" smooth="yes"/>
      <point x="382" y="841"/>
      <point x="361" y="862"/>
      <point x="326" y="862" type="curve" smooth="yes"/>
      <point x="283" y="862"/>
      <point x="254" y="833"/>
      <point x="254" y="783" type="curve" smooth="yes"/>
      <point x="254" y="750"/>
      <point x="275" y="729"/>
    </contour>
    <contour>
      <point x="473" y="729" type="curve" smooth="yes"/>
      <point x="516" y="729"/>
      <point x="545" y="759"/>
      <point x="545" y="809" type="curve" smooth="yes"/>
      <point x="545" y="841"/>
      <point x="524" y="862"/>
      <point x="489" y="862" type="curve" smooth="yes"/>
      <point x="446" y="862"/>
      <point x="417" y="833"/>
      <point x="417" y="783" type="curve" smooth="yes"/>
      <point x="417" y="750"/>
      <point x="438" y="729"/>
    </contour>
  </outline>
</glyph>
<glyph name="Aring" format="1">
  <advance width="614"/>
  <unicode hex="00C5"/>
  <outline>
    <contour>
      <point x="396" y="65" type="line"/>
      <point x="384" y="52"/>
      <point x="359" y="44"/>
      <point x="330" y="40" type="curve"/>
      <point x="324" y="0" type="line"/>
      <point x="600" y="0" type="line"/>
      <point x="604" y="40" type="line"/>
      <point x="581" y="44"/>
      <point x="559" y="53"/>
      <point x="550" y="74" type="curve"/>
      <point x="429" y="667" type="line"/>
      <point x="325" y="667" type="line"/>
      <point x="16" y="65" type="line"/>
      <point x="1" y="48"/>
      <point x="-24" y="42"/>
      <point x="-50" y="40" type="curve"/>
      <point x="-55" y="0" type="line"/>
      <point x="171" y="0" type="line"/>
      <point x="176" y="40" type="line"/>
      <point x="143" y="44"/>
      <point x="113" y="54"/>
      <point x="96" y="70" type="curve"/>
      <point x="166" y="208" type="line"/>
      <point x="372" y="208" type="line"/>
    </contour>
    <contour>
      <point x="321" y="511" type="line"/>
      <point x="361" y="271" type="line"/>
      <point x="198" y="271" type="line"/>
    </contour>
    <contour>
      <point x="289" y="792" type="curve" smooth="yes"/>
      <point x="289" y="742"/>
      <point x="324" y="704"/>
      <point x="386" y="704" type="curve" smooth="yes"/>
      <point x="462" y="704"/>
      <point x="516" y="756"/>
      <point x="516" y="820" type="curve" smooth="yes"/>
      <point x="516" y="870"/>
      <point x="481" y="909"/>
      <point x="418" y="909" type="curve" smooth="yes"/>
      <point x="342" y="909"/>
      <point x="289" y="855"/>
    </contour>
    <contour>
      <point x="361" y="792" type="curve" smooth="yes"/>
      <point x="361" y="826"/>
      <point x="375" y="862"/>
      <point x="411" y="862" type="curve" smooth="yes"/>
      <point x="435" y="862"/>
      <point x="444" y="843"/>
      <point x="444" y="819" type="curve" smooth="yes"/>
      <point x="444" y="784"/>
      <point x="429" y="751"/>
      <point x="393" y="751" type="curve" smooth="yes"/>
      <point x="370" y="751"/>
      <point x="361" y="769"/>
    </contour>
  </outline>
</glyph>
<glyph name="Ccedilla" format="1">
  <advance width="552"/>
  <unicode hex="00C7"/>
  <outline>
    <contour>
      <point x="208" y="-49" type="line"/>
      <point x="225" y="-73" type="line"/>
      <point x="254" y="-76"/>
      <point x="277" y="-88"/>
      <point x="277" y="-117" type="curve" smooth="yes"/>
      <point x="277" y="-148"/>
      <point x="259" y="-168"/>
      <point x="233" y="-168" type="curve" smooth="yes"/>
      <point x="216" y="-168"/>
      <point x="207" y="-151"/>
      <point x="207" y="-133" type="curve" smooth="yes"/>
      <point x="207" y="-119"/>
      <point x="213" y="-105"/>
      <point x="222" y="-96" type="curve"/>
      <point x="209" y="-89"/>
      <point x="201" y="-87"/>
      <point x="192" y="-87" type="curve" smooth="yes"/>
      <point x="159" y="-87"/>
      <point x="138" y="-111"/>
      <point x="138" y="-139" type="curve" smooth="yes"/>
      <point x="138" y="-172"/>
      <point x="163" y="-210"/>
      <point x="230" y="-210" type="curve" smooth="yes"/>
      <point x="297" y="-210"/>
      <point x="353" y="-164"/>
      <point x="353" y="-105" type="curve" smooth="yes"/>
      <point x="353" y="-67"/>
      <point x="330" y="-50"/>
      <point x="295" y="-39" type="curve"/>
      <point x="304" y="-9" type="line"/>
      <point x="376" y="-4"/>
      <point x="456" y="36"/>
      <point x="525" y="101" type="curve"/>
      <point x="497" y="133" type="line"/>
      <point x="443" y="84"/>
      <point x="386" y="58"/>
      <point x="333" y="58" type="curve" smooth="yes"/>
      <point x="248" y="58"/>
      <point x="212" y="127"/>
      <point x="212" y="246" type="curve" smooth="yes"/>
      <point x="212" y="407"/>
      <point x="255" y="621"/>
      <point x="384" y="621" type="curve" smooth="yes"/>
      <point x="421" y="621"/>
      <point x="443" y="599"/>
      <point x="443" y="565" type="curve" smooth="yes"/>
      <point x="443" y="544"/>
      <point x="433" y="522"/>
      <point x="418" y="502" type="curve"/>
      <point x="426" y="475"/>
      <point x="455" y="456"/>
      <point x="487" y="456" type="curve" smooth="yes"/>
      <point x="537" y="456"/>
      <point x="582" y="501"/>
      <point x="582" y="555" type="curve" smooth="yes"/>
      <point x="582" y="626"/>
      <point x="509" y="674"/>
      <point x="397" y="674" type="curve" smooth="yes"/>
      <point x="165" y="674"/>
      <point x="47" y="511"/>
      <point x="47" y="249" type="curve" smooth="yes"/>
      <point x="47" y="95"/>
      <point x="116" y="6"/>
      <point x="249" y="-8" type="curve"/>
    </contour>
  </outline>
</glyph>
<glyph name="Eacute" format="1">
  <advance width="562"/>
  <unicode hex="00C9"/>
  <outline>
    <contour>
      <point x="79" y="626" type="line"/>
      <point x="107" y="622"/>
      <point x="134" y="610"/>
      <point x="145" y="596" type="curve"/>
      <point x="62" y="71" type="line"/>
      <point x="41" y="55"/>
      <point x="23" y="46"/>
      <point x="-10" y="41" type="curve"/>
      <point x="-15" y="0" type="line"/>
      <point x="485" y="0" type="line"/>
      <point x="525" y="188" type="line"/>
      <point x="518" y="190"/>
      <point x="510" y="191"/>
      <point x="503" y="191" type="curve" smooth="yes"/>
      <point x="484" y="191"/>
      <point x="471" y="188"/>
      <point x="457" y="184" type="curve"/>
      <point x="446" y="153"/>
      <point x="425" y="101"/>
      <point x="394" y="62" type="curve"/>
      <point x="207" y="62" type="line"/>
      <point x="247" y="314" type="line"/>
      <point x="335" y="310" type="line" smooth="yes"/>
      <point x="358" y="309"/>
      <point x="370" y="290"/>
      <point x="380" y="236" type="curve"/>
      <point x="422" y="236" type="line"/>
      <point x="455" y="443" type="line"/>
      <point x="413" y="443" type="line"/>
      <point x="397" y="404"/>
      <point x="371" y="377"/>
      <point x="347" y="376" type="curve" smooth="yes"/>
      <point x="256" y="372" type="line"/>
      <point x="294" y="606" type="line"/>
      <point x="463" y="606" type="line"/>
      <point x="480" y="572"/>
      <point x="484" y="528"/>
      <point x="485" y="499" type="curve"/>
      <point x="492" y="497"/>
      <point x="500" y="496"/>
      <point x="507" y="496" type="curve" smooth="yes"/>
      <point x="526" y="496"/>
      <point x="539" y="499"/>
      <point x="553" y="503" type="curve"/>
      <point x="575" y="667" type="line"/>
      <point x="85" y="667" type="line"/>
    </contour>
    <contour>
      <point x="468" y="797" type="line" smooth="yes"/>
      <point x="493" y="813"/>
      <point x="503" y="832"/>
      <point x="503" y="850" type="curve" smooth="yes"/>
      <point x="503" y="875"/>
      <point x="483" y="896"/>
      <point x="457" y="896" type="curve" smooth="yes"/>
      <point x="440" y="896"/>
      <point x="420" y="887"/>
      <point x="401" y="864" type="curve" smooth="yes"/>
      <point x="307" y="747" type="line"/>
      <point x="337" y="713" type="line"/>
    </contour>
  </outline>
</glyph>
<glyph name="Edieresis" format="1">
  <advance width="562"/>
  <unicode hex="00CB"/>
  <outline>
    <contour>
      <point x="79" y="626" type="line"/>
      <point x="107" y="622"/>
      <point x="134" y="610"/>
      <point x="145" y="596" type="curve"/>
      <point x="62" y="71" type="line"/>
      <point x="41" y="55"/>
      <point x="23" y="46"/>
      <point x="-10" y="41" type="curve"/>
      <point x="-15" y="0" type="line"/>
      <point x="485" y="0" type="line"/>
      <point x="525" y="188" type="line"/>
      <point x="518" y="190"/>
      <point x="510" y="191"/>
      <point x="503" y="191" type="curve" smooth="yes"/>
      <point x="484" y="191"/>
      <point x="471" y="188"/>
      <point x="457" y="184" type="curve"/>
      <point x="446" y="153"/>
      <point x="425" y="101"/>
      <point x="394" y="62" type="curve"/>
      <point x="207" y="62" type="line"/>
      <point x="247" y="314" type="line"/>
      <point x="335" y="310" type="line" smooth="yes"/>
      <point x="358" y="309"/>
      <point x="370" y="290"/>
      <point x="380" y="236" type="curve"/>
      <point x="422" y="236" type="line"/>
      <point x="455" y="443" type="line"/>
      <point x="413" y="443" type="line"/>
      <point x="397" y="404"/>
      <point x="371" y="377"/>
      <point x="347" y="376" type="curve" smooth="yes"/>
      <point x="256" y="372" type="line"/>
      <point x="294" y="606" type="line"/>
      <point x="463" y="606" type="line"/>
      <point x="480" y="572"/>
      <point x="484" y="528"/>
      <point x="485" y="499" type="curve"/>
      <point x="492" y="497"/>
      <point x="500" y="496"/>
      <point x="507" y="496" type="curve" smooth="yes"/>
      <point x="526" y="496"/>
      <point x="539" y="499"/>
      <point x="553" y="503" type="curve"/>
      <point x="575" y="667" type="line"/>
      <point x="85" y="667" type="line"/>
    </contour>
    <contour>
      <point x="280" y="729" type="curve" smooth="yes"/>
      <point x="323" y="729"/>
      <point x="352" y="759"/>
      <point x="352" y="809" type="curve" smooth="yes"/>
      <point x="352" y="841"/>
      <point x="331" y="862"/>
      <point x="296" y="862" type="curve" smooth="yes"/>
      <point x="253" y="862"/>
      <point x="224" y="833"/>
      <point x="224" y="783" type="curve" smooth="yes"/>
      <point x="224" y="750"/>
      <point x="245" y="729"/>
    </contour>
    <contour>
      <point x="443" y="729" type="curve" smooth="yes"/>
      <point x="486" y="729"/>
      <point x="515" y="759"/>
      <point x="515" y="809" type="curve" smooth="yes"/>
      <point x="515" y="841"/>
      <point x="494" y="862"/>
      <point x="459" y="862" type="curve" smooth="yes"/>
      <point x="416" y="862"/>
      <point x="387" y="833"/>
      <point x="387" y="783" type="curve" smooth="yes"/>
      <point x="387" y="750"/>
      <point x="408" y="729"/>
    </contour>
  </outline>
</glyph>
<glyph name="Igrave" format="1">
  <advance width="341"/>
  <unicode hex="00CC"/>
  <outline>
    <contour>
      <point x="89" y="626" type="line"/>
      <point x="117" y="622"/>
      <point x="144" y="610"/>
      <point x="155" y="596" type="curve"/>
      <point x="72" y="71" type="line"/>
      <point x="51" y="55"/>
      <point x="33" y="46"/>
      <point x="0" y="41" type="curve"/>
      <point x="-5" y="0" type="line"/>
      <point x="281" y="0" type="line"/>
      <point x="286" y="41" type="line"/>
      <point x="254" y="48"/>
      <point x="232" y="57"/>
      <point x="219" y="71" type="curve"/>
      <point x="302" y="596" type="line"/>
      <point x="325" y="613"/>
      <point x="342" y="620"/>
      <point x="375" y="626" type="curve"/>
      <point x="381" y="667" type="line"/>
      <point x="95" y="667" type="line"/>
    </contour>
    <contour>
      <point x="251" y="699" type="line"/>
      <point x="290" y="732" type="line"/>
      <point x="229" y="851" type="line" smooth="yes"/>
      <point x="216" y="876"/>
      <point x="195" y="885"/>
      <point x="177" y="885" type="curve" smooth="yes"/>
      <point x="147" y="885"/>
      <point x="123" y="863"/>
      <point x="123" y="831" type="curve" smooth="yes"/>
      <point x="123" y="815"/>
      <point x="129" y="796"/>
      <point x="147" y="782" type="curve" smooth="yes"/>
    </contour>
  </outline>
</glyph>
<glyph name="Iacute" format="1">
  <advance width="341"/>
  <unicode hex="00CD"/>
  <outline>
    <contour>
      <point x="89" y="626" type="line"/>
      <point x="117" y="622"/>
      <point x="144" y="610"/>
      <point x="155" y="596" type="curve"/>
      <point x="72" y="71" type="line"/>
      <point x="51" y="55"/>
      <point x="33" y="46"/>
      <point x="0" y="41" type="curve"/>
      <point x="-5" y="0" type="line"/>
      <point x="281" y="0" type="line"/>
      <point x="286" y="41" type="line"/>
      <point x="254" y="48"/>
      <point x="232" y="57"/>
      <point x="219" y="71" type="curve"/>
      <point x="302" y="596" type="line"/>
      <point x="325" y="613"/>
      <point x="342" y="620"/>
      <point x="375" y="626" type="curve"/>
      <point x="381" y="667" type="line"/>
      <point x="95" y="667" type="line"/>
    </contour>
    <contour>
      <point x="357" y="797" type="line" smooth="yes"/>
      <point x="382" y="813"/>
      <point x="392" y="832"/>
      <point x="392" y="850" type="curve" smooth="yes"/>
      <point x="392" y="875"/>
      <point x="372" y="896"/>
      <point x="346" y="896" type="curve" smooth="yes"/>
      <point x="329" y="896"/>
      <point x="309" y="887"/>
      <point x="290" y="864" type="curve" smooth="yes"/>
      <point x="196" y="747" type="line"/>
      <point x="226" y="713" type="line"/>
    </contour>
  </outline>
</glyph>
<glyph name="Icircumflex" format="1">
  <advance width="341"/>
  <unicode hex="00CE"/>
  <outline>
    <contour>
      <point x="89" y="626" type="line"/>
      <point x="117" y="622"/>
      <point x="144" y="610"/>
      <point x="155" y="596" type="curve"/>
      <point x="72" y="71" type="line"/>
      <point x="51" y="55"/>
      <point x="33" y="46"/>
      <point x="0" y="41" type="curve"/>
      <point x="-5" y="0" type="line"/>
      <point x="281" y="0" type="line"/>
      <point x="286" y="41" type="line"/>
      <point x="254" y="48"/>
      <point x="232" y="57"/>
      <point x="219" y="71" type="curve"/>
      <point x="302" y="596" type="line"/>
      <point x="325" y="613"/>
      <point x="342" y="620"/>
      <point x="375" y="626" type="curve"/>
      <point x="381" y="667" type="line"/>
      <point x="95" y="667" type="line"/>
    </contour>
    <contour>
      <point x="365" y="706" type="line"/>
      <point x="400" y="743" type="line"/>
      <point x="322" y="850" type="line" smooth="yes"/>
      <point x="308" y="869"/>
      <point x="297" y="877"/>
      <point x="276" y="877" type="curve" smooth="yes"/>
      <point x="252" y="877"/>
      <point x="234" y="869"/>
      <point x="214" y="850" type="curve" smooth="yes"/>
      <point x="102" y="743" type="line"/>
      <point x="125" y="706" type="line"/>
      <point x="257" y="779" type="line"/>
    </contour>
  </outline>
</glyph>
<glyph name="Idieresis" format="1">
  <advance width="341"/>
  <unicode hex="00CF"/>
  <outline>
    <contour>
      <point x="89" y="626" type="line"/>
      <point x="117" y="622"/>
      <point x="144" y="610"/>
      <point x="155" y="596" type="curve"/>
      <point x="72" y="71" type="line"/>
      <point x="51" y="55"/>
      <point x="33" y="46"/>
      <point x="0" y="41" type="curve"/>
      <point x="-5" y="0" type="line"/>
      <point x="281" y="0" type="line"/>
      <point x="286" y="41" type="line"/>
      <point x="254" y="48"/>
      <point x="232" y="57"/>
      <point x="219" y="71" type="curve"/>
      <point x="302" y="596" type="line"/>
      <point x="325" y="613"/>
      <point x="342" y="620"/>
      <point x="375" y="626" type="curve"/>
      <point x="381" y="667" type="line"/>
      <point x="95" y="667" type="line"/>
    </contour>
    <contour>
      <point x="169" y="729" type="curve" smooth="yes"/>
      <point x="212" y="729"/>
      <point x="241" y="759"/>
      <point x="241" y="809" type="curve" smooth="yes"/>
      <point x="241" y="841"/>
      <point x="220" y="862"/>
      <point x="185" y="862" type="curve" smooth="yes"/>
      <point x="142" y="862"/>
      <point x="113" y="833"/>
      <point x="113" y="783" type="curve" smooth="yes"/>
      <point x="113" y="750"/>
      <point x="134" y="729"/>
    </contour>
    <contour>
      <point x="332" y="729" type="curve" smooth="yes"/>
      <point x="375" y="729"/>
      <point x="404" y="759"/>
      <point x="404" y="809" type="curve" smooth="yes"/>
      <point x="404" y="841"/>
      <point x="383" y="862"/>
      <point x="348" y="862" type="curve" smooth="yes"/>
      <point x="305" y="862"/>
      <point x="276" y="833"/>
      <point x="276" y="783" type="curve" smooth="yes"/>
      <point x="276" y="750"/>
      <point x="297" y="729"/>
    </contour>
  </outline>
</glyph>
<glyph name="Ntilde" format="1">
  <advance width="662"/>
  <unicode hex="00D1"/>
  <outline>
    <contour>
      <point x="85" y="626" type="line"/>
      <point x="113" y="622"/>
      <point x="140" y="610"/>
      <point x="151" y="596" type="curve"/>
      <point x="68" y="71" type="line"/>
      <point x="47" y="55"/>
      <point x="29" y="46"/>
      <point x="-4" y="41" type="curve"/>
      <point x="-9" y="0" type="line"/>
      <point x="217" y="0" type="line"/>
      <point x="222" y="41" type="line"/>
      <point x="190" y="48"/>
      <point x="168" y="57"/>
      <point x="155" y="71" type="curve"/>
      <point x="217" y="460" type="line"/>
      <point x="388" y="0" type="line"/>
      <point x="540" y="0" type="line"/>
      <point x="634" y="596" type="line"/>
      <point x="657" y="613"/>
      <point x="674" y="620"/>
      <point x="707" y="626" type="curve"/>
      <point x="713" y="667" type="line"/>
      <point x="487" y="667" type="line"/>
      <point x="481" y="626" type="line"/>
      <point x="509" y="622"/>
      <point x="536" y="610"/>
      <point x="547" y="596" type="curve"/>
      <point x="482" y="183" type="line"/>
      <point x="303" y="667" type="line"/>
      <point x="91" y="667" type="line"/>
    </contour>
    <contour>
      <point x="472" y="814" type="curve" smooth="yes"/>
      <point x="432" y="814"/>
      <point x="397" y="854"/>
      <point x="357" y="854" type="curve" smooth="yes"/>
      <point x="311" y="854"/>
      <point x="267" y="816"/>
      <point x="232" y="760" type="curve"/>
      <point x="243" y="745"/>
      <point x="266" y="733"/>
      <point x="280" y="728" type="curve"/>
      <point x="301" y="752"/>
      <point x="324" y="766"/>
      <point x="344" y="766" type="curve" smooth="yes"/>
      <point x="384" y="766"/>
      <point x="420" y="727"/>
      <point x="460" y="727" type="curve" smooth="yes"/>
      <point x="506" y="727"/>
      <point x="550" y="766"/>
      <point x="584" y="822" type="curve"/>
      <point x="573" y="836"/>
      <point x="550" y="848"/>
      <point x="536" y="853" type="curve"/>
      <point x="516" y="830"/>
      <point x="492" y="814"/>
    </contour>
  </outline>
</glyph>
<glyph name="Ograve" format="1">
  <advance width="675"/>
  <unicode hex="00D2"/>
  <outline>
    <contour>
      <point x="208" y="220" type="curve" smooth="yes"/>
      <point x="208" y="353"/>
      <point x="266" y="620"/>
      <point x="399" y="620" type="curve" smooth="yes"/>
      <point x="489" y="620"/>
      <point x="500" y="540"/>
      <point x="500" y="450" type="curve" smooth="yes"/>
      <point x="500" y="317"/>
      <point x="442" y="50"/>
      <point x="309" y="50" type="curve" smooth="yes"/>
      <point x="219" y="50"/>
      <point x="208" y="130"/>
    </contour>
    <contour>
      <point x="48" y="257" type="curve" smooth="yes"/>
      <point x="48" y="85"/>
      <point x="132" y="-10"/>
      <point x="300" y="-10" type="curve" smooth="yes"/>
      <point x="542" y="-10"/>
      <point x="661" y="155"/>
      <point x="661" y="413" type="curve" smooth="yes"/>
      <point x="661" y="584"/>
      <point x="578" y="678"/>
      <point x="409" y="678" type="curve" smooth="yes"/>
      <point x="170" y="678"/>
      <point x="48" y="516"/>
    </contour>
    <contour>
      <point x="426" y="699" type="line"/>
      <point x="465" y="732" type="line"/>
      <point x="404" y="851" type="line" smooth="yes"/>
      <point x="391" y="876"/>
      <point x="370" y="885"/>
      <point x="352" y="885" type="curve" smooth="yes"/>
      <point x="322" y="885"/>
      <point x="298" y="863"/>
      <point x="298" y="831" type="curve" smooth="yes"/>
      <point x="298" y="815"/>
      <point x="304" y="796"/>
      <point x="322" y="782" type="curve" smooth="yes"/>
    </contour>
  </outline>
</glyph>
<glyph name="Oacute" format="1">
  <advance width="675"/>
  <unicode hex="00D3"/>
  <outline>
    <contour>
      <point x="208" y="220" type="curve" smooth="yes"/>
      <point x="208" y="353"/>
      <point x="266" y="620"/>
      <point x="399" y="620" type="curve" smooth="yes"/>
      <point x="489" y="620"/>
      <point x="500" y="540"/>
      <point x="500" y="450" type="curve" smooth="yes"/>
      <point x="500" y="317"/>
      <point x="442" y="50"/>
      <point x="309" y="50" type="curve" smooth="yes"/>
      <point x="219" y="50"/>
      <point x="208" y="130"/>
    </contour>
    <contour>
      <point x="48" y="257" type="curve" smooth="yes"/>
      <point x="48" y="85"/>
      <point x="132" y="-10"/>
      <point x="300" y="-10" type="curve" smooth="yes"/>
      <point x="542" y="-10"/>
      <point x="661" y="155"/>
      <point x="661" y="413" type="curve" smooth="yes"/>
      <point x="661" y="584"/>
      <point x="578" y="678"/>
      <point x="409" y="678" type="curve" smooth="yes"/>
      <point x="170" y="678"/>
      <point x="48" y="516"/>
    </contour>
    <contour>
      <point x="532" y="797" type="line" smooth="yes"/>
      <point x="557" y="813"/>
      <point x="567" y="832"/>
      <point x="567" y="850" type="curve" smooth="yes"/>
      <point x="567" y="875"/>
      <point x="547" y="896"/>
      <point x="521" y="896" type="curve" smooth="yes"/>
      <point x="504" y="896"/>
      <point x="484" y="887"/>
      <point x="465" y="864" type="curve" smooth="yes"/>
      <point x="371" y="747" type="line"/>
      <point x="401" y="713" type="line"/>
    </contour>
  </outline>
</glyph>
<glyph name="Ocircumflex" format="1">
  <advance width="675"/>
  <unicode hex="00D4"/>
  <outline>
    <contour>
      <point x="208" y="220" type="curve" smooth="yes"/>
      <point x="208" y="353"/>
      <point x="266" y="620"/>
      <point x="399" y="620" type="curve" smooth="yes"/>
      <point x="489" y="620"/>
      <point x="500" y="540"/>
      <point x="500" y="450" type="curve" smooth="yes"/>
      <point x="500" y="317"/>
      <point x="442" y="50"/>
      <point x="309" y="50" type="curve" smooth="yes"/>
      <point x="219" y="50"/>
      <point x="208" y="130"/>
    </contour>
    <contour>
      <point x="48" y="257" type="curve" smooth="yes"/>
      <point x="48" y="85"/>
      <point x="132" y="-10"/>
      <point x="300" y="-10" type="curve" smooth="yes"/>
      <point x="542" y="-10"/>
      <point x="661" y="155"/>
      <point x="661" y="413" type="curve" smooth="yes"/>
      <point x="661" y="584"/>
      <point x="578" y="678"/>
      <point x="409" y="678" type="curve" smooth="yes"/>
      <point x="170" y="678"/>
      <point x="48" y="516"/>
    </contour>
    <contour>
      <point x="540" y="706" type="line"/>
      <point x="575" y="743" type="line"/>
      <point x="497" y="850" type="line" smooth="yes"/>
      <point x="483" y="869"/>
      <point x="472" y="877"/>
      <point x="451" y="877" type="curve" smooth="yes"/>
      <point x="427" y="877"/>
      <point x="409" y="869"/>
      <point x="389" y="850" type="curve" smooth="yes"/>
      <point x="277" y="743" type="line"/>
      <point x="300" y="706" type="line"/>
      <point x="432" y="779" type="line"/>
    </contour>
  </outline>
</glyph>
<glyph name="Otilde" format="1">
  <advance width="675"/>
  <unicode hex="00D5"/>
  <outline>
    <contour>
      <point x="208" y="220" type="curve" smooth="yes"/>
      <point x="208" y="353"/>
      <point x="266" y="620"/>
      <point x="399" y="620" type="curve" smooth="yes"/>
      <point x="489" y="620"/>
      <point x="500" y="540"/>
      <point x="500" y="450" type="curve" smooth="yes"/>
      <point x="500" y="317"/>
      <point x="442" y="50"/>
      <point x="309" y="50" type="curve" smooth="yes"/>
      <point x="219" y="50"/>
      <point x="208" y="130"/>
    </contour>
    <contour>
      <point x="48" y="257" type="curve" smooth="yes"/>
      <point x="48" y="85"/>
      <point x="132" y="-10"/>
      <point x="300" y="-10" type="curve" smooth="yes"/>
      <point x="542" y="-10"/>
      <point x="661" y="155"/>
      <point x="661" y="413" type="curve" smooth="yes"/>
      <point x="661" y="584"/>
      <point x="578" y="678"/>
      <point x="409" y="678" type="curve" smooth="yes"/>
      <point x="170" y="678"/>
      <point x="48" y="516"/>
    </contour>
    <contour>
      <point x="489" y="814" type="curve" smooth="yes"/>
      <point x="449" y="814"/>
      <point x="414" y="854"/>
      <point x="374" y="854" type="curve" smooth="yes"/>
      <point x="328" y="854"/>
      <point x="284" y="816"/>
      <point x="249" y="760" type="curve"/>
      <point x="260" y="745"/>
      <point x="283" y="733"/>
      <point x="297" y="728" type="curve"/>
      <point x="318" y="752"/>
      <point x="341" y="766"/>
      <point x="361" y="766" type="curve" smooth="yes"/>
      <point x="401" y="766"/>
      <point x="437" y="727"/>
      <point x="477" y="727" type="curve" smooth="yes"/>
      <point x="523" y="727"/>
      <point x="567" y="766"/>
      <point x="601" y="822" type="curve"/>
      <point x="590" y="836"/>
      <point x="567" y="848"/>
      <point x="553" y="853" type="curve"/>
      <point x="533" y="830"/>
      <point x="509" y="814"/>
    </contour>
  </outline>
</glyph>
<glyph name="Odieresis" format="1">
  <advance width="675"/>
  <unicode hex="00D6"/>
  <outline>
    <contour>
      <point x="208" y="220" type="curve" smooth="yes"/>
      <point x="208" y="353"/>
      <point x="266" y="620"/>
      <point x="399" y="620" type="curve" smooth="yes"/>
      <point x="489" y="620"/>
      <point x="500" y="540"/>
      <point x="500" y="450" type="curve" smooth="yes"/>
      <point x="500" y="317"/>
      <point x="442" y="50"/>
      <point x="309" y="50" type="curve" smooth="yes"/>
      <point x="219" y="50"/>
      <point x="208" y="130"/>
    </contour>
    <contour>
      <point x="48" y="257" type="curve" smooth="yes"/>
      <point x="48" y="85"/>
      <point x="132" y="-10"/>
      <point x="300" y="-10" type="curve" smooth="yes"/>
      <point x="542" y="-10"/>
      <point x="661" y="155"/>
      <point x="661" y="413" type="curve" smooth="yes"/>
      <point x="661" y="584"/>
      <point x="578" y="678"/>
      <point x="409" y="678" type="curve" smooth="yes"/>
      <point x="170" y="678"/>
      <point x="48" y="516"/>
    </contour>
    <contour>
      <point x="344" y="729" type="curve" smooth="yes"/>
      <point x="387" y="729"/>
      <point x="416" y="759"/>
      <point x="416" y="809" type="curve" smooth="yes"/>
      <point x="416" y="841"/>
      <point x="395" y="862"/>
      <point x="360" y="862" type="curve" smooth="yes"/>
      <point x="317" y="862"/>
      <point x="288" y="833"/>
      <point x="288" y="783" type="curve" smooth="yes"/>
      <point x="288" y="750"/>
      <point x="309" y="729"/>
    </contour>
    <contour>
      <point x="507" y="729" type="curve" smooth="yes"/>
      <point x="550" y="729"/>
      <point x="579" y="759"/>
      <point x="579" y="809" type="curve" smooth="yes"/>
      <point x="579" y="841"/>
      <point x="558" y="862"/>
      <point x="523" y="862" type="curve" smooth="yes"/>
      <point x="480" y="862"/>
      <point x="451" y="833"/>
      <point x="451" y="783" type="curve" smooth="yes"/>
      <point x="451" y="750"/>
      <point x="472" y="729"/>
    </contour>
  </outline>
</glyph>
<glyph name="multiply" format="1">
  <advance width="573"/>
  <unicode hex="00D7"/>
  <outline>
    <contour>
      <point x="97" y="444" type="line"/>
      <point x="221" y="296" type="line"/>
      <point x="45" y="143" type="line"/>
      <point x="108" y="71" type="line"/>
      <point x="282" y="223" type="line"/>
      <point x="410" y="71" type="line"/>
      <point x="484" y="137" type="line"/>
      <point x="357" y="288" type="line"/>
      <point x="527" y="436" type="line"/>
      <point x="464" y="508" type="line"/>
      <point x="296" y="361" type="line"/>
      <point x="173" y="508" type="line"/>
    </contour>
  </outline>
</glyph>
<glyph name="Oslash" format="1">
  <advance width="675"/>
  <unicode hex="00D8"/>
  <outline>
    <contour>
      <point x="41" y="257" type="curve" smooth="yes"/>
      <point x="41" y="192"/>
      <point x="53" y="138"/>
      <point x="77" y="96" type="curve"/>
      <point x="2" y="13" type="line"/>
      <point x="62" y="-41" type="line"/>
      <point x="131" y="35" type="line"/>
      <point x="171" y="5"/>
      <point x="225" y="-10"/>
      <point x="293" y="-10" type="curve" smooth="yes"/>
      <point x="535" y="-10"/>
      <point x="654" y="155"/>
      <point x="654" y="413" type="curve" smooth="yes"/>
      <point x="654" y="477"/>
      <point x="642" y="531"/>
      <point x="618" y="573" type="curve"/>
      <point x="684" y="646" type="line"/>
      <point x="624" y="700" type="line"/>
      <point x="564" y="633" type="line"/>
      <point x="523" y="663"/>
      <point x="470" y="678"/>
      <point x="402" y="678" type="curve" smooth="yes"/>
      <point x="163" y="678"/>
      <point x="41" y="516"/>
    </contour>
    <contour>
      <point x="392" y="620" type="curve" smooth="yes"/>
      <point x="445" y="620"/>
      <point x="471" y="589"/>
      <point x="483" y="544" type="curve"/>
      <point x="201" y="233" type="line"/>
      <point x="205" y="367"/>
      <point x="266" y="620"/>
    </contour>
    <contour>
      <point x="302" y="50" type="curve" smooth="yes"/>
      <point x="249" y="50"/>
      <point x="223" y="80"/>
      <point x="211" y="123" type="curve"/>
      <point x="493" y="434" type="line"/>
      <point x="488" y="300"/>
      <point x="427" y="50"/>
    </contour>
  </outline>
</glyph>
<glyph name="Ucircumflex" format="1">
  <advance width="654"/>
  <unicode hex="00DB"/>
  <outline>
    <contour>
      <point x="637" y="596" type="line"/>
      <point x="660" y="613"/>
      <point x="677" y="620"/>
      <point x="710" y="626" type="curve"/>
      <point x="716" y="667" type="line"/>
      <point x="487" y="667" type="line"/>
      <point x="481" y="626" type="line"/>
      <point x="509" y="622"/>
      <point x="536" y="610"/>
      <point x="547" y="596" type="curve"/>
      <point x="490" y="223" type="line" smooth="yes"/>
      <point x="475" y="132"/>
      <point x="437" y="60"/>
      <point x="340" y="60" type="curve" smooth="yes"/>
      <point x="257" y="60"/>
      <point x="220" y="97"/>
      <point x="220" y="168" type="curve" smooth="yes"/>
      <point x="220" y="193"/>
      <point x="234" y="285"/>
      <point x="236" y="299" type="curve" smooth="yes"/>
      <point x="283" y="596" type="line"/>
      <point x="306" y="613"/>
      <point x="323" y="620"/>
      <point x="356" y="626" type="curve"/>
      <point x="362" y="667" type="line"/>
      <point x="76" y="667" type="line"/>
      <point x="70" y="626" type="line"/>
      <point x="98" y="622"/>
      <point x="125" y="610"/>
      <point x="136" y="596" type="curve"/>
      <point x="99" y="353" type="line" smooth="yes"/>
      <point x="96" y="336"/>
      <point x="72" y="198"/>
      <point x="72" y="161" type="curve" smooth="yes"/>
      <point x="72" y="49"/>
      <point x="150" y="-7"/>
      <point x="308" y="-7" type="curve" smooth="yes"/>
      <point x="489" y="-7"/>
      <point x="558" y="83"/>
      <point x="583" y="245" type="curve" smooth="yes"/>
    </contour>
    <contour>
      <point x="539" y="706" type="line"/>
      <point x="574" y="743" type="line"/>
      <point x="496" y="850" type="line" smooth="yes"/>
      <point x="482" y="869"/>
      <point x="471" y="877"/>
      <point x="450" y="877" type="curve" smooth="yes"/>
      <point x="426" y="877"/>
      <point x="408" y="869"/>
      <point x="388" y="850" type="curve" smooth="yes"/>
      <point x="276" y="743" type="line"/>
      <point x="299" y="706" type="line"/>
      <point x="431" y="779" type="line"/>
    </contour>
  </outline>
</glyph>
<glyph name="Udieresis" format="1">
  <advance width="654"/>
  <unicode hex="00DC"/>
  <outline>
    <contour>
      <point x="637" y="596" type="line"/>
      <point x="660" y="613"/>
      <point x="677" y="620"/>
      <point x="710" y="626" type="curve"/>
      <point x="716" y="667" type="line"/>
      <point x="487" y="667" type="line"/>
      <point x="481" y="626" type="line"/>
      <point x="509" y="622"/>
      <point x="536" y="610"/>
      <point x="547" y="596" type="curve"/>
      <point x="490" y="223" type="line" smooth="yes"/>
      <point x="475" y="132"/>
      <point x="437" y="60"/>
      <point x="340" y="60" type="curve" smooth="yes"/>
      <point x="257" y="60"/>
      <point x="220" y="97"/>
      <point x="220" y="168" type="curve" smooth="yes"/>
      <point x="220" y="193"/>
      <point x="234" y="285"/>
      <point x="236" y="299" type="curve" smooth="yes"/>
      <point x="283" y="596" type="line"/>
      <point x="306" y="613"/>
      <point x="323" y="620"/>
      <point x="356" y="626" type="curve"/>
      <point x="362" y="667" type="line"/>
      <point x="76" y="667" type="line"/>
      <point x="70" y="626" type="line"/>
      <point x="98" y="622"/>
      <point x="125" y="610"/>
      <point x="136" y="596" type="curve"/>
      <point x="99" y="353" type="line" smooth="yes"/>
      <point x="96" y="336"/>
      <point x="72" y="198"/>
      <point x="72" y="161" type="curve" smooth="yes"/>
      <point x="72" y="49"/>
      <point x="150" y="-7"/>
      <point x="308" y="-7" type="curve" smooth="yes"/>
      <point x="489" y="-7"/>
      <point x="558" y="83"/>
      <point x="583" y="245" type="curve" smooth="yes"/>
    </contour>
    <contour>
      <point x="343" y="729" type="curve" smooth="yes"/>
      <point x="386" y="729"/>
      <point x="415" y="759"/>
      <point x="415" y="809" type="curve" smooth="yes"/>
      <point x="415" y="841"/>
      <point x="394" y="862"/>
      <point x="359" y="862" type="curve" smooth="yes"/>
      <point x="316" y="862"/>
      <point x="287" y="833"/>
      <point x="287" y="783" type="curve" smooth="yes"/>
      <point x="287" y="750"/>
      <point x="308" y="729"/>
    </contour>
    <contour>
      <point x="506" y="729" type="curve" smooth="yes"/>
      <point x="549" y="729"/>
      <point x="578" y="759"/>
      <point x="578" y="809" type="curve" smooth="yes"/>
      <point x="578" y="841"/>
      <point x="557" y="862"/>
      <point x="522" y="862" type="curve" smooth="yes"/>
      <point x="479" y="862"/>
      <point x="450" y="833"/>
      <point x="450" y="783" type="curve" smooth="yes"/>
      <point x="450" y="750"/>
      <point x="471" y="729"/>
    </contour>
  </outline>
</glyph>
<glyph name="Thorn" format="1">
  <advance width="601"/>
  <unicode hex="00DE"/>
  <outline>
    <contour>
      <point x="84" y="626" type="line"/>
      <point x="112" y="622"/>
      <point x="139" y="610"/>
      <point x="150" y="596" type="curve"/>
      <point x="67" y="71" type="line"/>
      <point x="46" y="55"/>
      <point x="28" y="46"/>
      <point x="-5" y="41" type="curve"/>
      <point x="-10" y="0" type="line"/>
      <point x="276" y="0" type="line"/>
      <point x="281" y="41" type="line"/>
      <point x="249" y="48"/>
      <point x="227" y="57"/>
      <point x="214" y="71" type="curve"/>
      <point x="227" y="152" type="line"/>
      <point x="245" y="151"/>
      <point x="274" y="150"/>
      <point x="291" y="150" type="curve" smooth="yes"/>
      <point x="479" y="150"/>
      <point x="601" y="234"/>
      <point x="601" y="386" type="curve" smooth="yes"/>
      <point x="601" y="487"/>
      <point x="523" y="537"/>
      <point x="366" y="537" type="curve" smooth="yes"/>
      <point x="287" y="537" type="line"/>
      <point x="297" y="596" type="line"/>
      <point x="320" y="613"/>
      <point x="337" y="620"/>
      <point x="370" y="626" type="curve"/>
      <point x="376" y="667" type="line"/>
      <point x="90" y="667" type="line"/>
    </contour>
    <contour>
      <point x="343" y="476" type="curve" smooth="yes"/>
      <point x="409" y="476"/>
      <point x="445" y="439"/>
      <point x="445" y="374" type="curve" smooth="yes"/>
      <point x="445" y="275"/>
      <point x="396" y="213"/>
      <point x="302" y="213" type="curve" smooth="yes"/>
      <point x="236" y="213" type="line"/>
      <point x="277" y="473" type="line"/>
      <point x="295" y="475"/>
      <point x="319" y="476"/>
    </contour>
  </outline>
</glyph>
<glyph name="germandbls" format="1">
  <advance width="646"/>
  <unicode hex="00DF"/>
  <outline>
    <contour>
      <point x="50" y="70" type="line" smooth="yes"/>
      <point x="33" y="-40"/>
      <point x="50" y="-171"/>
      <point x="-33" y="-171" type="curve" smooth="yes"/>
      <point x="-53" y="-171"/>
      <point x="-62" y="-157"/>
      <point x="-62" y="-141" type="curve" smooth="yes"/>
      <point x="-62" y="-127"/>
      <point x="-54" y="-110"/>
      <point x="-41" y="-103" type="curve"/>
      <point x="-46" y="-75"/>
      <point x="-70" y="-61"/>
      <point x="-95" y="-61" type="curve" smooth="yes"/>
      <point x="-128" y="-61"/>
      <point x="-164" y="-85"/>
      <point x="-164" y="-135" type="curve" smooth="yes"/>
      <point x="-164" y="-191"/>
      <point x="-110" y="-219"/>
      <point x="-44" y="-219" type="curve" smooth="yes"/>
      <point x="138" y="-219"/>
      <point x="170" y="-55"/>
      <point x="188" y="59" type="curve" smooth="yes"/>
      <point x="252" y="470" type="line" smooth="yes"/>
      <point x="265" y="553"/>
      <point x="282" y="632"/>
      <point x="370" y="632" type="curve" smooth="yes"/>
      <point x="421" y="632"/>
      <point x="444" y="602"/>
      <point x="444" y="557" type="curve" smooth="yes"/>
      <point x="444" y="486"/>
      <point x="371" y="413"/>
      <point x="311" y="401" type="curve"/>
      <point x="299" y="328" type="line"/>
      <point x="420" y="313"/>
      <point x="473" y="272"/>
      <point x="473" y="195" type="curve" smooth="yes"/>
      <point x="473" y="118"/>
      <point x="443" y="48"/>
      <point x="385" y="48" type="curve" smooth="yes"/>
      <point x="356" y="48"/>
      <point x="343" y="68"/>
      <point x="343" y="91" type="curve" smooth="yes"/>
      <point x="343" y="107"/>
      <point x="349" y="123"/>
      <point x="361" y="134" type="curve"/>
      <point x="345" y="149"/>
      <point x="326" y="155"/>
      <point x="308" y="155" type="curve" smooth="yes"/>
      <point x="270" y="155"/>
      <point x="235" y="125"/>
      <point x="235" y="75" type="curve" smooth="yes"/>
      <point x="235" y="21"/>
      <point x="288" y="-5"/>
      <point x="384" y="-5" type="curve" smooth="yes"/>
      <point x="508" y="-5"/>
      <point x="619" y="81"/>
      <point x="619" y="191" type="curve" smooth="yes"/>
      <point x="619" y="279"/>
      <point x="537" y="346"/>
      <point x="401" y="371" type="curve"/>
      <point x="510" y="409"/>
      <point x="592" y="478"/>
      <point x="592" y="555" type="curve" smooth="yes"/>
      <point x="592" y="647"/>
      <point x="505" y="686"/>
      <point x="383" y="686" type="curve" smooth="yes"/>
      <point x="239" y="686"/>
      <point x="138" y="629"/>
      <point x="120" y="515" type="curve" smooth="yes"/>
    </contour>
  </outline>
</glyph>
